STARTFONT 2.1
FONT -FontForge-Bitstream Vera Sans Mono-Book-R-Normal-SansMono--64-610-75-75-P-388-ISO8859-1
SIZE 61 75 75
FONTBOUNDINGBOX 40 74 0 -15
COMMENT "Generated by fontforge, http://fontforge.sourceforge.net"
COMMENT "Copyright (c) 2003 by Bitstream, Inc. All Rights Reserved."
STARTPROPERTIES 40
FOUNDRY "FontForge"
FAMILY_NAME "Bitstream Vera Sans Mono"
WEIGHT_NAME "Book"
SLANT "R"
SETWIDTH_NAME "Normal"
ADD_STYLE_NAME "SansMono"
PIXEL_SIZE 64
POINT_SIZE 610
RESOLUTION_X 75
RESOLUTION_Y 75
SPACING "P"
AVERAGE_WIDTH 388
CHARSET_REGISTRY "ISO8859"
CHARSET_ENCODING "1"
FONTNAME_REGISTRY ""
CHARSET_COLLECTIONS "ISO8859-9 ISOLatin1Encoding"
FONT_NAME "BitstreamVeraSansMono-Roman"
FACE_NAME "Bitstream Vera Sans Mono"
COPYRIGHT "Copyright (c) 2003 by Bitstream, Inc. All Rights Reserved."
FONT_VERSION "Release 1.10"
FONT_ASCENT 49
FONT_DESCENT 15
UNDERLINE_POSITION -9
UNDERLINE_THICKNESS 5
X_HEIGHT 34
CAP_HEIGHT 46
RAW_ASCENT 759
RAW_DESCENT 240
NORM_SPACE 39
RELATIVE_WEIGHT 40
RELATIVE_SETWIDTH 50
SUPERSCRIPT_X 0
SUPERSCRIPT_Y 18
SUPERSCRIPT_SIZE 38
SUBSCRIPT_X 0
SUBSCRIPT_Y -13
SUBSCRIPT_SIZE 38
FIGURE_WIDTH 39
AVG_LOWERCASE_WIDTH 390
AVG_UPPERCASE_WIDTH 390
ENDPROPERTIES
CHARS 269
STARTCHAR space
ENCODING 32
SWIDTH 602 0
DWIDTH 39 0
BBX 1 1 0 0
BITMAP
00
ENDCHAR
STARTCHAR exclam
ENCODING 33
SWIDTH 602 0
DWIDTH 39 0
BBX 6 47 16 0
BITMAP
FC
FC
FC
FC
FC
FC
FC
FC
FC
FC
FC
FC
FC
FC
FC
FC
FC
FC
FC
FC
FC
FC
FC
FC
FC
FC
FC
FC
FC
FC
78
78
00
00
00
00
00
00
00
FC
FC
FC
FC
FC
FC
FC
FC
ENDCHAR
STARTCHAR quotedbl
ENCODING 34
SWIDTH 602 0
DWIDTH 39 0
BBX 17 17 11 30
BITMAP
F80F80
F80F80
F80F80
F80F80
F80F80
F80F80
F80F80
F80F80
F80F80
F80F80
F80F80
F80F80
F80F80
F80F80
F80F80
F80F80
F80F80
ENDCHAR
STARTCHAR numbersign
ENCODING 35
SWIDTH 602 0
DWIDTH 39 0
BBX 38 46 0 0
BITMAP
0000F807C0
0000F80F80
0000F80F80
0001F00F80
0001F00F80
0001F01F00
0001F01F00
0003E01F00
0003E01F00
0003E03E00
0003E03E00
0007C03E00
0007C03E00
0FFFFFFFFC
0FFFFFFFFC
0FFFFFFFFC
0FFFFFFFFC
0FFFFFFFFC
000F80F800
001F00F800
001F00F800
001F01F000
001F01F000
003E01F000
003E01F000
003E03E000
003E03E000
007C03E000
FFFFFFFFC0
FFFFFFFFC0
FFFFFFFFC0
FFFFFFFFC0
FFFFFFFFC0
00F80F8000
00F80F8000
01F00F8000
01F00F8000
01F01F0000
01F01F0000
03E01F0000
03E01F0000
03E03E0000
03E03E0000
07C03E0000
07C03E0000
07C07C0000
ENDCHAR
STARTCHAR dollar
ENCODING 36
SWIDTH 602 0
DWIDTH 39 0
BBX 29 57 6 -9
BITMAP
00070000
00070000
00070000
00070000
00070000
00070000
00070000
007FF000
03FFFF00
0FFFFFC0
1FFFFFC0
3FFFFFC0
7FC70FC0
7F0700C0
FE070000
FC070000
FC070000
FC070000
FC070000
FC070000
FE070000
7E070000
7F870000
3FF70000
3FFF8000
0FFFF800
07FFFE00
01FFFF80
003FFFC0
0007FFE0
00071FE0
000707F0
000703F0
000701F8
000701F8
000701F8
000701F8
000701F8
000701F8
800703F8
E00703F0
F80707F0
FF071FE0
FFFFFFC0
FFFFFF80
7FFFFF00
0FFFFC00
00FFE000
00070000
00070000
00070000
00070000
00070000
00070000
00070000
00070000
00070000
ENDCHAR
STARTCHAR percent
ENCODING 37
SWIDTH 602 0
DWIDTH 39 0
BBX 37 45 1 0
BITMAP
01F8000000
07FE000000
1FFF800000
3FFFC00000
3F0FC00000
7C03E00000
7801E00000
F801F00000
F000F00000
F000F00000
F000F00000
F000F00000
F001F00000
7801E00000
7C03E00020
3E0FC000E0
3FFFC007F0
1FFF801FF0
07FE00FF80
01F803FC00
00001FF000
0000FF8000
0003FE0000
001FF00000
007FC00000
03FE00FC00
0FF003FF00
3FC00FFFC0
3E001FFFE0
38001F07E0
00003E01F0
00003C00F0
00007C00F8
0000780078
0000780078
0000780078
0000780078
00007800F8
00003C00F0
00003E01F0
00001F87E0
00001FFFE0
00000FFFC0
000007FF00
000000FC00
ENDCHAR
STARTCHAR ampersand
ENCODING 38
SWIDTH 602 0
DWIDTH 39 0
BBX 36 49 2 -1
BITMAP
0007FE0000
001FFFC000
007FFFC000
00FFFFC000
00FFFFC000
01FE03C000
01FC004000
03F8000000
03F0000000
03F0000000
03F0000000
03F0000000
03F0000000
03F8000000
01F8000000
01FC000000
00FC000000
00FE000000
007F000000
007F000000
01FF800000
03FFC00000
07FFC00000
0FEFE00000
1FCFF003E0
1F87F003E0
3F03F803E0
7E03FC03E0
7E01FC03E0
7C00FE03E0
FC00FF03E0
FC007F03C0
FC003F83C0
FC003FC7C0
FC001FC7C0
FC000FE780
FE0007FF80
FE0007FF00
7E0003FF00
7F0001FE00
7F8001FE00
3FC000FE00
3FE001FF00
1FFC07FF80
0FFFFFFF80
07FFFFBFC0
01FFFF1FE0
00FFFC0FF0
001FE00000
ENDCHAR
STARTCHAR quotesingle
ENCODING 39
SWIDTH 602 0
DWIDTH 39 0
BBX 5 17 17 30
BITMAP
F8
F8
F8
F8
F8
F8
F8
F8
F8
F8
F8
F8
F8
F8
F8
F8
F8
ENDCHAR
STARTCHAR parenleft
ENCODING 40
SWIDTH 602 0
DWIDTH 39 0
BBX 14 57 13 -8
BITMAP
007C
00F8
00F8
01F0
01F0
03E0
07E0
07C0
07C0
0FC0
0F80
1F80
1F00
1F00
3F00
3F00
3E00
7E00
7E00
7E00
7E00
7C00
FC00
FC00
FC00
FC00
FC00
FC00
FC00
FC00
FC00
FC00
FC00
FC00
FC00
7C00
7E00
7E00
7E00
7E00
3E00
3F00
3F00
1F00
1F80
1F80
0F80
0FC0
07C0
07C0
07E0
03E0
01F0
01F0
00F8
00F8
007C
ENDCHAR
STARTCHAR parenright
ENCODING 41
SWIDTH 602 0
DWIDTH 39 0
BBX 14 57 11 -8
BITMAP
F800
7C00
7C00
3E00
3E00
1F00
1F00
0F80
0F80
0FC0
07C0
07E0
07E0
03E0
03F0
03F0
01F0
01F8
01F8
01F8
01F8
00F8
00FC
00FC
00FC
00FC
00FC
00FC
00FC
00FC
00FC
00FC
00FC
00FC
00FC
01F8
01F8
01F8
01F8
01F8
01F0
03F0
03F0
03E0
07E0
07E0
07C0
0FC0
0F80
0F80
1F00
1F00
3E00
3E00
7C00
7C00
F800
ENDCHAR
STARTCHAR asterisk
ENCODING 42
SWIDTH 602 0
DWIDTH 39 0
BBX 28 30 5 18
BITMAP
000F0000
000F0000
000F0000
000F0000
000F0000
000F0000
600F0060
700F00E0
FC0F03F0
7F0F0FE0
1F8F1F80
0FEF7F00
03FFFC00
00FFF000
003FC000
003FC000
00FFF000
03FFFC00
07EF7E00
1F8F1F80
7F0F0FE0
FC0F03F0
700F00E0
600F0060
000F0000
000F0000
000F0000
000F0000
000F0000
000F0000
ENDCHAR
STARTCHAR plus
ENCODING 43
SWIDTH 602 0
DWIDTH 39 0
BBX 33 33 3 3
BITMAP
0003E00000
0003E00000
0003E00000
0003E00000
0003E00000
0003E00000
0003E00000
0003E00000
0003E00000
0003E00000
0003E00000
0003E00000
0003E00000
0003E00000
FFFFFFFF80
FFFFFFFF80
FFFFFFFF80
FFFFFFFF80
FFFFFFFF80
0003E00000
0003E00000
0003E00000
0003E00000
0003E00000
0003E00000
0003E00000
0003E00000
0003E00000
0003E00000
0003E00000
0003E00000
0003E00000
0003E00000
ENDCHAR
STARTCHAR comma
ENCODING 44
SWIDTH 602 0
DWIDTH 39 0
BBX 11 18 13 -8
BITMAP
1FE0
1FE0
1FE0
1FE0
1FE0
1FE0
1FE0
1FC0
3FC0
3F80
3F80
3F00
7F00
7E00
7E00
7C00
FC00
F800
ENDCHAR
STARTCHAR hyphen
ENCODING 45
SWIDTH 602 0
DWIDTH 39 0
BBX 16 5 11 15
BITMAP
FFFF
FFFF
FFFF
FFFF
FFFF
ENDCHAR
STARTCHAR period
ENCODING 46
SWIDTH 602 0
DWIDTH 39 0
BBX 8 10 15 0
BITMAP
FF
FF
FF
FF
FF
FF
FF
FF
FF
FF
ENDCHAR
STARTCHAR slash
ENCODING 47
SWIDTH 602 0
DWIDTH 39 0
BBX 31 53 3 -6
BITMAP
0000007E
000000FC
000000FC
000001F8
000001F8
000003F0
000003F0
000007E0
000007E0
000007E0
00000FC0
00000FC0
00001F80
00001F80
00003F00
00003F00
00007E00
00007E00
0000FC00
0000FC00
0001F800
0001F800
0003F000
0003F000
0007E000
0007E000
000FE000
000FC000
000FC000
001F8000
001F8000
003F0000
003F0000
007E0000
007E0000
00FC0000
00FC0000
01F80000
01F80000
03F00000
03F00000
07E00000
07E00000
0FC00000
0FC00000
0FC00000
1F800000
1F800000
3F000000
3F000000
7E000000
7E000000
FC000000
ENDCHAR
STARTCHAR zero
ENCODING 48
SWIDTH 602 0
DWIDTH 39 0
BBX 30 49 4 -1
BITMAP
001FE000
007FF800
01FFFE00
03FFFF00
07FFFF80
0FF03FC0
0FE01FC0
1FC00FE0
1F8007E0
3F0003F0
3F0003F0
3F0003F0
7E0001F8
7E0001F8
7E0001F8
7E0001F8
FC0000F8
FC0000FC
FC0000FC
FC0000FC
FC0000FC
FC0780FC
FC0FC0FC
FC1FE0FC
FC1FE0FC
FC1FE0FC
FC1FE0FC
FC0FC0FC
FC0780FC
FC0000FC
FC0000FC
FC0000FC
FC0000F8
7E0001F8
7E0001F8
7E0001F8
7E0001F8
3F0003F0
3F0003F0
3F0003F0
1F8007E0
1FC00FE0
0FE01FC0
0FF03FC0
07FFFF80
03FFFF00
01FFFE00
007FF800
001FE000
ENDCHAR
STARTCHAR one
ENCODING 49
SWIDTH 602 0
DWIDTH 39 0
BBX 27 47 7 0
BITMAP
00FF8000
1FFF8000
FFFF8000
FFFF8000
FFFF8000
FF1F8000
E01F8000
001F8000
001F8000
001F8000
001F8000
001F8000
001F8000
001F8000
001F8000
001F8000
001F8000
001F8000
001F8000
001F8000
001F8000
001F8000
001F8000
001F8000
001F8000
001F8000
001F8000
001F8000
001F8000
001F8000
001F8000
001F8000
001F8000
001F8000
001F8000
001F8000
001F8000
001F8000
001F8000
001F8000
001F8000
001F8000
7FFFFFE0
7FFFFFE0
7FFFFFE0
7FFFFFE0
7FFFFFE0
ENDCHAR
STARTCHAR two
ENCODING 50
SWIDTH 602 0
DWIDTH 39 0
BBX 30 48 5 0
BITMAP
00FFE000
0FFFFC00
7FFFFF00
FFFFFF80
FFFFFFC0
FFC03FE0
FC000FF0
E00003F8
800003F8
000001F8
000000FC
000000FC
000000FC
000000FC
000000FC
000000FC
000000FC
000001FC
000001FC
000003F8
000003F8
000007F0
00000FF0
00001FE0
00003FC0
00003FC0
00007F80
0000FF00
0001FE00
0003FC00
0007F800
000FF000
001FE000
003FC000
007F8000
00FF0000
01FE0000
03FC0000
07F80000
0FE00000
1FC00000
3F800000
7F000000
FFFFFFFC
FFFFFFFC
FFFFFFFC
FFFFFFFC
FFFFFFFC
ENDCHAR
STARTCHAR three
ENCODING 51
SWIDTH 602 0
DWIDTH 39 0
BBX 30 49 4 -1
BITMAP
00FFC000
1FFFFC00
7FFFFE00
7FFFFF80
7FFFFFC0
7F803FE0
78000FE0
400007F0
000003F0
000003F8
000001F8
000001F8
000001F8
000001F8
000001F8
000003F8
000003F0
000007F0
00000FE0
00007FC0
00FFFF80
00FFFE00
00FFF800
00FFFE00
00FFFF80
00007FC0
00000FE0
000007F0
000003F8
000001F8
000001F8
000000FC
000000FC
000000FC
000000FC
000000FC
000000FC
000000FC
000001FC
000001F8
000003F8
800007F8
F0000FF0
FF007FE0
FFFFFFC0
FFFFFF80
FFFFFF00
3FFFFC00
01FFC000
ENDCHAR
STARTCHAR four
ENCODING 52
SWIDTH 602 0
DWIDTH 39 0
BBX 32 47 3 0
BITMAP
00003FC0
00003FC0
00007FC0
00007FC0
0000FFC0
0001FFC0
0001EFC0
0003EFC0
0007CFC0
0007CFC0
000F8FC0
000F0FC0
001F0FC0
003E0FC0
003E0FC0
007C0FC0
00F80FC0
00F80FC0
01F00FC0
01F00FC0
03E00FC0
07E00FC0
07C00FC0
0F800FC0
1F800FC0
1F000FC0
3F000FC0
3E000FC0
7C000FC0
FC000FC0
F8000FC0
FFFFFFFF
FFFFFFFF
FFFFFFFF
FFFFFFFF
FFFFFFFF
00000FC0
00000FC0
00000FC0
00000FC0
00000FC0
00000FC0
00000FC0
00000FC0
00000FC0
00000FC0
00000FC0
ENDCHAR
STARTCHAR five
ENCODING 53
SWIDTH 602 0
DWIDTH 39 0
BBX 30 48 4 -1
BITMAP
3FFFFFE0
3FFFFFE0
3FFFFFE0
3FFFFFE0
3FFFFFE0
3F000000
3F000000
3F000000
3F000000
3F000000
3F000000
3F000000
3F000000
3F000000
3F000000
3F000000
3F7FC000
3FFFF800
3FFFFE00
3FFFFF80
3FFFFFC0
3E00FFE0
20001FE0
00000FF0
000007F8
000003F8
000001F8
000001FC
000000FC
000000FC
000000FC
000000FC
000000FC
000000FC
000000FC
000000FC
000001FC
000001F8
000003F8
000003F0
800007F0
F0001FE0
FE007FE0
FFFFFFC0
FFFFFF80
FFFFFE00
7FFFF800
03FFC000
ENDCHAR
STARTCHAR six
ENCODING 54
SWIDTH 602 0
DWIDTH 39 0
BBX 30 49 4 -1
BITMAP
0007FC00
003FFFC0
007FFFE0
01FFFFE0
03FFFFE0
07FE03E0
0FF000E0
0FE00020
1FC00000
1F800000
3F000000
3F000000
3F000000
7E000000
7E000000
7E000000
7C07F000
FC3FFE00
FC7FFF00
FCFFFFC0
FDFFFFE0
FDF81FE0
FFE00FF0
FFC003F0
FF8003F8
FF0001F8
FF0001F8
FF0001FC
FE0000FC
FE0000FC
FE0000FC
FE0000FC
FE0000FC
7E0000FC
7E0000FC
7E0000FC
7E0000FC
7F0001FC
3F0001F8
3F0001F8
3F8003F8
1FC003F0
1FE007F0
0FF81FE0
07FFFFC0
03FFFF80
01FFFF00
00FFFE00
001FF000
ENDCHAR
STARTCHAR seven
ENCODING 55
SWIDTH 602 0
DWIDTH 39 0
BBX 30 47 4 0
BITMAP
FFFFFFFC
FFFFFFFC
FFFFFFFC
FFFFFFFC
FFFFFFF8
000003F8
000003F8
000003F0
000007F0
000007E0
00000FE0
00000FE0
00000FC0
00001FC0
00001F80
00003F80
00003F80
00003F00
00007F00
00007E00
0000FE00
0000FE00
0000FC00
0001FC00
0001F800
0001F800
0003F800
0003F000
0007F000
0007E000
0007E000
000FE000
000FC000
001FC000
001F8000
001F8000
003F8000
003F0000
007F0000
007E0000
007E0000
00FE0000
00FC0000
01FC0000
01F80000
01F80000
03F80000
ENDCHAR
STARTCHAR eight
ENCODING 56
SWIDTH 602 0
DWIDTH 39 0
BBX 30 49 4 -1
BITMAP
003FF000
00FFFC00
03FFFF00
07FFFF80
0FFFFFC0
1FF03FE0
3FC00FF0
3F8007F0
3F0003F0
7F0003F8
7E0001F8
7E0001F8
7E0001F8
7E0001F8
7E0001F8
7E0001F8
3F0003F0
3F0003F0
1F8007E0
1FC00FE0
0FF03FC0
07FFFF80
01FFFE00
007FF800
03FFFF00
0FFFFFC0
1FF03FE0
3F8007F0
3F0003F0
7E0001F8
7E0001F8
FC0001F8
FC0000FC
FC0000FC
FC0000FC
FC0000FC
FC0000FC
FC0000FC
FC0001FC
FE0001FC
7E0001F8
7F0003F8
3F8007F0
3FF03FF0
1FFFFFE0
0FFFFFC0
07FFFF80
01FFFE00
003FF000
ENDCHAR
STARTCHAR nine
ENCODING 57
SWIDTH 602 0
DWIDTH 39 0
BBX 30 49 4 -1
BITMAP
003FE000
01FFF800
03FFFE00
07FFFF00
0FFFFF80
1FE07FC0
3FC01FE0
3F000FE0
7F0007F0
7E0003F0
7E0003F0
FE0003F8
FC0001F8
FC0001F8
FC0001F8
FC0001F8
FC0001FC
FC0001FC
FC0001FC
FC0001FC
FC0001FC
FE0003FC
7E0003FC
7E0003FC
7F0007FC
3F000FFC
3F801FFC
1FE07EFC
1FFFFEFC
0FFFFCFC
03FFF8FC
01FFF0FC
003F80F8
000001F8
000001F8
000001F8
000003F0
000003F0
000003F0
000007E0
00000FE0
10001FC0
18003FC0
1F01FF80
1FFFFF00
1FFFFE00
1FFFFC00
0FFFF000
00FF8000
ENDCHAR
STARTCHAR colon
ENCODING 58
SWIDTH 602 0
DWIDTH 39 0
BBX 8 33 15 0
BITMAP
FF
FF
FF
FF
FF
FF
FF
FF
FF
FF
00
00
00
00
00
00
00
00
00
00
00
00
00
FF
FF
FF
FF
FF
FF
FF
FF
FF
FF
ENDCHAR
STARTCHAR semicolon
ENCODING 59
SWIDTH 602 0
DWIDTH 39 0
BBX 11 41 12 -8
BITMAP
1FE0
1FE0
1FE0
1FE0
1FE0
1FE0
1FE0
1FE0
1FE0
1FE0
0000
0000
0000
0000
0000
0000
0000
0000
0000
0000
0000
0000
0000
1FE0
1FE0
1FE0
1FE0
1FE0
1FE0
1FE0
1FC0
3FC0
3F80
3F80
3F00
7F00
7E00
7E00
7C00
FC00
F800
ENDCHAR
STARTCHAR less
ENCODING 60
SWIDTH 602 0
DWIDTH 39 0
BBX 33 31 3 5
BITMAP
0000000080
0000000780
0000001F80
000000FF80
000007FF80
00001FFF80
0000FFFE00
0003FFF000
001FFF8000
007FFE0000
03FFF00000
0FFF800000
7FFE000000
FFF0000000
FF80000000
FE00000000
FF80000000
FFF0000000
7FFE000000
0FFF800000
03FFF00000
007FFE0000
001FFF8000
0003FFF000
0000FFFE00
00001FFF80
000003FF80
000000FF80
0000001F80
0000000780
0000000080
ENDCHAR
STARTCHAR equal
ENCODING 61
SWIDTH 602 0
DWIDTH 39 0
BBX 33 17 3 11
BITMAP
FFFFFFFF80
FFFFFFFF80
FFFFFFFF80
FFFFFFFF80
FFFFFFFF80
0000000000
0000000000
0000000000
0000000000
0000000000
0000000000
0000000000
FFFFFFFF80
FFFFFFFF80
FFFFFFFF80
FFFFFFFF80
FFFFFFFF80
ENDCHAR
STARTCHAR greater
ENCODING 62
SWIDTH 602 0
DWIDTH 39 0
BBX 33 31 3 5
BITMAP
8000000000
F000000000
FC00000000
FF80000000
FFE0000000
FFFC000000
3FFF800000
07FFE00000
00FFFC0000
003FFF0000
0007FFE000
0000FFF800
00003FFF00
000007FF80
000000FF80
0000003F80
000000FF80
000007FF80
00003FFF00
0000FFF800
0007FFE000
003FFF0000
00FFFC0000
07FFE00000
3FFF800000
FFFC000000
FFF0000000
FF80000000
FC00000000
F000000000
8000000000
ENDCHAR
STARTCHAR question
ENCODING 63
SWIDTH 602 0
DWIDTH 39 0
BBX 25 48 7 0
BITMAP
01FF8000
1FFFE000
7FFFF800
FFFFFC00
FFFFFE00
FF00FF00
F8007F00
E0003F80
80001F80
00001F80
00001F80
00001F80
00003F80
00003F80
00007F00
0000FF00
0001FE00
0003FE00
0007FC00
000FF800
001FF000
001FE000
003FC000
007F8000
007F0000
00FE0000
00FE0000
00FC0000
00FC0000
00FC0000
00FC0000
00FC0000
00FC0000
00FC0000
00FC0000
00000000
00000000
00000000
00000000
00000000
00FC0000
00FC0000
00FC0000
00FC0000
00FC0000
00FC0000
00FC0000
00FC0000
ENDCHAR
STARTCHAR at
ENCODING 64
SWIDTH 602 0
DWIDTH 39 0
BBX 36 54 1 -10
BITMAP
00007FC000
0003FFF800
001FFFFC00
003FFFFF00
007FC07F80
01FE001F80
01F80007C0
03F00003C0
07E00003E0
0FC00001E0
0F800001F0
1F800000F0
1F000000F0
3F0007E0F0
3E003FFCF0
3E007FFEF0
7C00FFFFF0
7C01FC1FF0
7C03F007F0
7C03E003F0
F807E003F0
F807C001F0
F807C001F0
F80F8000F0
F80F8000F0
F80F8000F0
F80F8000F0
F80F8000F0
F80F8000F0
F80F8000F0
F80F8000F0
F807C001F0
F807C001F0
7C07E003F0
7C03E003F0
7C03F007F0
7C01FC1FF0
7E00FFFFF0
3E007FFEF0
3E003FFCF0
1F000FF000
1F80000000
0F80000000
0FC0000000
07E0000000
03F0000000
03F8000000
01FC000000
00FF000000
003FE00600
001FFFFE00
0007FFFF00
0001FFFF00
00001FF800
ENDCHAR
STARTCHAR A
ENCODING 65
SWIDTH 602 0
DWIDTH 39 0
BBX 36 47 1 0
BITMAP
0003FC0000
0003FC0000
0007FE0000
0007FE0000
0007FE0000
0007FE0000
000FFF0000
000FFF0000
000FFF0000
001FFF8000
001F9F8000
001F9F8000
003F9FC000
003F0FC000
003F0FC000
007F0FC000
007E07E000
007E07E000
007E07E000
00FE07F000
00FC03F000
00FC03F000
01FC03F800
01F801F800
01F801F800
03F801FC00
03F000FC00
03F000FC00
03F000FC00
07F000FE00
07FFFFFE00
07FFFFFE00
0FFFFFFF00
0FFFFFFF00
0FFFFFFF00
1FC0003F80
1F80001F80
1F80001F80
1F80001F80
3F80001FC0
3F00000FC0
3F00000FC0
7F00000FE0
7E000007E0
7E000007E0
FE000007F0
FC000003F0
ENDCHAR
STARTCHAR B
ENCODING 66
SWIDTH 602 0
DWIDTH 39 0
BBX 30 47 5 0
BITMAP
FFFFC000
FFFFFC00
FFFFFE00
FFFFFF80
FFFFFFC0
FC003FC0
FC000FE0
FC0007E0
FC0007F0
FC0003F0
FC0003F0
FC0003F0
FC0003F0
FC0003F0
FC0003F0
FC0003F0
FC0007E0
FC0007E0
FC001FE0
FC007FC0
FFFFFF80
FFFFFE00
FFFFF800
FFFFFF00
FFFFFFC0
FC003FE0
FC000FF0
FC0003F0
FC0001F8
FC0001F8
FC0000FC
FC0000FC
FC0000FC
FC0000FC
FC0000FC
FC0000FC
FC0000FC
FC0001FC
FC0001F8
FC0003F8
FC0007F8
FC003FF0
FFFFFFE0
FFFFFFC0
FFFFFF80
FFFFFE00
FFFFE000
ENDCHAR
STARTCHAR C
ENCODING 67
SWIDTH 602 0
DWIDTH 39 0
BBX 29 49 4 -1
BITMAP
0003FE00
001FFFC0
007FFFF0
00FFFFF8
01FFFFF8
03FE03F8
07F00078
0FE00018
0FC00008
1F800000
1F800000
3F000000
3F000000
7E000000
7E000000
7E000000
7E000000
7C000000
FC000000
FC000000
FC000000
FC000000
FC000000
FC000000
FC000000
FC000000
FC000000
FC000000
FC000000
FC000000
FC000000
FC000000
7E000000
7E000000
7E000000
7E000000
3F000000
3F000000
3F800000
1F800000
0FC00008
0FE00018
07F80078
03FE03F8
01FFFFF8
00FFFFF8
007FFFF0
001FFFC0
0003FE00
ENDCHAR
STARTCHAR D
ENCODING 68
SWIDTH 602 0
DWIDTH 39 0
BBX 30 47 4 0
BITMAP
FFFE0000
FFFFE000
FFFFF800
FFFFFC00
FFFFFF00
FC03FF80
FC007FC0
FC001FC0
FC000FE0
FC0007E0
FC0003F0
FC0003F0
FC0001F8
FC0001F8
FC0001F8
FC0001F8
FC0000F8
FC0000FC
FC0000FC
FC0000FC
FC0000FC
FC0000FC
FC0000FC
FC0000FC
FC0000FC
FC0000FC
FC0000FC
FC0000FC
FC0000FC
FC0000FC
FC0000F8
FC0001F8
FC0001F8
FC0001F8
FC0001F8
FC0003F0
FC0003F0
FC0007E0
FC000FE0
FC001FC0
FC007FC0
FC03FF80
FFFFFF00
FFFFFC00
FFFFF800
FFFFE000
FFFE0000
ENDCHAR
STARTCHAR E
ENCODING 69
SWIDTH 602 0
DWIDTH 39 0
BBX 28 47 6 0
BITMAP
FFFFFFE0
FFFFFFE0
FFFFFFE0
FFFFFFE0
FFFFFFE0
FC000000
FC000000
FC000000
FC000000
FC000000
FC000000
FC000000
FC000000
FC000000
FC000000
FC000000
FC000000
FC000000
FC000000
FFFFFFC0
FFFFFFC0
FFFFFFC0
FFFFFFC0
FFFFFFC0
FC000000
FC000000
FC000000
FC000000
FC000000
FC000000
FC000000
FC000000
FC000000
FC000000
FC000000
FC000000
FC000000
FC000000
FC000000
FC000000
FC000000
FC000000
FFFFFFF0
FFFFFFF0
FFFFFFF0
FFFFFFF0
FFFFFFF0
ENDCHAR
STARTCHAR F
ENCODING 70
SWIDTH 602 0
DWIDTH 39 0
BBX 27 47 7 0
BITMAP
FFFFFFE0
FFFFFFE0
FFFFFFE0
FFFFFFE0
FFFFFFE0
FC000000
FC000000
FC000000
FC000000
FC000000
FC000000
FC000000
FC000000
FC000000
FC000000
FC000000
FC000000
FC000000
FC000000
FFFFFF80
FFFFFF80
FFFFFF80
FFFFFF80
FFFFFF80
FC000000
FC000000
FC000000
FC000000
FC000000
FC000000
FC000000
FC000000
FC000000
FC000000
FC000000
FC000000
FC000000
FC000000
FC000000
FC000000
FC000000
FC000000
FC000000
FC000000
FC000000
FC000000
FC000000
ENDCHAR
STARTCHAR G
ENCODING 71
SWIDTH 602 0
DWIDTH 39 0
BBX 31 49 4 -1
BITMAP
0003FE00
001FFFC0
007FFFF0
00FFFFF8
01FFFFF8
03FE03F8
07F00078
0FE00018
0FC00008
1F800000
3F800000
3F000000
3F000000
7E000000
7E000000
7E000000
7E000000
7E000000
FC000000
FC000000
FC000000
FC000000
FC000000
FC000000
FC003FFE
FC003FFE
FC003FFE
FC003FFE
FC003FFE
FC00007E
FC00007E
FC00007E
7E00007E
7E00007E
7E00007E
7E00007E
3F00007E
3F00007E
3F80007E
1F80007E
1FC0007E
0FE0007E
07F000FE
03FE03FE
01FFFFFE
00FFFFFC
007FFFF0
001FFFC0
0003FE00
ENDCHAR
STARTCHAR H
ENCODING 72
SWIDTH 602 0
DWIDTH 39 0
BBX 30 47 4 0
BITMAP
FC0000FC
FC0000FC
FC0000FC
FC0000FC
FC0000FC
FC0000FC
FC0000FC
FC0000FC
FC0000FC
FC0000FC
FC0000FC
FC0000FC
FC0000FC
FC0000FC
FC0000FC
FC0000FC
FC0000FC
FC0000FC
FC0000FC
FFFFFFFC
FFFFFFFC
FFFFFFFC
FFFFFFFC
FFFFFFFC
FC0000FC
FC0000FC
FC0000FC
FC0000FC
FC0000FC
FC0000FC
FC0000FC
FC0000FC
FC0000FC
FC0000FC
FC0000FC
FC0000FC
FC0000FC
FC0000FC
FC0000FC
FC0000FC
FC0000FC
FC0000FC
FC0000FC
FC0000FC
FC0000FC
FC0000FC
FC0000FC
ENDCHAR
STARTCHAR I
ENCODING 73
SWIDTH 602 0
DWIDTH 39 0
BBX 26 47 6 0
BITMAP
FFFFFFC0
FFFFFFC0
FFFFFFC0
FFFFFFC0
FFFFFFC0
003F0000
003F0000
003F0000
003F0000
003F0000
003F0000
003F0000
003F0000
003F0000
003F0000
003F0000
003F0000
003F0000
003F0000
003F0000
003F0000
003F0000
003F0000
003F0000
003F0000
003F0000
003F0000
003F0000
003F0000
003F0000
003F0000
003F0000
003F0000
003F0000
003F0000
003F0000
003F0000
003F0000
003F0000
003F0000
003F0000
003F0000
FFFFFFC0
FFFFFFC0
FFFFFFC0
FFFFFFC0
FFFFFFC0
ENDCHAR
STARTCHAR J
ENCODING 74
SWIDTH 602 0
DWIDTH 39 0
BBX 26 48 4 -1
BITMAP
00FFFFC0
00FFFFC0
00FFFFC0
00FFFFC0
00FFFFC0
00000FC0
00000FC0
00000FC0
00000FC0
00000FC0
00000FC0
00000FC0
00000FC0
00000FC0
00000FC0
00000FC0
00000FC0
00000FC0
00000FC0
00000FC0
00000FC0
00000FC0
00000FC0
00000FC0
00000FC0
00000FC0
00000FC0
00000FC0
00000FC0
00000FC0
00000FC0
00000FC0
00000FC0
00000FC0
00000FC0
00000FC0
00000FC0
00000FC0
80001F80
C0001F80
E0003F80
F8007F00
FF00FF00
FFFFFE00
FFFFFE00
7FFFF800
0FFFF000
01FF8000
ENDCHAR
STARTCHAR K
ENCODING 75
SWIDTH 602 0
DWIDTH 39 0
BBX 33 47 4 0
BITMAP
FC00007F80
FC0000FF00
FC0001FE00
FC0003FC00
FC0007F800
FC0007F000
FC000FE000
FC001FC000
FC003F8000
FC007F0000
FC00FE0000
FC01FC0000
FC03F80000
FC07F00000
FC0FE00000
FC1FC00000
FC3FC00000
FC7F800000
FCFF000000
FDFE000000
FFFF000000
FFFF800000
FFFF800000
FFFFC00000
FFDFE00000
FF8FE00000
FF07F00000
FE07F80000
FC03F80000
FC01FC0000
FC01FE0000
FC00FE0000
FC007F0000
FC007F8000
FC003F8000
FC001FC000
FC001FE000
FC000FE000
FC0007F000
FC0007F800
FC0003F800
FC0001FC00
FC0001FE00
FC0000FE00
FC00007F00
FC00007F80
FC00003F80
ENDCHAR
STARTCHAR L
ENCODING 76
SWIDTH 602 0
DWIDTH 39 0
BBX 29 47 7 0
BITMAP
FC000000
FC000000
FC000000
FC000000
FC000000
FC000000
FC000000
FC000000
FC000000
FC000000
FC000000
FC000000
FC000000
FC000000
FC000000
FC000000
FC000000
FC000000
FC000000
FC000000
FC000000
FC000000
FC000000
FC000000
FC000000
FC000000
FC000000
FC000000
FC000000
FC000000
FC000000
FC000000
FC000000
FC000000
FC000000
FC000000
FC000000
FC000000
FC000000
FC000000
FC000000
FC000000
FFFFFFF8
FFFFFFF8
FFFFFFF8
FFFFFFF8
FFFFFFF8
ENDCHAR
STARTCHAR M
ENCODING 77
SWIDTH 602 0
DWIDTH 39 0
BBX 33 47 3 0
BITMAP
FF8000FF80
FF8000FF80
FF8000FF80
FFC001FF80
FFC001FF80
FFC001FF80
FFE003FF80
FDE003DF80
FDE003DF80
FDF007DF80
FCF0079F80
FCF0079F80
FCF80F9F80
FC780F1F80
FC780F1F80
FC7C1F1F80
FC3C1E1F80
FC3C1E1F80
FC3E3E1F80
FC1E3C1F80
FC1E3C1F80
FC1F7C1F80
FC0F781F80
FC0F781F80
FC0FF81F80
FC07F01F80
FC07F01F80
FC07F01F80
FC03E01F80
FC03E01F80
FC00001F80
FC00001F80
FC00001F80
FC00001F80
FC00001F80
FC00001F80
FC00001F80
FC00001F80
FC00001F80
FC00001F80
FC00001F80
FC00001F80
FC00001F80
FC00001F80
FC00001F80
FC00001F80
FC00001F80
ENDCHAR
STARTCHAR N
ENCODING 78
SWIDTH 602 0
DWIDTH 39 0
BBX 30 47 4 0
BITMAP
FF0000FC
FF8000FC
FF8000FC
FF8000FC
FFC000FC
FFC000FC
FFE000FC
FFE000FC
FFE000FC
FDF000FC
FDF000FC
FDF800FC
FCF800FC
FCFC00FC
FC7C00FC
FC7C00FC
FC7E00FC
FC3E00FC
FC3F00FC
FC1F00FC
FC1F00FC
FC0F80FC
FC0F80FC
FC0FC0FC
FC07C0FC
FC07C0FC
FC03E0FC
FC03E0FC
FC03F0FC
FC01F0FC
FC01F8FC
FC00F8FC
FC00F8FC
FC00FCFC
FC007CFC
FC007EFC
FC003EFC
FC003EFC
FC001FFC
FC001FFC
FC001FFC
FC000FFC
FC000FFC
FC0007FC
FC0007FC
FC0007FC
FC0003FC
ENDCHAR
STARTCHAR O
ENCODING 79
SWIDTH 602 0
DWIDTH 39 0
BBX 31 49 4 -1
BITMAP
001FF000
007FFC00
01FFFF00
03FFFF80
07FFFFC0
0FF83FE0
0FE00FE0
1FC007F0
1F8003F0
3F0001F8
3F0001F8
7E0000F8
7E0000FC
7E0000FC
7E0000FC
7E0000FC
FC00007C
FC00007E
FC00007E
FC00007E
FC00007E
FC00007E
FC00007E
FC00007E
FC00007E
FC00007E
FC00007E
FC00007E
FC00007E
FC00007E
FC00007E
FC00007E
FC00007E
7E0000FC
7E0000FC
7E0000FC
7E0000FC
7E0000F8
3F0001F8
3F0001F8
3F8003F0
1FC007F0
0FE00FE0
0FF81FE0
07FFFFC0
03FFFF80
01FFFF00
007FFC00
001FF000
ENDCHAR
STARTCHAR P
ENCODING 80
SWIDTH 602 0
DWIDTH 39 0
BBX 30 47 6 0
BITMAP
FFFFE000
FFFFFE00
FFFFFF00
FFFFFFC0
FFFFFFE0
FC003FF0
FC000FF0
FC0007F8
FC0003F8
FC0001F8
FC0001FC
FC0000FC
FC0000FC
FC0000FC
FC0000FC
FC0000FC
FC0000FC
FC0001FC
FC0001F8
FC0003F8
FC0007F8
FC000FF0
FC003FF0
FFFFFFE0
FFFFFFC0
FFFFFF80
FFFFFE00
FFFFE000
FC000000
FC000000
FC000000
FC000000
FC000000
FC000000
FC000000
FC000000
FC000000
FC000000
FC000000
FC000000
FC000000
FC000000
FC000000
FC000000
FC000000
FC000000
FC000000
ENDCHAR
STARTCHAR Q
ENCODING 81
SWIDTH 602 0
DWIDTH 39 0
BBX 31 56 4 -8
BITMAP
001FF000
007FFC00
01FFFF00
03FFFF80
07FFFFC0
0FF83FE0
0FE00FE0
1FC007F0
1F8003F0
3F0001F8
3F0001F8
7E0000F8
7E0000FC
7E0000FC
7E0000FC
7E0000FC
FC00007C
FC00007E
FC00007E
FC00007E
FC00007E
FC00007E
FC00007E
FC00007E
FC00007E
FC00007E
FC00007E
FC00007E
FC00007E
FC00007E
FC00007E
FC00007E
FC00007E
7E0000FC
7E0000FC
7E0000FC
7E0000FC
7E0000FC
3F0001F8
3F0001F8
1F8003F8
1FC007F0
0FE00FF0
0FF81FE0
07FFFFC0
03FFFF80
01FFFF00
007FFE00
001FFF00
00007F80
00003FC0
00000FE0
000007F0
000003F0
000001E0
00000080
ENDCHAR
STARTCHAR R
ENCODING 82
SWIDTH 602 0
DWIDTH 39 0
BBX 34 47 4 0
BITMAP
FFFFC00000
FFFFFC0000
FFFFFF0000
FFFFFF8000
FFFFFFC000
FC007FE000
FC001FE000
FC0007F000
FC0003F000
FC0003F800
FC0001F800
FC0001F800
FC0001F800
FC0001F800
FC0001F800
FC0001F800
FC0001F800
FC0003F000
FC0003F000
FC0007F000
FC000FE000
FC003FC000
FFFFFF8000
FFFFFF0000
FFFFF80000
FFFFFC0000
FFFFFE0000
FC01FF0000
FC007F8000
FC003FC000
FC001FC000
FC000FE000
FC000FE000
FC0007F000
FC0003F000
FC0003F800
FC0003F800
FC0001FC00
FC0001FC00
FC0000FE00
FC0000FE00
FC00007E00
FC00007F00
FC00003F00
FC00003F80
FC00001F80
FC00001FC0
ENDCHAR
STARTCHAR S
ENCODING 83
SWIDTH 602 0
DWIDTH 39 0
BBX 30 49 4 -1
BITMAP
001FF800
00FFFF80
03FFFFE0
0FFFFFE0
1FFFFFE0
1FF00FE0
3F8000E0
7F000020
7E000000
7E000000
FC000000
FC000000
FC000000
FC000000
FC000000
FC000000
FE000000
FE000000
7F000000
7FC00000
3FF80000
3FFF8000
1FFFF800
07FFFE00
03FFFF80
007FFFC0
000FFFE0
0000FFF0
00000FF0
000007F8
000003F8
000001FC
000000FC
000000FC
000000FC
000000FC
000000FC
000000FC
000000FC
000001F8
400001F8
700003F8
7C000FF0
7FC03FF0
7FFFFFE0
7FFFFFC0
3FFFFF00
07FFFE00
007FE000
ENDCHAR
STARTCHAR T
ENCODING 84
SWIDTH 602 0
DWIDTH 39 0
BBX 36 47 1 0
BITMAP
FFFFFFFFF0
FFFFFFFFF0
FFFFFFFFF0
FFFFFFFFF0
FFFFFFFFF0
0001F80000
0001F80000
0001F80000
0001F80000
0001F80000
0001F80000
0001F80000
0001F80000
0001F80000
0001F80000
0001F80000
0001F80000
0001F80000
0001F80000
0001F80000
0001F80000
0001F80000
0001F80000
0001F80000
0001F80000
0001F80000
0001F80000
0001F80000
0001F80000
0001F80000
0001F80000
0001F80000
0001F80000
0001F80000
0001F80000
0001F80000
0001F80000
0001F80000
0001F80000
0001F80000
0001F80000
0001F80000
0001F80000
0001F80000
0001F80000
0001F80000
0001F80000
ENDCHAR
STARTCHAR U
ENCODING 85
SWIDTH 602 0
DWIDTH 39 0
BBX 29 48 5 -1
BITMAP
FC0001F8
FC0001F8
FC0001F8
FC0001F8
FC0001F8
FC0001F8
FC0001F8
FC0001F8
FC0001F8
FC0001F8
FC0001F8
FC0001F8
FC0001F8
FC0001F8
FC0001F8
FC0001F8
FC0001F8
FC0001F8
FC0001F8
FC0001F8
FC0001F8
FC0001F8
FC0001F8
FC0001F8
FC0001F8
FC0001F8
FC0001F8
FC0001F8
FC0001F8
FC0001F8
FC0001F8
FC0001F8
FC0001F8
FC0001F8
FC0001F8
FC0001F8
FC0001F8
FC0001F8
7E0003F0
7E0003F0
7F0007F0
3F800FE0
3FE03FE0
1FFFFFC0
0FFFFF80
07FFFF00
01FFFC00
003FE000
ENDCHAR
STARTCHAR V
ENCODING 86
SWIDTH 602 0
DWIDTH 39 0
BBX 35 47 2 0
BITMAP
FC000007E0
FE00000FE0
7E00000FC0
7E00000FC0
7F00001FC0
3F00001F80
3F00001F80
3F00001F80
3F80003F80
1F80003F00
1F80003F00
1FC0007F00
0FC0007E00
0FC0007E00
0FC0007E00
07E000FE00
07E000FC00
07E000FC00
07F001FC00
03F001F800
03F001F800
03F003F800
01F803F000
01F803F000
01F803F000
01FC07F000
00FC07E000
00FC07E000
00FE0FE000
007E0FC000
007E0FC000
007E0FC000
007F1FC000
003F1F8000
003F1F8000
003FBF8000
001FBF0000
001FBF0000
001FBF0000
001FFF0000
000FFE0000
000FFE0000
000FFE0000
0007FC0000
0007FC0000
0007FC0000
0003F80000
ENDCHAR
STARTCHAR W
ENCODING 87
SWIDTH 602 0
DWIDTH 39 0
BBX 39 47 0 0
BITMAP
FC0000007E
FC0000007E
FC0000007E
7E000000FC
7E000000FC
7E000000FC
7E000000FC
7E000000FC
7E000000FC
7E000000FC
3F000001F8
3F000001F8
3F000001F8
3F00FE01F8
3F00FE01F8
3F00FE01F8
3F81FF03F8
1F81FF03F0
1F81FF03F0
1F81EF03F0
1F81EF03F0
1F83EF83F0
1F83EF83F0
0FC3EF87E0
0FC3C787E0
0FC3C787E0
0FC7C7C7E0
0FC7C7C7E0
0FC783C7E0
0FC783C7E0
07EF83EFC0
07EF83EFC0
07EF01EFC0
07EF01EFC0
07EF01EFC0
07FF01FFC0
07FF01FFC0
03FE00FF80
03FE00FF80
03FE00FF80
03FE00FF80
03FC007F80
03FC007F80
01FC007F00
01FC007F00
01F8003F00
01F8003F00
ENDCHAR
STARTCHAR X
ENCODING 88
SWIDTH 602 0
DWIDTH 39 0
BBX 37 47 1 0
BITMAP
3F800007F0
1FC0000FE0
0FE0001FC0
0FE0001FC0
07F0003F80
07F0007F80
03F8007F00
01FC00FE00
01FC00FE00
00FE01FC00
00FE03F800
007F03F800
003F87F000
003F8FF000
001FCFE000
001FDFC000
000FFFC000
0007FF8000
0007FF0000
0003FF0000
0003FE0000
0001FE0000
0001FC0000
0001FE0000
0003FF0000
0007FF0000
0007FF8000
000FFF8000
001FFFC000
001FCFE000
003F8FE000
003F87F000
007F07F000
00FE03F800
00FE01FC00
01FC01FC00
03FC00FE00
03F800FE00
07F0007F00
07F0003F80
0FE0003F80
1FC0001FC0
1FC0001FC0
3F80000FE0
3F800007F0
7F000007F0
FE000003F8
ENDCHAR
STARTCHAR Y
ENCODING 89
SWIDTH 602 0
DWIDTH 39 0
BBX 36 47 1 0
BITMAP
FE000007F0
7F00000FE0
7F00000FE0
3F80001FC0
1FC0003F80
1FC0003F80
0FE0007F00
0FE0007F00
07F000FE00
03F000FE00
03F801FC00
01FC03F800
01FC03F800
00FE07F000
00FE07F000
007F0FE000
003F8FC000
003F9FC000
001FFF8000
001FFF8000
000FFF0000
000FFF0000
0007FE0000
0003FC0000
0003FC0000
0001F80000
0001F80000
0001F80000
0001F80000
0001F80000
0001F80000
0001F80000
0001F80000
0001F80000
0001F80000
0001F80000
0001F80000
0001F80000
0001F80000
0001F80000
0001F80000
0001F80000
0001F80000
0001F80000
0001F80000
0001F80000
0001F80000
ENDCHAR
STARTCHAR Z
ENCODING 90
SWIDTH 602 0
DWIDTH 39 0
BBX 32 47 5 0
BITMAP
7FFFFFFE
7FFFFFFE
7FFFFFFE
7FFFFFFE
7FFFFFFE
000001FE
000001FC
000003F8
000003F8
000007F0
00000FE0
00000FE0
00001FC0
00003F80
00003F80
00007F00
0000FF00
0000FE00
0001FC00
0003FC00
0003F800
0007F000
0007F000
000FE000
001FC000
001FC000
003F8000
007F8000
007F0000
00FE0000
01FE0000
01FC0000
03F80000
03F80000
07F00000
0FE00000
0FE00000
1FC00000
3F800000
3F800000
7F000000
FF000000
FFFFFFFF
FFFFFFFF
FFFFFFFF
FFFFFFFF
FFFFFFFF
ENDCHAR
STARTCHAR bracketleft
ENCODING 91
SWIDTH 602 0
DWIDTH 39 0
BBX 14 57 14 -8
BITMAP
FFFC
FFFC
FFFC
FFFC
FFFC
FC00
FC00
FC00
FC00
FC00
FC00
FC00
FC00
FC00
FC00
FC00
FC00
FC00
FC00
FC00
FC00
FC00
FC00
FC00
FC00
FC00
FC00
FC00
FC00
FC00
FC00
FC00
FC00
FC00
FC00
FC00
FC00
FC00
FC00
FC00
FC00
FC00
FC00
FC00
FC00
FC00
FC00
FC00
FC00
FC00
FC00
FC00
FFFC
FFFC
FFFC
FFFC
FFFC
ENDCHAR
STARTCHAR backslash
ENCODING 92
SWIDTH 602 0
DWIDTH 39 0
BBX 31 53 3 -6
BITMAP
FC000000
7E000000
7E000000
3F000000
3F000000
1F800000
1F800000
0FC00000
0FC00000
0FC00000
07E00000
07E00000
03F00000
03F00000
01F80000
01F80000
00FC0000
00FC0000
007E0000
007E0000
003F0000
003F0000
001F8000
001F8000
000FC000
000FC000
000FE000
0007E000
0007E000
0003F000
0003F000
0001F800
0001F800
0000FC00
0000FC00
00007E00
00007E00
00003F00
00003F00
00001F80
00001F80
00000FC0
00000FC0
000007E0
000007E0
000007E0
000003F0
000003F0
000001F8
000001F8
000000FC
000000FC
0000007E
ENDCHAR
STARTCHAR bracketright
ENCODING 93
SWIDTH 602 0
DWIDTH 39 0
BBX 14 57 10 -8
BITMAP
FFFC
FFFC
FFFC
FFFC
FFFC
00FC
00FC
00FC
00FC
00FC
00FC
00FC
00FC
00FC
00FC
00FC
00FC
00FC
00FC
00FC
00FC
00FC
00FC
00FC
00FC
00FC
00FC
00FC
00FC
00FC
00FC
00FC
00FC
00FC
00FC
00FC
00FC
00FC
00FC
00FC
00FC
00FC
00FC
00FC
00FC
00FC
00FC
00FC
00FC
00FC
00FC
00FC
FFFC
FFFC
FFFC
FFFC
FFFC
ENDCHAR
STARTCHAR asciicircum
ENCODING 94
SWIDTH 602 0
DWIDTH 39 0
BBX 34 17 2 30
BITMAP
0003F00000
0007F80000
000FFC0000
001FFE0000
003FFF0000
003F3F0000
007F3F8000
00FE1FC000
01FC0FE000
03F807F000
07F003F800
07E001F800
0FC000FC00
1F80007E00
3F00003F00
7E00001F80
FC00000FC0
ENDCHAR
STARTCHAR underscore
ENCODING 95
SWIDTH 602 0
DWIDTH 39 0
BBX 32 5 0 -15
BITMAP
FFFFFFFF
FFFFFFFF
FFFFFFFF
FFFFFFFF
FFFFFFFF
ENDCHAR
STARTCHAR grave
ENCODING 96
SWIDTH 602 0
DWIDTH 39 0
BBX 15 12 9 39
BITMAP
FE00
7E00
3F00
1F80
0F80
07C0
03E0
03F0
01F0
00F8
007C
003E
ENDCHAR
STARTCHAR a
ENCODING 97
SWIDTH 602 0
DWIDTH 39 0
BBX 29 37 4 -1
BITMAP
007FE000
07FFFC00
1FFFFF00
1FFFFF80
1FFFFFC0
1FC03FE0
1C000FF0
100007F0
000003F0
000003F8
000001F8
000001F8
000001F8
000001F8
003FFFF8
01FFFFF8
07FFFFF8
1FFFFFF8
3FFFFFF8
3FE001F8
7F8001F8
7F0001F8
FE0001F8
FC0001F8
FC0003F8
FC0003F8
FC0003F8
FC0007F8
FE0007F8
FE000FF8
7F003FF8
7FC0FFF8
3FFFFDF8
1FFFF9F8
0FFFF1F8
07FFC1F8
00FF0000
ENDCHAR
STARTCHAR b
ENCODING 98
SWIDTH 602 0
DWIDTH 39 0
BBX 30 50 6 -1
BITMAP
FC000000
FC000000
FC000000
FC000000
FC000000
FC000000
FC000000
FC000000
FC000000
FC000000
FC000000
FC000000
FC000000
FC0FF000
FC3FFC00
FCFFFF00
FDFFFF80
FDFFFFC0
FFF03FE0
FFC00FE0
FF8007F0
FF0003F0
FF0003F8
FE0001F8
FE0001F8
FE0001F8
FC0000FC
FC0000FC
FC0000FC
FC0000FC
FC0000FC
FC0000FC
FC0000FC
FC0000FC
FC0000FC
FC0000FC
FC0000FC
FE0001F8
FE0001F8
FE0001F8
FF0003F8
FF0003F0
FF8007F0
FFC00FE0
FFF03FE0
FDFFFFC0
FDFFFF80
FCFFFF00
FC3FFC00
000FF000
ENDCHAR
STARTCHAR c
ENCODING 99
SWIDTH 602 0
DWIDTH 39 0
BBX 27 37 6 -1
BITMAP
000FF800
007FFF00
01FFFFC0
03FFFFE0
07FFFFE0
0FFC07E0
1FE000E0
1FC00060
3F800020
3F000000
7F000000
7E000000
7E000000
FE000000
FC000000
FC000000
FC000000
FC000000
FC000000
FC000000
FC000000
FC000000
FC000000
FE000000
7E000000
7E000000
7F000000
3F000000
3F800020
1FC00060
1FE000E0
0FFC07E0
07FFFFE0
03FFFFE0
01FFFFC0
007FFF00
000FF800
ENDCHAR
STARTCHAR d
ENCODING 100
SWIDTH 602 0
DWIDTH 39 0
BBX 30 50 4 -1
BITMAP
000000FC
000000FC
000000FC
000000FC
000000FC
000000FC
000000FC
000000FC
000000FC
000000FC
000000FC
000000FC
000000FC
003FC0FC
00FFF0FC
03FFFCFC
07FFFEFC
0FFFFEFC
1FF03FFC
1FC00FFC
3F8007FC
3F0003FC
7F0003FC
7E0001FC
7E0001FC
7E0001FC
FC0000FC
FC0000FC
FC0000FC
FC0000FC
FC0000FC
FC0000FC
FC0000FC
FC0000FC
FC0000FC
FC0000FC
FC0000FC
7E0001FC
7E0001FC
7E0001FC
7F0003FC
3F0003FC
3F8007FC
1FC00FFC
1FF03FFC
0FFFFEFC
07FFFEFC
03FFFCFC
00FFF0FC
003FC000
ENDCHAR
STARTCHAR e
ENCODING 101
SWIDTH 602 0
DWIDTH 39 0
BBX 31 37 4 -1
BITMAP
000FF800
007FFE00
01FFFF80
03FFFFC0
07FFFFE0
0FF81FF0
1FE007F8
1F8001F8
3F0001FC
3F0000FC
7E0000FC
7E00007C
7C00007E
FC00007E
FC00007E
FFFFFFFE
FFFFFFFE
FFFFFFFE
FFFFFFFE
FFFFFFFE
FC000000
FC000000
FC000000
FC000000
7C000000
7E000000
7E000000
3F000000
3F000004
1F80001C
1FE0007C
0FF803FC
07FFFFFC
03FFFFFC
00FFFFF8
007FFFC0
0007FE00
ENDCHAR
STARTCHAR f
ENCODING 102
SWIDTH 602 0
DWIDTH 39 0
BBX 27 49 6 0
BITMAP
0000FFE0
0007FFE0
000FFFE0
001FFFE0
003FFFE0
003F8000
003F0000
007E0000
007E0000
007E0000
007E0000
007E0000
007E0000
007E0000
FFFFFFE0
FFFFFFE0
FFFFFFE0
FFFFFFE0
FFFFFFE0
007E0000
007E0000
007E0000
007E0000
007E0000
007E0000
007E0000
007E0000
007E0000
007E0000
007E0000
007E0000
007E0000
007E0000
007E0000
007E0000
007E0000
007E0000
007E0000
007E0000
007E0000
007E0000
007E0000
007E0000
007E0000
007E0000
007E0000
007E0000
007E0000
007E0000
ENDCHAR
STARTCHAR g
ENCODING 103
SWIDTH 602 0
DWIDTH 39 0
BBX 30 49 4 -13
BITMAP
003FC000
00FFF0FC
03FFFCFC
07FFFEFC
0FFFFEFC
1FF03FFC
1FC00FFC
3F8007FC
3F0003FC
7F0003FC
7E0001FC
7E0001FC
FE0001FC
FC0000FC
FC0000FC
FC0000FC
FC0000FC
FC0000FC
FC0000FC
FC0000FC
FC0000FC
FC0000FC
FC0000FC
FE0001FC
7E0001FC
7E0001FC
7F0003FC
3F0003FC
3F8007FC
1FC00FFC
1FF03FFC
0FFFFEFC
07FFFCFC
03FFF8FC
00FFF0FC
003FC0FC
000000FC
000000FC
000001F8
000001F8
000001F8
080003F0
0F0007F0
0FE01FE0
0FFFFFE0
0FFFFFC0
0FFFFF00
07FFFE00
007FE000
ENDCHAR
STARTCHAR h
ENCODING 104
SWIDTH 602 0
DWIDTH 39 0
BBX 27 49 6 0
BITMAP
FC000000
FC000000
FC000000
FC000000
FC000000
FC000000
FC000000
FC000000
FC000000
FC000000
FC000000
FC000000
FC000000
FC07F000
FC3FFC00
FC7FFE00
FCFFFF00
FDFFFF80
FFE07FC0
FFC01FC0
FF000FC0
FF000FC0
FE000FE0
FE0007E0
FE0007E0
FC0007E0
FC0007E0
FC0007E0
FC0007E0
FC0007E0
FC0007E0
FC0007E0
FC0007E0
FC0007E0
FC0007E0
FC0007E0
FC0007E0
FC0007E0
FC0007E0
FC0007E0
FC0007E0
FC0007E0
FC0007E0
FC0007E0
FC0007E0
FC0007E0
FC0007E0
FC0007E0
FC0007E0
ENDCHAR
STARTCHAR i
ENCODING 105
SWIDTH 602 0
DWIDTH 39 0
BBX 28 49 6 0
BITMAP
001F8000
001F8000
001F8000
001F8000
001F8000
001F8000
001F8000
00000000
00000000
00000000
00000000
00000000
00000000
00000000
3FFF8000
3FFF8000
3FFF8000
3FFF8000
3FFF8000
001F8000
001F8000
001F8000
001F8000
001F8000
001F8000
001F8000
001F8000
001F8000
001F8000
001F8000
001F8000
001F8000
001F8000
001F8000
001F8000
001F8000
001F8000
001F8000
001F8000
001F8000
001F8000
001F8000
001F8000
001F8000
FFFFFFF0
FFFFFFF0
FFFFFFF0
FFFFFFF0
FFFFFFF0
ENDCHAR
STARTCHAR j
ENCODING 106
SWIDTH 602 0
DWIDTH 39 0
BBX 19 62 6 -13
BITMAP
0007E0
0007E0
0007E0
0007E0
0007E0
0007E0
0007E0
000000
000000
000000
000000
000000
000000
000000
1FFFE0
1FFFE0
1FFFE0
1FFFE0
1FFFE0
0007E0
0007E0
0007E0
0007E0
0007E0
0007E0
0007E0
0007E0
0007E0
0007E0
0007E0
0007E0
0007E0
0007E0
0007E0
0007E0
0007E0
0007E0
0007E0
0007E0
0007E0
0007E0
0007E0
0007E0
0007E0
0007E0
0007E0
0007E0
0007E0
0007E0
0007E0
0007E0
0007E0
0007E0
000FE0
000FC0
001FC0
003FC0
FFFF80
FFFF00
FFFE00
FFFC00
FFF000
ENDCHAR
STARTCHAR k
ENCODING 107
SWIDTH 602 0
DWIDTH 39 0
BBX 30 49 7 0
BITMAP
FC000000
FC000000
FC000000
FC000000
FC000000
FC000000
FC000000
FC000000
FC000000
FC000000
FC000000
FC000000
FC000000
FC000000
FC000FF8
FC001FF0
FC003FE0
FC007FC0
FC00FF80
FC01FF00
FC03FE00
FC07FC00
FC0FF800
FC1FF000
FC3FE000
FC7FC000
FCFF8000
FDFF0000
FFFE0000
FFFF0000
FFFF8000
FFFF8000
FFFFC000
FFDFE000
FF0FF000
FE07F000
FC03F800
FC03FC00
FC01FC00
FC00FE00
FC00FF00
FC007F80
FC003F80
FC001FC0
FC001FE0
FC000FE0
FC0007F0
FC0003F8
FC0003FC
ENDCHAR
STARTCHAR l
ENCODING 108
SWIDTH 602 0
DWIDTH 39 0
BBX 29 49 3 0
BITMAP
FFFF8000
FFFF8000
FFFF8000
FFFF8000
FFFF8000
001F8000
001F8000
001F8000
001F8000
001F8000
001F8000
001F8000
001F8000
001F8000
001F8000
001F8000
001F8000
001F8000
001F8000
001F8000
001F8000
001F8000
001F8000
001F8000
001F8000
001F8000
001F8000
001F8000
001F8000
001F8000
001F8000
001F8000
001F8000
001F8000
001F8000
001F8000
001F8000
001F8000
001F8000
001F8000
001FC000
000FC000
000FE000
000FF000
0007FFF8
0003FFF8
0001FFF8
0000FFF8
00003FF8
ENDCHAR
STARTCHAR m
ENCODING 109
SWIDTH 602 0
DWIDTH 39 0
BBX 31 36 3 0
BITMAP
00FC07C0
F9FE1FF0
FBFF3FF8
FFFFBFF8
FFFFFFFC
FE1FF0FC
FC0FE07C
FC0FE07C
F807C03E
F807C03E
F807C03E
F807C03E
F807C03E
F807C03E
F807C03E
F807C03E
F807C03E
F807C03E
F807C03E
F807C03E
F807C03E
F807C03E
F807C03E
F807C03E
F807C03E
F807C03E
F807C03E
F807C03E
F807C03E
F807C03E
F807C03E
F807C03E
F807C03E
F807C03E
F807C03E
F807C03E
ENDCHAR
STARTCHAR n
ENCODING 110
SWIDTH 602 0
DWIDTH 39 0
BBX 27 36 6 0
BITMAP
0007F000
FC3FFC00
FC7FFE00
FCFFFF00
FDFFFF80
FFE07FC0
FFC01FC0
FF000FC0
FF000FC0
FE000FE0
FE0007E0
FE0007E0
FC0007E0
FC0007E0
FC0007E0
FC0007E0
FC0007E0
FC0007E0
FC0007E0
FC0007E0
FC0007E0
FC0007E0
FC0007E0
FC0007E0
FC0007E0
FC0007E0
FC0007E0
FC0007E0
FC0007E0
FC0007E0
FC0007E0
FC0007E0
FC0007E0
FC0007E0
FC0007E0
FC0007E0
ENDCHAR
STARTCHAR o
ENCODING 111
SWIDTH 602 0
DWIDTH 39 0
BBX 30 37 4 -1
BITMAP
001FE000
00FFFC00
03FFFF00
07FFFF80
0FFFFFC0
1FF03FE0
1FC00FE0
3F8007F0
3F0003F0
7F0003F8
7E0001F8
7E0001F8
FE0001F8
FC0000FC
FC0000FC
FC0000FC
FC0000FC
FC0000FC
FC0000FC
FC0000FC
FC0000FC
FC0000FC
FC0000FC
FC0000FC
FE0001F8
7E0001F8
7E0001F8
7F0003F8
3F0003F0
3F8007F0
1FC00FE0
1FF03FE0
0FFFFFC0
07FFFF80
03FFFF00
00FFFC00
003FE000
ENDCHAR
STARTCHAR p
ENCODING 112
SWIDTH 602 0
DWIDTH 39 0
BBX 30 49 6 -13
BITMAP
000FF000
FC3FFC00
FCFFFF00
FDFFFF80
FDFFFFC0
FFF03FE0
FFC00FE0
FF8007F0
FF0003F0
FF0003F8
FE0001F8
FE0001F8
FE0001F8
FC0000FC
FC0000FC
FC0000FC
FC0000FC
FC0000FC
FC0000FC
FC0000FC
FC0000FC
FC0000FC
FC0000FC
FC0000FC
FE0001F8
FE0001F8
FE0001F8
FF0003F8
FF0003F0
FF8007F0
FFC00FE0
FFF03FE0
FDFFFFC0
FDFFFF80
FCFFFF00
FC3FFC00
FC0FF000
FC000000
FC000000
FC000000
FC000000
FC000000
FC000000
FC000000
FC000000
FC000000
FC000000
FC000000
FC000000
ENDCHAR
STARTCHAR q
ENCODING 113
SWIDTH 602 0
DWIDTH 39 0
BBX 30 49 4 -13
BITMAP
003FC000
00FFF0FC
03FFFCFC
07FFFEFC
0FFFFEFC
1FF03FFC
1FC00FFC
3F8007FC
3F0003FC
7F0003FC
7E0001FC
7E0001FC
7E0001FC
FC0000FC
FC0000FC
FC0000FC
FC0000FC
FC0000FC
FC0000FC
FC0000FC
FC0000FC
FC0000FC
FC0000FC
FC0000FC
7E0001FC
7E0001FC
7E0001FC
7F0003FC
3F0003FC
3F8007FC
1FC00FFC
1FF03FFC
0FFFFEFC
07FFFEFC
03FFFCFC
00FFF0FC
003FC0FC
000000FC
000000FC
000000FC
000000FC
000000FC
000000FC
000000FC
000000FC
000000FC
000000FC
000000FC
000000FC
ENDCHAR
STARTCHAR r
ENCODING 114
SWIDTH 602 0
DWIDTH 39 0
BBX 25 36 11 0
BITMAP
0003FC00
FC1FFF00
FC3FFF80
FC7FFF80
FCFFFF80
FDF80780
FFE00180
FFC00080
FF800000
FF000000
FF000000
FE000000
FE000000
FE000000
FC000000
FC000000
FC000000
FC000000
FC000000
FC000000
FC000000
FC000000
FC000000
FC000000
FC000000
FC000000
FC000000
FC000000
FC000000
FC000000
FC000000
FC000000
FC000000
FC000000
FC000000
FC000000
ENDCHAR
STARTCHAR s
ENCODING 115
SWIDTH 602 0
DWIDTH 39 0
BBX 25 37 7 -1
BITMAP
00FFC000
07FFFC00
0FFFFE00
1FFFFE00
3FFFFE00
7FC07E00
7F000E00
FE000200
FC000000
FC000000
FC000000
FC000000
FE000000
FF000000
7FE00000
7FFE0000
3FFFE000
1FFFF800
0FFFFC00
03FFFE00
003FFF00
0003FF00
0000FF80
00003F80
00001F80
00001F80
00001F80
00001F80
00001F80
80003F80
F0007F00
FE01FF00
FFFFFE00
FFFFFC00
FFFFF800
3FFFE000
03FF0000
ENDCHAR
STARTCHAR t
ENCODING 116
SWIDTH 602 0
DWIDTH 39 0
BBX 28 45 4 0
BITMAP
007E0000
007E0000
007E0000
007E0000
007E0000
007E0000
007E0000
007E0000
007E0000
007E0000
FFFFFFF0
FFFFFFF0
FFFFFFF0
FFFFFFF0
FFFFFFF0
007E0000
007E0000
007E0000
007E0000
007E0000
007E0000
007E0000
007E0000
007E0000
007E0000
007E0000
007E0000
007E0000
007E0000
007E0000
007E0000
007E0000
007E0000
007E0000
007E0000
007E0000
007E0000
007F0000
003F0000
003FC000
003FFFF0
001FFFF0
000FFFF0
0007FFF0
0000FFF0
ENDCHAR
STARTCHAR u
ENCODING 117
SWIDTH 602 0
DWIDTH 39 0
BBX 27 36 6 -1
BITMAP
FC0007E0
FC0007E0
FC0007E0
FC0007E0
FC0007E0
FC0007E0
FC0007E0
FC0007E0
FC0007E0
FC0007E0
FC0007E0
FC0007E0
FC0007E0
FC0007E0
FC0007E0
FC0007E0
FC0007E0
FC0007E0
FC0007E0
FC0007E0
FC0007E0
FC0007E0
FC0007E0
FC0007E0
FC000FE0
FC000FE0
FE000FE0
7E001FE0
7E001FE0
7F003FE0
7FC0FFE0
3FFFF7E0
1FFFE7E0
1FFFC7E0
07FF87E0
01FC0000
ENDCHAR
STARTCHAR v
ENCODING 118
SWIDTH 602 0
DWIDTH 39 0
BBX 32 35 3 0
BITMAP
FE00007F
7E00007E
7E00007E
7F0000FE
3F0000FC
3F0000FC
3F8001FC
1F8001F8
1F8001F8
1FC003F8
0FC003F0
0FC003F0
0FE007F0
07E007E0
07E007E0
07F00FE0
03F00FC0
03F81FC0
01F81FC0
01F81F80
01FC3F80
00FC3F00
00FC3F00
00FE7F00
007E7E00
007E7E00
007FFE00
003FFC00
003FFC00
003FFC00
001FF800
001FF800
001FF800
000FF000
000FF000
ENDCHAR
STARTCHAR w
ENCODING 119
SWIDTH 602 0
DWIDTH 39 0
BBX 39 35 0 0
BITMAP
FC0000007E
FE000000FE
7E000000FC
7E000000FC
7E000000FC
7E000000FC
3F000001F8
3F000001F8
3F000001F8
3F000001F8
3F807C03F8
1F807C03F0
1F80FE03F0
1F80FE03F0
1FC0FE07F0
0FC1FF07E0
0FC1EF07E0
0FC1EF07E0
0FE1EF0FE0
07E3C78FC0
07E3C78FC0
07E3C78FC0
07E3839FC0
03F783DF80
03F783DF80
03F783DF80
03FF01FF80
03FF01FF80
01FF01FF00
01FE00FF00
01FE00FF00
01FE00FF00
00FE00FE00
00FC007E00
00FC007E00
ENDCHAR
STARTCHAR x
ENCODING 120
SWIDTH 602 0
DWIDTH 39 0
BBX 34 35 2 0
BITMAP
7F80007F80
3FC000FF00
1FC000FE00
0FE001FC00
0FF003FC00
07F807F800
03FC0FF000
01FC0FE000
01FE1FE000
00FF3FC000
007FFF8000
003FFF0000
001FFE0000
001FFE0000
000FFC0000
0007F80000
0003F00000
0007F80000
000FFC0000
000FFC0000
001FFE0000
003FFF0000
007FFF8000
007F3F8000
00FE1FC000
01FE1FE000
03FC0FF000
03F807F000
07F003F800
0FF003FC00
1FE001FE00
1FC000FE00
3F80007F00
7F80007F80
FF00003FC0
ENDCHAR
STARTCHAR y
ENCODING 121
SWIDTH 602 0
DWIDTH 39 0
BBX 33 48 3 -13
BITMAP
FE00003F80
7E00003F00
7F00003F00
7F00007F00
3F00007E00
3F8000FE00
1F8000FC00
1FC000FC00
1FC001FC00
0FC001F800
0FE003F800
07E003F800
07F003F000
03F007F000
03F007E000
03F807E000
01F80FE000
01FC0FC000
00FC1FC000
00FC1F8000
00FE1F8000
007E3F8000
007F3F0000
003F7F0000
003F7E0000
003FFE0000
001FFE0000
001FFC0000
000FFC0000
000FFC0000
000FF80000
0007F80000
0007F00000
0003F00000
0007F00000
0007E00000
000FE00000
000FE00000
000FC00000
001FC00000
001F800000
003F800000
00FF000000
1FFF000000
1FFE000000
1FFC000000
1FF8000000
1FE0000000
ENDCHAR
STARTCHAR z
ENCODING 122
SWIDTH 602 0
DWIDTH 39 0
BBX 26 35 6 0
BITMAP
7FFFFFC0
7FFFFFC0
7FFFFFC0
7FFFFFC0
7FFFFFC0
00003FC0
00007F80
00007F00
0000FF00
0001FE00
0003FC00
0003F800
0007F800
000FF000
001FE000
001FC000
003F8000
007F8000
00FF0000
00FE0000
01FC0000
03FC0000
07F80000
07F00000
0FE00000
1FE00000
3FC00000
3F800000
7F000000
FF000000
FFFFFFC0
FFFFFFC0
FFFFFFC0
FFFFFFC0
FFFFFFC0
ENDCHAR
STARTCHAR braceleft
ENCODING 123
SWIDTH 602 0
DWIDTH 39 0
BBX 25 59 7 -10
BITMAP
00007F80
0003FF80
000FFF80
000FFF80
001FFF80
001FE000
003F8000
003F8000
003F0000
003F0000
003F0000
003F0000
003F0000
003F0000
003F0000
003F0000
003F0000
003F0000
003F0000
003F0000
003F0000
003F0000
003F0000
007F0000
007E0000
00FE0000
03FE0000
FFFC0000
FFF00000
FFC00000
FFF00000
FFFC0000
03FC0000
00FE0000
007E0000
007F0000
003F0000
003F0000
003F0000
003F0000
003F0000
003F0000
003F0000
003F0000
003F0000
003F0000
003F0000
003F0000
003F0000
003F0000
003F0000
003F8000
003F8000
001FE000
001FFF80
000FFF80
000FFF80
0003FF80
00007F80
ENDCHAR
STARTCHAR bar
ENCODING 124
SWIDTH 602 0
DWIDTH 39 0
BBX 5 64 17 -15
BITMAP
F8
F8
F8
F8
F8
F8
F8
F8
F8
F8
F8
F8
F8
F8
F8
F8
F8
F8
F8
F8
F8
F8
F8
F8
F8
F8
F8
F8
F8
F8
F8
F8
F8
F8
F8
F8
F8
F8
F8
F8
F8
F8
F8
F8
F8
F8
F8
F8
F8
F8
F8
F8
F8
F8
F8
F8
F8
F8
F8
F8
F8
F8
F8
F8
ENDCHAR
STARTCHAR braceright
ENCODING 125
SWIDTH 602 0
DWIDTH 39 0
BBX 25 59 7 -10
BITMAP
FF000000
FFE00000
FFF80000
FFF80000
FFFC0000
03FC0000
00FC0000
00FE0000
007E0000
007E0000
007E0000
007E0000
007E0000
007E0000
007E0000
007E0000
007E0000
007E0000
007E0000
007E0000
007E0000
007E0000
007E0000
007F0000
003F0000
003F8000
003FE000
001FFF80
0007FF80
0001FF80
0007FF80
001FFF80
001FE000
003F8000
003F0000
007F0000
007E0000
007E0000
007E0000
007E0000
007E0000
007E0000
007E0000
007E0000
007E0000
007E0000
007E0000
007E0000
007E0000
007E0000
007E0000
00FE0000
00FC0000
03FC0000
FFFC0000
FFF80000
FFF80000
FFE00000
FF000000
ENDCHAR
STARTCHAR asciitilde
ENCODING 126
SWIDTH 602 0
DWIDTH 39 0
BBX 33 9 3 15
BITMAP
03F8000080
1FFF000180
3FFFC00380
FFFFF81F80
FFFFFFFF80
FC07FFFF80
E001FFFE00
C0003FFC00
80000FE000
ENDCHAR
STARTCHAR nonbreakingspace
ENCODING 160
SWIDTH 602 0
DWIDTH 39 0
BBX 1 1 0 0
BITMAP
00
ENDCHAR
STARTCHAR exclamdown
ENCODING 161
SWIDTH 602 0
DWIDTH 39 0
BBX 6 47 16 0
BITMAP
FC
FC
FC
FC
FC
FC
FC
FC
00
00
00
00
00
00
00
78
78
FC
FC
FC
FC
FC
FC
FC
FC
FC
FC
FC
FC
FC
FC
FC
FC
FC
FC
FC
FC
FC
FC
FC
FC
FC
FC
FC
FC
FC
FC
ENDCHAR
STARTCHAR cent
ENCODING 162
SWIDTH 602 0
DWIDTH 39 0
BBX 27 55 7 -10
BITMAP
0000E000
0000E000
0000E000
0000E000
0000E000
0000E000
0000E000
0000E000
0000E000
0007FC00
003FFF00
00FFFFC0
01FFFFE0
07FFFFE0
0FFCE3E0
0FE0E0E0
1FC0E020
3F80E000
3F00E000
7F00E000
7E00E000
7E00E000
FE00E000
FC00E000
FC00E000
FC00E000
FC00E000
FC00E000
FC00E000
FC00E000
FC00E000
FC00E000
FE00E000
7E00E000
7E00E000
7F00E000
3F80E000
3F80E000
1FC0E020
0FF0E0E0
0FFCE3E0
07FFFFE0
03FFFFE0
00FFFFC0
003FFF00
0007FC00
0000E000
0000E000
0000E000
0000E000
0000E000
0000E000
0000E000
0000E000
0000E000
ENDCHAR
STARTCHAR sterling
ENCODING 163
SWIDTH 602 0
DWIDTH 39 0
BBX 30 48 5 0
BITMAP
0000FF80
0003FFF0
000FFFF8
001FFFF8
003FFFF8
007FC0F8
007F0018
00FE0008
00FE0000
00FC0000
01FC0000
01FC0000
01F80000
01F80000
01F80000
01F80000
01F80000
01F80000
01F80000
01F80000
01F80000
01F80000
01F80000
01F80000
7FFFFF80
7FFFFF80
7FFFFF80
7FFFFF80
7FFFFF80
01F80000
01F80000
01F80000
01F80000
01F80000
01F80000
01F80000
01F80000
01F80000
01F80000
01F80000
01F80000
01F80000
01F80000
FFFFFFFC
FFFFFFFC
FFFFFFFC
FFFFFFFC
FFFFFFFC
ENDCHAR
STARTCHAR currency
ENCODING 164
SWIDTH 602 0
DWIDTH 39 0
BBX 27 27 7 7
BITMAP
20000080
700001C0
F80003E0
7C3F07C0
3EFFEF80
1FFFFF00
0FFFFE00
07E0FC00
0F803E00
0F001E00
1F001E00
1E000F00
1E000F00
1E000F00
1E000F00
1E000F00
0F001E00
0F001E00
0F803C00
07E0FC00
0FFFFE00
1FFFFF00
3EFFCF80
7C3F07C0
F80003E0
700001C0
20000080
ENDCHAR
STARTCHAR yen
ENCODING 165
SWIDTH 602 0
DWIDTH 39 0
BBX 36 47 1 0
BITMAP
FE000007F0
7F00000FE0
7F00000FE0
3F80001FC0
1FC0003F80
1FC0003F80
0FE0007F00
0FE0007F00
07F000FE00
03F000FC00
03F801FC00
01FC03F800
01FC03F800
00FE07F000
00FE07E000
007F0FE000
003F9FC000
3FFF9FFFC0
3FFFFFFFC0
3FFFFFFFC0
3FFFFFFFC0
000FFF0000
0007FE0000
0003FC0000
0003FC0000
0001F80000
0001F80000
3FFFFFFFC0
3FFFFFFFC0
3FFFFFFFC0
3FFFFFFFC0
0001F80000
0001F80000
0001F80000
0001F80000
0001F80000
0001F80000
0001F80000
0001F80000
0001F80000
0001F80000
0001F80000
0001F80000
0001F80000
0001F80000
0001F80000
0001F80000
ENDCHAR
STARTCHAR brokenbar
ENCODING 166
SWIDTH 602 0
DWIDTH 39 0
BBX 5 56 17 -11
BITMAP
F8
F8
F8
F8
F8
F8
F8
F8
F8
F8
F8
F8
F8
F8
F8
F8
F8
F8
F8
F8
F8
F8
F8
F8
00
00
00
00
00
00
00
00
F8
F8
F8
F8
F8
F8
F8
F8
F8
F8
F8
F8
F8
F8
F8
F8
F8
F8
F8
F8
F8
F8
F8
F8
ENDCHAR
STARTCHAR section
ENCODING 167
SWIDTH 602 0
DWIDTH 39 0
BBX 26 54 6 -6
BITMAP
007FC000
01FFFC00
07FFFE00
0FFFFE00
1FFFFE00
1FE03E00
3F800200
3F800000
3F000000
3F000000
3F000000
3F800000
1FC00000
1FE00000
0FF00000
07FC0000
07FE0000
0FFF8000
1FFFE000
3F1FF000
7E07FC00
7C03FE00
F800FF00
F8007F80
F8001F80
F8000FC0
FC000FC0
FC0007C0
7E0007C0
7F0007C0
3FC007C0
1FE00F80
0FF80F80
07FC1F00
01FF3F00
00FFFE00
003FF800
000FF800
0007FC00
0001FC00
0000FE00
00007F00
00003F00
00003F00
00003F00
00003F00
00007F00
10007F00
1F01FE00
1FFFFE00
1FFFFC00
1FFFF800
0FFFE000
00FF8000
ENDCHAR
STARTCHAR dieresis
ENCODING 168
SWIDTH 602 0
DWIDTH 39 0
BBX 18 6 10 43
BITMAP
FC0FC0
FC0FC0
FC0FC0
FC0FC0
FC0FC0
FC0FC0
ENDCHAR
STARTCHAR copyright
ENCODING 169
SWIDTH 602 0
DWIDTH 39 0
BBX 39 39 0 3
BITMAP
0001FF0000
000FFFE000
003FFFF800
00FE00FE00
01F8001F00
03E0000F80
07800003C0
0F007FC1E0
1E03FFF0F0
1C0FFFF070
3C1F803078
383E000038
783C00003C
707C00001C
707800001C
E0F800000E
E0F000000E
E0F000000E
E0F000000E
E0F000000E
E0F000000E
E0F000000E
E0F000000E
E0F800000E
707800001C
707800001C
783C00003C
383E000038
3C1FC03078
1C0FFFF070
1E03FFF0F0
0F00FFC1E0
07800003C0
03E0000F80
01F8003F00
00FE00FE00
003FFFF800
000FFFE000
0001FF0000
ENDCHAR
STARTCHAR ordfeminine
ENCODING 170
SWIDTH 602 0
DWIDTH 39 0
BBX 21 33 8 15
BITMAP
0FFC00
3FFF80
3FFFC0
3C0FE0
2003F0
0001F0
0001F0
0000F8
0000F8
0000F8
01FFF8
0FFFF8
3FFFF8
7F00F8
7C00F8
FC00F8
F800F8
F800F8
F801F8
F801F8
F803F8
7C07F8
7E0FF8
3FFEF8
1FFCF8
07F000
000000
000000
000000
7FFFF8
7FFFF8
7FFFF8
7FFFF8
ENDCHAR
STARTCHAR guillemotleft
ENCODING 171
SWIDTH 602 0
DWIDTH 39 0
BBX 30 29 4 4
BITMAP
00020004
0006000C
000E001C
001E003C
003E007C
007E00FC
00FC01F8
03F807F0
07F00FE0
0FE01FC0
1FC03F80
3F807F00
7F00FC00
FE01F800
FC01F000
FE01F800
7F00FC00
3F807F00
1FC03F80
0FE01FC0
07F00FE0
03F807F0
00FC01F8
007E00FC
003E007C
001E003C
000E001C
0006000C
00020004
ENDCHAR
STARTCHAR logicalnot
ENCODING 172
SWIDTH 602 0
DWIDTH 39 0
BBX 33 15 3 12
BITMAP
FFFFFFFF80
FFFFFFFF80
FFFFFFFF80
FFFFFFFF80
FFFFFFFF80
0000000F80
0000000F80
0000000F80
0000000F80
0000000F80
0000000F80
0000000F80
0000000F80
0000000F80
0000000F80
ENDCHAR
STARTCHAR sfthyphen
ENCODING 173
SWIDTH 602 0
DWIDTH 39 0
BBX 16 5 11 15
BITMAP
FFFF
FFFF
FFFF
FFFF
FFFF
ENDCHAR
STARTCHAR registered
ENCODING 174
SWIDTH 602 0
DWIDTH 39 0
BBX 39 39 0 3
BITMAP
0001FF0000
000FFFE000
003FFFF800
00FE00FE00
01F8001F00
03E0000F80
07800003C0
0F000001E0
1E1FFF00F0
1C1FFFE070
3C1FFFF078
381E01F038
781E00783C
701E00781C
701E00781C
E01E00780E
E01E01F00E
E01FFFF00E
E01FFFC00E
E01FFF000E
E01E0F800E
E01E07C00E
E01E03E00E
E01E01E00E
701E01F01C
701E00F01C
781E00F83C
381E007C38
3C1E003C78
1C1E003E70
1E000000F0
0F000001E0
07800003C0
03E0000F80
01F8003F00
00FE00FE00
003FFFF800
000FFFE000
0001FF0000
ENDCHAR
STARTCHAR macron
ENCODING 175
SWIDTH 602 0
DWIDTH 39 0
BBX 19 5 10 43
BITMAP
FFFFE0
FFFFE0
FFFFE0
FFFFE0
FFFFE0
ENDCHAR
STARTCHAR degree
ENCODING 176
SWIDTH 602 0
DWIDTH 39 0
BBX 20 20 9 28
BITMAP
01F800
07FE00
1FFF80
3FFFC0
3F0FC0
7C03E0
7801E0
F801F0
F000F0
F000F0
F000F0
F000F0
F001F0
7801E0
7C03E0
7E0FC0
3FFFC0
1FFF80
0FFE00
01F800
ENDCHAR
STARTCHAR plusminus
ENCODING 177
SWIDTH 602 0
DWIDTH 39 0
BBX 33 36 3 0
BITMAP
0003E00000
0003E00000
0003E00000
0003E00000
0003E00000
0003E00000
0003E00000
0003E00000
0003E00000
0003E00000
FFFFFFFF80
FFFFFFFF80
FFFFFFFF80
FFFFFFFF80
FFFFFFFF80
0003E00000
0003E00000
0003E00000
0003E00000
0003E00000
0003E00000
0003E00000
0003E00000
0003E00000
0003E00000
0000000000
0000000000
0000000000
0000000000
0000000000
0000000000
FFFFFFFF80
FFFFFFFF80
FFFFFFFF80
FFFFFFFF80
FFFFFFFF80
ENDCHAR
STARTCHAR twosuperior
ENCODING 178
SWIDTH 602 0
DWIDTH 39 0
BBX 18 26 10 22
BITMAP
0FF000
7FFC00
FFFF00
F01F80
800780
0003C0
0003C0
0003C0
0003C0
0007C0
000780
000F80
001F00
003F00
007E00
00FC00
01F800
03F000
07E000
0FC000
3F8000
7E0000
FC0000
FFFFC0
FFFFC0
FFFFC0
ENDCHAR
STARTCHAR threesuperior
ENCODING 179
SWIDTH 602 0
DWIDTH 39 0
BBX 19 26 10 22
BITMAP
0FF800
7FFE00
7FFF00
601F80
0007C0
0003C0
0003C0
0003C0
000780
001F80
07FE00
07FC00
07FF00
001F80
0007C0
0003E0
0001E0
0001E0
0001E0
0001E0
0003E0
0007C0
C01F80
FFFF80
FFFE00
3FF000
ENDCHAR
STARTCHAR acute
ENCODING 180
SWIDTH 602 0
DWIDTH 39 0
BBX 15 12 15 39
BITMAP
00FE
00FC
01F8
03F0
07E0
07C0
0FC0
1F80
1F00
3E00
7C00
F800
ENDCHAR
STARTCHAR mu
ENCODING 181
SWIDTH 602 0
DWIDTH 39 0
BBX 31 48 6 -13
BITMAP
FC0007E0
FC0007E0
FC0007E0
FC0007E0
FC0007E0
FC0007E0
FC0007E0
FC0007E0
FC0007E0
FC0007E0
FC0007E0
FC0007E0
FC0007E0
FC0007E0
FC0007E0
FC0007E0
FC0007E0
FC0007E0
FC0007E0
FC0007E0
FC0007E0
FC0007E0
FC0007E0
FC0007E0
FC0007E0
FC000FE0
FE000FE0
FE000FE0
FF001FE0
FF803FE0
FFC0FFF2
FBFFFFFE
FBFFFBFE
F9FFF1FE
F8FFE1FE
F83F80F8
F8000000
F8000000
F8000000
F8000000
F8000000
F8000000
F8000000
F8000000
F8000000
F8000000
F8000000
F8000000
ENDCHAR
STARTCHAR paragraph
ENCODING 182
SWIDTH 602 0
DWIDTH 39 0
BBX 29 53 3 -6
BITMAP
001FFFF8
00FFFFF8
03FFFFF8
0FFFFFF8
1FFFE078
3FFFE078
3FFFE078
7FFFE078
7FFFE078
FFFFE078
FFFFE078
FFFFE078
FFFFE078
FFFFE078
FFFFE078
FFFFE078
FFFFE078
7FFFE078
7FFFE078
3FFFE078
3FFFE078
1FFFE078
0FFFE078
03FFE078
00FFE078
001FE078
0001E078
0001E078
0001E078
0001E078
0001E078
0001E078
0001E078
0001E078
0001E078
0001E078
0001E078
0001E078
0001E078
0001E078
0001E078
0001E078
0001E078
0001E078
0001E078
0001E078
0001E078
0001E078
0001E078
0001E078
0001E078
0001E078
0001E078
ENDCHAR
STARTCHAR periodcentered
ENCODING 183
SWIDTH 602 0
DWIDTH 39 0
BBX 8 10 15 17
BITMAP
FF
FF
FF
FF
FF
FF
FF
FF
FF
FF
ENDCHAR
STARTCHAR cedilla
ENCODING 184
SWIDTH 602 0
DWIDTH 39 0
BBX 13 12 12 -12
BITMAP
03C0
01E0
00F0
00F0
0078
0078
0078
80F8
FFF8
FFF0
FFE0
7F80
ENDCHAR
STARTCHAR onesuperior
ENCODING 185
SWIDTH 602 0
DWIDTH 39 0
BBX 17 26 11 22
BITMAP
1FE000
FFE000
FFE000
F1E000
01E000
01E000
01E000
01E000
01E000
01E000
01E000
01E000
01E000
01E000
01E000
01E000
01E000
01E000
01E000
01E000
01E000
01E000
01E000
7FFF80
7FFF80
7FFF80
ENDCHAR
STARTCHAR ordmasculine
ENCODING 186
SWIDTH 602 0
DWIDTH 39 0
BBX 23 33 8 15
BITMAP
00FE00
03FF80
0FFFE0
1F83F0
3F01F8
3E00F8
7C007C
7C007C
7C007C
F8003E
F8003E
F8003E
F8003E
F8003E
F8003E
F8003E
F8003E
F8007C
7C007C
7C007C
3E00F8
3F01F8
1F83F0
0FFFE0
07FFC0
00FE00
000000
000000
000000
7FFFFC
7FFFFC
7FFFFC
7FFFFC
ENDCHAR
STARTCHAR guillemotright
ENCODING 187
SWIDTH 602 0
DWIDTH 39 0
BBX 30 29 6 4
BITMAP
80010000
C0018000
E001C000
F001E000
F801F000
FC01F800
7E00FC00
3F807F00
1FC03F80
0FE01FC0
07F00FE0
03F807F0
00FC03F8
007E01FC
003E00FC
007E01FC
00FC03F8
03F807F0
07F00FE0
0FE01FC0
1FC03F80
3F807F00
7E00FC00
FC01F800
F801F000
F001E000
E001C000
C0018000
80010000
ENDCHAR
STARTCHAR onequarter
ENCODING 188
SWIDTH 602 0
DWIDTH 39 0
BBX 34 60 1 -7
BITMAP
07F8000000
3FF8000000
3FF8000000
3C78000000
0078000000
0078000000
0078000000
0078000000
0078000000
0078000000
0078000000
0078000000
0078000000
0078000000
0078000000
0078000000
0078000000
0078000000
0078000000
0078000000
0078000000
0078000000
0078000000
1FFFE00000
1FFFE00000
1FFFE00000
0000000180
0000001FC0
000001FFC0
00001FFF00
0003FFF000
003FFF0000
03FFE00000
3FFE000000
FFE000F800
FE0001F800
600003F800
000003F800
000007F800
00000F7800
00000E7800
00001E7800
00003C7800
0000387800
0000787800
0000F07800
0000E07800
0001E07800
0003C07800
0003807800
0007807800
0007FFFF80
0007FFFF80
0007FFFF80
0000007800
0000007800
0000007800
0000007800
0000007800
0000007800
ENDCHAR
STARTCHAR onehalf
ENCODING 189
SWIDTH 602 0
DWIDTH 39 0
BBX 34 60 1 -7
BITMAP
07F8000000
3FF8000000
3FF8000000
3C78000000
0078000000
0078000000
0078000000
0078000000
0078000000
0078000000
0078000000
0078000000
0078000000
0078000000
0078000000
0078000000
0078000000
0078000000
0078000000
0078000000
0078000000
0078000000
0078000000
1FFFE00000
1FFFE00000
1FFFE00000
0000000180
0000001FC0
000001FFC0
00001FFF00
0003FFF000
003FFF0000
03FFE00000
3FFE000000
FFE01FE000
FE00FFF800
6001FFFE00
0001E03F00
0001000F00
0000000780
0000000780
0000000780
0000000780
0000000F80
0000000F00
0000001F00
0000003E00
0000007E00
000000FC00
000001F800
000003F000
000007E000
00000FC000
00001F8000
00007F0000
0000FC0000
0001F80000
0001FFFF80
0001FFFF80
0001FFFF80
ENDCHAR
STARTCHAR threequarters
ENCODING 190
SWIDTH 602 0
DWIDTH 39 0
BBX 34 60 1 -7
BITMAP
03FE000000
1FFF800000
1FFFC00000
1807E00000
0001F00000
0000F00000
0000F00000
0000F00000
0001E00000
0007E00000
01FF800000
01FF000000
01FFC00000
0007E00000
0001F00000
0000F80000
0000780000
0000780000
0000780000
0000780000
0000F80000
0001F00000
3007E00000
3FFFE00000
3FFF800000
0FFC000000
0000000180
0000001FC0
000001FFC0
00001FFF00
0003FFF000
003FFF0000
03FFE00000
3FFE000000
FFE000F800
FE0001F800
600003F800
000003F800
000007F800
00000F7800
00000E7800
00001E7800
00003C7800
0000387800
0000787800
0000F07800
0000E07800
0001E07800
0003C07800
0003807800
0007807800
0007FFFF80
0007FFFF80
0007FFFF80
0000007800
0000007800
0000007800
0000007800
0000007800
0000007800
ENDCHAR
STARTCHAR questiondown
ENCODING 191
SWIDTH 602 0
DWIDTH 39 0
BBX 25 48 6 -1
BITMAP
001F8000
001F8000
001F8000
001F8000
001F8000
001F8000
001F8000
001F8000
00000000
00000000
00000000
00000000
00000000
001F8000
001F8000
001F8000
001F8000
001F8000
001F8000
001F8000
001F8000
003F8000
003F0000
007F0000
00FF0000
01FE0000
03FC0000
07FC0000
0FF80000
1FF00000
3FE00000
3FC00000
7F800000
7F000000
FE000000
FC000000
FC000000
FC000000
FC000000
FC000080
FE000380
7F000F80
7F807F80
3FFFFF80
1FFFFF80
0FFFFF00
03FFFC00
00FFC000
ENDCHAR
STARTCHAR Agrave
ENCODING 192
SWIDTH 602 0
DWIDTH 39 0
BBX 36 59 1 0
BITMAP
001F800000
000FC00000
0007E00000
0003F00000
0001F00000
0000F80000
00007C0000
00003E0000
0000000000
0000000000
0000000000
0000000000
0003FC0000
0003FC0000
0007FE0000
0007FE0000
0007FE0000
0007FE0000
000FFF0000
000FFF0000
000FFF0000
001FFF8000
001F9F8000
001F9F8000
003F9FC000
003F0FC000
003F0FC000
007F0FC000
007E07E000
007E07E000
007E07E000
00FE07F000
00FC03F000
00FC03F000
01FC03F800
01F801F800
01F801F800
03F801FC00
03F000FC00
03F000FC00
03F000FC00
07F000FE00
07FFFFFE00
07FFFFFE00
0FFFFFFF00
0FFFFFFF00
0FFFFFFF00
1FC0003F80
1F80001F80
1F80001F80
1F80001F80
3F80001FC0
3F00000FC0
3F00000FC0
7F00000FE0
7E000007E0
7E000007E0
FE000007F0
FC000003F0
ENDCHAR
STARTCHAR Aacute
ENCODING 193
SWIDTH 602 0
DWIDTH 39 0
BBX 36 59 1 0
BITMAP
00000FC000
00001F8000
00003F0000
00007E0000
00007C0000
0000F80000
0001F00000
0003E00000
0000000000
0000000000
0000000000
0000000000
0003FC0000
0003FC0000
0007FE0000
0007FE0000
0007FE0000
0007FE0000
000FFF0000
000FFF0000
000FFF0000
001FFF8000
001F9F8000
001F9F8000
003F9FC000
003F0FC000
003F0FC000
007F0FC000
007E07E000
007E07E000
007E07E000
00FE07F000
00FC03F000
00FC03F000
01FC03F800
01F801F800
01F801F800
03F801FC00
03F000FC00
03F000FC00
03F000FC00
07F000FE00
07FFFFFE00
07FFFFFE00
0FFFFFFF00
0FFFFFFF00
0FFFFFFF00
1FC0003F80
1F80001F80
1F80001F80
1F80001F80
3F80001FC0
3F00000FC0
3F00000FC0
7F00000FE0
7E000007E0
7E000007E0
FE000007F0
FC000003F0
ENDCHAR
STARTCHAR Acircumflex
ENCODING 194
SWIDTH 602 0
DWIDTH 39 0
BBX 36 59 1 0
BITMAP
0001FC0000
0003FE0000
0007FE0000
0007DF0000
000F8F8000
001F07C000
003E03E000
007C01F000
0000000000
0000000000
0000000000
0000000000
0003FC0000
0003FC0000
0007FE0000
0007FE0000
0007FE0000
0007FE0000
000FFF0000
000FFF0000
000FFF0000
001FFF8000
001F9F8000
001F9F8000
003F9FC000
003F0FC000
003F0FC000
007F0FC000
007E07E000
007E07E000
007E07E000
00FE07F000
00FC03F000
00FC03F000
01FC03F800
01F801F800
01F801F800
03F801FC00
03F000FC00
03F000FC00
03F000FC00
07F000FE00
07FFFFFE00
07FFFFFE00
0FFFFFFF00
0FFFFFFF00
0FFFFFFF00
1FC0003F80
1F80001F80
1F80001F80
1F80001F80
3F80001FC0
3F00000FC0
3F00000FC0
7F00000FE0
7E000007E0
7E000007E0
FE000007F0
FC000003F0
ENDCHAR
STARTCHAR Atilde
ENCODING 195
SWIDTH 602 0
DWIDTH 39 0
BBX 36 59 1 0
BITMAP
000F807800
003FE07800
007FF8F800
007FFFF000
00F8FFF000
00F03FE000
00F00FC000
0000000000
0000000000
0000000000
0000000000
0000000000
0003FC0000
0003FC0000
0007FE0000
0007FE0000
0007FE0000
0007FE0000
000FFF0000
000FFF0000
000FFF0000
001FFF8000
001F9F8000
001F9F8000
003F9FC000
003F0FC000
003F0FC000
007F0FC000
007E07E000
007E07E000
007E07E000
00FE07F000
00FC03F000
00FC03F000
01FC03F800
01F801F800
01F801F800
03F801FC00
03F000FC00
03F000FC00
03F000FC00
07F000FE00
07FFFFFE00
07FFFFFE00
0FFFFFFF00
0FFFFFFF00
0FFFFFFF00
1FC0003F80
1F80001F80
1F80001F80
1F80001F80
3F80001FC0
3F00000FC0
3F00000FC0
7F00000FE0
7E000007E0
7E000007E0
FE000007F0
FC000003F0
ENDCHAR
STARTCHAR Adieresis
ENCODING 196
SWIDTH 602 0
DWIDTH 39 0
BBX 36 58 1 0
BITMAP
007E07E000
007E07E000
007E07E000
007E07E000
007E07E000
007E07E000
0000000000
0000000000
0000000000
0000000000
0000000000
0003FC0000
0003FC0000
0007FE0000
0007FE0000
0007FE0000
0007FE0000
000FFF0000
000FFF0000
000FFF0000
001FFF8000
001F9F8000
001F9F8000
003F9FC000
003F0FC000
003F0FC000
007F0FC000
007E07E000
007E07E000
007E07E000
00FE07F000
00FC03F000
00FC03F000
01FC03F800
01F801F800
01F801F800
03F801FC00
03F000FC00
03F000FC00
03F000FC00
07F000FE00
07FFFFFE00
07FFFFFE00
0FFFFFFF00
0FFFFFFF00
0FFFFFFF00
1FC0003F80
1F80001F80
1F80001F80
1F80001F80
3F80001FC0
3F00000FC0
3F00000FC0
7F00000FE0
7E000007E0
7E000007E0
FE000007F0
FC000003F0
ENDCHAR
STARTCHAR Aring
ENCODING 197
SWIDTH 602 0
DWIDTH 39 0
BBX 36 59 1 0
BITMAP
0001F80000
0007FE0000
000FFF0000
001FFF0000
001F0F8000
003E07C000
003C03C000
003C03C000
003C03C000
003C03C000
003C03C000
001E078000
001F0F8000
000FFF0000
0007FE0000
0003FC0000
0003FC0000
0007FE0000
0007FE0000
0007FE0000
000FFF0000
000FFF0000
000FFF0000
001FFF8000
001F9F8000
001F9F8000
003F9FC000
003F0FC000
003F0FC000
007F0FE000
007E07E000
007E07E000
00FE07E000
00FE03F000
00FC03F000
00FC03F000
01FC03F800
01F801F800
01F801F800
03F801FC00
03F000FC00
03F000FC00
07FFFFFE00
07FFFFFE00
07FFFFFE00
0FFFFFFF00
0FFFFFFF00
0FC0003F00
1FC0003F80
1F80001F80
1F80001F80
3F80001FC0
3F00000FC0
3F00000FC0
7F00000FE0
7E000007E0
7E000007E0
FE000007F0
FC000003F0
ENDCHAR
STARTCHAR AE
ENCODING 198
SWIDTH 602 0
DWIDTH 39 0
BBX 37 47 0 0
BITMAP
0007FFFFF0
000FFFFFF0
000FFFFFF0
000FFFFFF0
000FFFFFF0
001FCFC000
001F8FC000
001F8FC000
001F8FC000
003F0FC000
003F0FC000
003F0FC000
007F0FC000
007E0FC000
007E0FC000
007E0FC000
00FE0FC000
00FC0FC000
00FC0FC000
00FC0FFFE0
01F80FFFE0
01F80FFFE0
01F80FFFE0
03F80FFFE0
03F00FC000
03F00FC000
03F00FC000
07F00FC000
07E00FC000
07E00FC000
07FFFFC000
0FFFFFC000
0FFFFFC000
0FFFFFC000
1FFFFFC000
1F800FC000
1F800FC000
1F800FC000
3F800FC000
3F000FC000
3F000FC000
7F000FC000
7E000FFFF8
7E000FFFF8
7E000FFFF8
FE000FFFF8
FC000FFFF8
ENDCHAR
STARTCHAR Ccedilla
ENCODING 199
SWIDTH 602 0
DWIDTH 39 0
BBX 29 60 4 -12
BITMAP
0003FE00
001FFFC0
007FFFF0
00FFFFF8
01FFFFF8
03FE03F8
07F00078
0FE00018
0FC00008
1F800000
1F800000
3F000000
3F000000
7E000000
7E000000
7E000000
7E000000
7C000000
FC000000
FC000000
FC000000
FC000000
FC000000
FC000000
FC000000
FC000000
FC000000
FC000000
FC000000
FC000000
FC000000
FC000000
7E000000
7E000000
7E000000
7E000000
3F000000
3F000000
3F800000
1F800000
0FC00008
0FE00018
07F80078
03FE03F8
01FFFFF8
00FFFFF8
007FFFF0
001FFFC0
0003FE00
00003C00
00001E00
00001E00
00000F00
00000F00
00000F00
00101F00
001FFF00
001FFE00
001FFC00
000FF000
ENDCHAR
STARTCHAR Egrave
ENCODING 200
SWIDTH 602 0
DWIDTH 39 0
BBX 28 59 6 0
BITMAP
01F80000
00FC0000
007E0000
003F0000
001F0000
000F8000
0007C000
0003E000
00000000
00000000
00000000
00000000
FFFFFFE0
FFFFFFE0
FFFFFFE0
FFFFFFE0
FFFFFFE0
FC000000
FC000000
FC000000
FC000000
FC000000
FC000000
FC000000
FC000000
FC000000
FC000000
FC000000
FC000000
FC000000
FC000000
FFFFFFC0
FFFFFFC0
FFFFFFC0
FFFFFFC0
FFFFFFC0
FC000000
FC000000
FC000000
FC000000
FC000000
FC000000
FC000000
FC000000
FC000000
FC000000
FC000000
FC000000
FC000000
FC000000
FC000000
FC000000
FC000000
FC000000
FFFFFFF0
FFFFFFF0
FFFFFFF0
FFFFFFF0
FFFFFFF0
ENDCHAR
STARTCHAR Eacute
ENCODING 201
SWIDTH 602 0
DWIDTH 39 0
BBX 28 59 6 0
BITMAP
0000FC00
0001F800
0003F000
0007E000
0007C000
000F8000
001F0000
003E0000
00000000
00000000
00000000
00000000
FFFFFFE0
FFFFFFE0
FFFFFFE0
FFFFFFE0
FFFFFFE0
FC000000
FC000000
FC000000
FC000000
FC000000
FC000000
FC000000
FC000000
FC000000
FC000000
FC000000
FC000000
FC000000
FC000000
FFFFFFC0
FFFFFFC0
FFFFFFC0
FFFFFFC0
FFFFFFC0
FC000000
FC000000
FC000000
FC000000
FC000000
FC000000
FC000000
FC000000
FC000000
FC000000
FC000000
FC000000
FC000000
FC000000
FC000000
FC000000
FC000000
FC000000
FFFFFFF0
FFFFFFF0
FFFFFFF0
FFFFFFF0
FFFFFFF0
ENDCHAR
STARTCHAR Ecircumflex
ENCODING 202
SWIDTH 602 0
DWIDTH 39 0
BBX 28 59 6 0
BITMAP
001FC000
003FE000
007FE000
007DF000
00F8F800
01F07C00
03E03E00
07C01F00
00000000
00000000
00000000
00000000
FFFFFFE0
FFFFFFE0
FFFFFFE0
FFFFFFE0
FFFFFFE0
FC000000
FC000000
FC000000
FC000000
FC000000
FC000000
FC000000
FC000000
FC000000
FC000000
FC000000
FC000000
FC000000
FC000000
FFFFFFC0
FFFFFFC0
FFFFFFC0
FFFFFFC0
FFFFFFC0
FC000000
FC000000
FC000000
FC000000
FC000000
FC000000
FC000000
FC000000
FC000000
FC000000
FC000000
FC000000
FC000000
FC000000
FC000000
FC000000
FC000000
FC000000
FFFFFFF0
FFFFFFF0
FFFFFFF0
FFFFFFF0
FFFFFFF0
ENDCHAR
STARTCHAR Edieresis
ENCODING 203
SWIDTH 602 0
DWIDTH 39 0
BBX 28 58 6 0
BITMAP
07E07E00
07E07E00
07E07E00
07E07E00
07E07E00
07E07E00
00000000
00000000
00000000
00000000
00000000
FFFFFFE0
FFFFFFE0
FFFFFFE0
FFFFFFE0
FFFFFFE0
FC000000
FC000000
FC000000
FC000000
FC000000
FC000000
FC000000
FC000000
FC000000
FC000000
FC000000
FC000000
FC000000
FC000000
FFFFFFC0
FFFFFFC0
FFFFFFC0
FFFFFFC0
FFFFFFC0
FC000000
FC000000
FC000000
FC000000
FC000000
FC000000
FC000000
FC000000
FC000000
FC000000
FC000000
FC000000
FC000000
FC000000
FC000000
FC000000
FC000000
FC000000
FFFFFFF0
FFFFFFF0
FFFFFFF0
FFFFFFF0
FFFFFFF0
ENDCHAR
STARTCHAR Igrave
ENCODING 204
SWIDTH 602 0
DWIDTH 39 0
BBX 26 59 6 0
BITMAP
03F00000
01F80000
00FC0000
007E0000
003E0000
001F0000
000F8000
0007C000
00000000
00000000
00000000
00000000
FFFFFFC0
FFFFFFC0
FFFFFFC0
FFFFFFC0
FFFFFFC0
003F0000
003F0000
003F0000
003F0000
003F0000
003F0000
003F0000
003F0000
003F0000
003F0000
003F0000
003F0000
003F0000
003F0000
003F0000
003F0000
003F0000
003F0000
003F0000
003F0000
003F0000
003F0000
003F0000
003F0000
003F0000
003F0000
003F0000
003F0000
003F0000
003F0000
003F0000
003F0000
003F0000
003F0000
003F0000
003F0000
003F0000
FFFFFFC0
FFFFFFC0
FFFFFFC0
FFFFFFC0
FFFFFFC0
ENDCHAR
STARTCHAR Iacute
ENCODING 205
SWIDTH 602 0
DWIDTH 39 0
BBX 26 59 6 0
BITMAP
0001F800
0003F000
0007E000
000FC000
000F8000
001F0000
003E0000
007C0000
00000000
00000000
00000000
00000000
FFFFFFC0
FFFFFFC0
FFFFFFC0
FFFFFFC0
FFFFFFC0
003F0000
003F0000
003F0000
003F0000
003F0000
003F0000
003F0000
003F0000
003F0000
003F0000
003F0000
003F0000
003F0000
003F0000
003F0000
003F0000
003F0000
003F0000
003F0000
003F0000
003F0000
003F0000
003F0000
003F0000
003F0000
003F0000
003F0000
003F0000
003F0000
003F0000
003F0000
003F0000
003F0000
003F0000
003F0000
003F0000
003F0000
FFFFFFC0
FFFFFFC0
FFFFFFC0
FFFFFFC0
FFFFFFC0
ENDCHAR
STARTCHAR Icircumflex
ENCODING 206
SWIDTH 602 0
DWIDTH 39 0
BBX 26 59 6 0
BITMAP
003F8000
007FC000
00FFC000
00FBE000
01F1F000
03E0F800
07C07C00
0F803E00
00000000
00000000
00000000
00000000
FFFFFFC0
FFFFFFC0
FFFFFFC0
FFFFFFC0
FFFFFFC0
003F0000
003F0000
003F0000
003F0000
003F0000
003F0000
003F0000
003F0000
003F0000
003F0000
003F0000
003F0000
003F0000
003F0000
003F0000
003F0000
003F0000
003F0000
003F0000
003F0000
003F0000
003F0000
003F0000
003F0000
003F0000
003F0000
003F0000
003F0000
003F0000
003F0000
003F0000
003F0000
003F0000
003F0000
003F0000
003F0000
003F0000
FFFFFFC0
FFFFFFC0
FFFFFFC0
FFFFFFC0
FFFFFFC0
ENDCHAR
STARTCHAR Idieresis
ENCODING 207
SWIDTH 602 0
DWIDTH 39 0
BBX 26 58 6 0
BITMAP
0FC0FC00
0FC0FC00
0FC0FC00
0FC0FC00
0FC0FC00
0FC0FC00
00000000
00000000
00000000
00000000
00000000
FFFFFFC0
FFFFFFC0
FFFFFFC0
FFFFFFC0
FFFFFFC0
003F0000
003F0000
003F0000
003F0000
003F0000
003F0000
003F0000
003F0000
003F0000
003F0000
003F0000
003F0000
003F0000
003F0000
003F0000
003F0000
003F0000
003F0000
003F0000
003F0000
003F0000
003F0000
003F0000
003F0000
003F0000
003F0000
003F0000
003F0000
003F0000
003F0000
003F0000
003F0000
003F0000
003F0000
003F0000
003F0000
003F0000
FFFFFFC0
FFFFFFC0
FFFFFFC0
FFFFFFC0
FFFFFFC0
ENDCHAR
STARTCHAR Eth
ENCODING 208
SWIDTH 602 0
DWIDTH 39 0
BBX 34 47 0 0
BITMAP
0FFFE00000
0FFFFC0000
0FFFFF8000
0FFFFFC000
0FFFFFF000
0FC03FF800
0FC007FC00
0FC001FC00
0FC000FE00
0FC0007E00
0FC0003F00
0FC0003F00
0FC0001F80
0FC0001F80
0FC0001F80
0FC0001F80
0FC0000F80
0FC0000FC0
0FC0000FC0
0FC0000FC0
FFFFC00FC0
FFFFC00FC0
FFFFC00FC0
FFFFC00FC0
FFFFC00FC0
0FC0000FC0
0FC0000FC0
0FC0000FC0
0FC0000FC0
0FC0000FC0
0FC0000F80
0FC0001F80
0FC0001F80
0FC0001F80
0FC0001F80
0FC0003F00
0FC0003F00
0FC0007E00
0FC000FE00
0FC001FC00
0FC007FC00
0FC03FF800
0FFFFFF000
0FFFFFC000
0FFFFF8000
0FFFFE0000
0FFFE00000
ENDCHAR
STARTCHAR Ntilde
ENCODING 209
SWIDTH 602 0
DWIDTH 39 0
BBX 30 59 4 0
BITMAP
00F80780
03FE0780
07FF8F80
07FFFF00
0F8FFF00
0F03FE00
0F00FC00
00000000
00000000
00000000
00000000
00000000
FF0000FC
FF8000FC
FF8000FC
FF8000FC
FFC000FC
FFC000FC
FFE000FC
FFE000FC
FFE000FC
FDF000FC
FDF000FC
FDF800FC
FCF800FC
FCFC00FC
FC7C00FC
FC7C00FC
FC7E00FC
FC3E00FC
FC3F00FC
FC1F00FC
FC1F00FC
FC0F80FC
FC0F80FC
FC0FC0FC
FC07C0FC
FC07C0FC
FC03E0FC
FC03E0FC
FC03F0FC
FC01F0FC
FC01F8FC
FC00F8FC
FC00F8FC
FC00FCFC
FC007CFC
FC007EFC
FC003EFC
FC003EFC
FC001FFC
FC001FFC
FC001FFC
FC000FFC
FC000FFC
FC0007FC
FC0007FC
FC0007FC
FC0003FC
ENDCHAR
STARTCHAR Ograve
ENCODING 210
SWIDTH 602 0
DWIDTH 39 0
BBX 31 60 4 -1
BITMAP
00FC0000
007E0000
003F0000
001F8000
000F8000
0007C000
0003E000
0001F000
00000000
00000000
00000000
001FF000
007FFC00
01FFFF00
03FFFF80
07FFFFC0
0FF83FE0
0FE00FE0
1FC007F0
1F8003F0
3F0001F8
3F0001F8
7E0000F8
7E0000FC
7E0000FC
7E0000FC
7E0000FC
FC00007C
FC00007E
FC00007E
FC00007E
FC00007E
FC00007E
FC00007E
FC00007E
FC00007E
FC00007E
FC00007E
FC00007E
FC00007E
FC00007E
FC00007E
FC00007E
FC00007E
7E0000FC
7E0000FC
7E0000FC
7E0000FC
7E0000F8
3F0001F8
3F0001F8
3F8003F0
1FC007F0
0FE00FE0
0FF81FE0
07FFFFC0
03FFFF80
01FFFF00
007FFC00
001FF000
ENDCHAR
STARTCHAR Oacute
ENCODING 211
SWIDTH 602 0
DWIDTH 39 0
BBX 31 60 4 -1
BITMAP
00007E00
0000FC00
0001F800
0003F000
0003E000
0007C000
000F8000
001F0000
00000000
00000000
00000000
001FF000
007FFC00
01FFFF00
03FFFF80
07FFFFC0
0FF83FE0
0FE00FE0
1FC007F0
1F8003F0
3F0001F8
3F0001F8
7E0000F8
7E0000FC
7E0000FC
7E0000FC
7E0000FC
FC00007C
FC00007E
FC00007E
FC00007E
FC00007E
FC00007E
FC00007E
FC00007E
FC00007E
FC00007E
FC00007E
FC00007E
FC00007E
FC00007E
FC00007E
FC00007E
FC00007E
7E0000FC
7E0000FC
7E0000FC
7E0000FC
7E0000F8
3F0001F8
3F0001F8
3F8003F0
1FC007F0
0FE00FE0
0FF81FE0
07FFFFC0
03FFFF80
01FFFF00
007FFC00
001FF000
ENDCHAR
STARTCHAR Ocircumflex
ENCODING 212
SWIDTH 602 0
DWIDTH 39 0
BBX 31 60 4 -1
BITMAP
000FE000
001FF000
003FF000
003EF800
007C7C00
00F83E00
01F01F00
03E00F80
00000000
00000000
00000000
001FF000
007FFC00
01FFFF00
03FFFF80
07FFFFC0
0FF83FE0
0FE00FE0
1FC007F0
1F8003F0
3F0001F8
3F0001F8
7E0000F8
7E0000FC
7E0000FC
7E0000FC
7E0000FC
FC00007C
FC00007E
FC00007E
FC00007E
FC00007E
FC00007E
FC00007E
FC00007E
FC00007E
FC00007E
FC00007E
FC00007E
FC00007E
FC00007E
FC00007E
FC00007E
FC00007E
7E0000FC
7E0000FC
7E0000FC
7E0000FC
7E0000F8
3F0001F8
3F0001F8
3F8003F0
1FC007F0
0FE00FE0
0FF81FE0
07FFFFC0
03FFFF80
01FFFF00
007FFC00
001FF000
ENDCHAR
STARTCHAR Otilde
ENCODING 213
SWIDTH 602 0
DWIDTH 39 0
BBX 31 60 4 -1
BITMAP
007C03C0
01FF03C0
03FFC7C0
03FFFF80
07C7FF80
0781FF00
07807E00
00000000
00000000
00000000
00000000
001FF000
007FFC00
01FFFF00
03FFFF80
07FFFFC0
0FF83FE0
0FE00FE0
1FC007F0
1F8003F0
3F0001F8
3F0001F8
7E0000F8
7E0000FC
7E0000FC
7E0000FC
7E0000FC
FC00007C
FC00007E
FC00007E
FC00007E
FC00007E
FC00007E
FC00007E
FC00007E
FC00007E
FC00007E
FC00007E
FC00007E
FC00007E
FC00007E
FC00007E
FC00007E
FC00007E
7E0000FC
7E0000FC
7E0000FC
7E0000FC
7E0000F8
3F0001F8
3F0001F8
3F8003F0
1FC007F0
0FE00FE0
0FF81FE0
07FFFFC0
03FFFF80
01FFFF00
007FFC00
001FF000
ENDCHAR
STARTCHAR Odieresis
ENCODING 214
SWIDTH 602 0
DWIDTH 39 0
BBX 31 59 4 -1
BITMAP
03F03F00
03F03F00
03F03F00
03F03F00
03F03F00
03F03F00
00000000
00000000
00000000
00000000
001FF000
007FFC00
01FFFF00
03FFFF80
07FFFFC0
0FF83FE0
0FE00FE0
1FC007F0
1F8003F0
3F0001F8
3F0001F8
7E0000F8
7E0000FC
7E0000FC
7E0000FC
7E0000FC
FC00007C
FC00007E
FC00007E
FC00007E
FC00007E
FC00007E
FC00007E
FC00007E
FC00007E
FC00007E
FC00007E
FC00007E
FC00007E
FC00007E
FC00007E
FC00007E
FC00007E
7E0000FC
7E0000FC
7E0000FC
7E0000FC
7E0000F8
3F0001F8
3F0001F8
3F8003F0
1FC007F0
0FE00FE0
0FF81FE0
07FFFFC0
03FFFF80
01FFFF00
007FFC00
001FF000
ENDCHAR
STARTCHAR multiply
ENCODING 215
SWIDTH 602 0
DWIDTH 39 0
BBX 29 29 5 6
BITMAP
10000040
380000E0
7C0001F0
FE0003F8
7F0007F0
3F800FE0
1FC01FC0
0FE03F80
07F07F00
03F8FE00
01FDFC00
00FFF800
007FF000
003FE000
001FC000
003FE000
007FF000
00FFF800
01FDFC00
03F8FE00
07F07F00
0FE03F80
1FC01FC0
3F800FE0
7F0007F0
FE0003F8
7C0001F0
380000E0
10000040
ENDCHAR
STARTCHAR Oslash
ENCODING 216
SWIDTH 602 0
DWIDTH 39 0
BBX 36 51 1 -2
BITMAP
0000000060
0001FE00F0
000FFFC0F0
003FFFE1F0
007FFFF1E0
00FFFFFBC0
01FE07FFC0
01FC01FF80
03F800FF00
03F0007F00
07E0003F00
07E0003F00
07E0007F80
0FC000FF80
0FC000FF80
0FC001FF80
0FC003FF80
1F8007CFC0
1F8007CFC0
1F800F8FC0
1F801F0FC0
1F801F0FC0
1F803E0FC0
1F807C0FC0
1F80F80FC0
1F80F80FC0
1F81F00FC0
1F83E00FC0
1F87C00FC0
1F87C00FC0
1F8F800FC0
1F9F000FC0
1F9F000FC0
1FBE000F80
1FFC001F80
0FF8001F80
0FF8001F80
0FF0001F80
0FE0001F00
0FE0003F00
07E0003F00
07E0007E00
0FF000FE00
1FF801FC00
1FFE03FC00
3FFFFFF800
7CFFFFF000
F87FFFE000
F81FFF8000
F003FC0000
2000000000
ENDCHAR
STARTCHAR Ugrave
ENCODING 217
SWIDTH 602 0
DWIDTH 39 0
BBX 29 60 5 -1
BITMAP
01F80000
00FC0000
007E0000
003F0000
001F0000
000F8000
0007C000
0003E000
00000000
00000000
00000000
00000000
FC0001F8
FC0001F8
FC0001F8
FC0001F8
FC0001F8
FC0001F8
FC0001F8
FC0001F8
FC0001F8
FC0001F8
FC0001F8
FC0001F8
FC0001F8
FC0001F8
FC0001F8
FC0001F8
FC0001F8
FC0001F8
FC0001F8
FC0001F8
FC0001F8
FC0001F8
FC0001F8
FC0001F8
FC0001F8
FC0001F8
FC0001F8
FC0001F8
FC0001F8
FC0001F8
FC0001F8
FC0001F8
FC0001F8
FC0001F8
FC0001F8
FC0001F8
FC0001F8
FC0001F8
7E0003F0
7E0003F0
7F0007F0
3F800FE0
3FE03FE0
1FFFFFC0
0FFFFF80
07FFFF00
01FFFC00
003FE000
ENDCHAR
STARTCHAR Uacute
ENCODING 218
SWIDTH 602 0
DWIDTH 39 0
BBX 29 60 5 -1
BITMAP
0000FC00
0001F800
0003F000
0007E000
0007C000
000F8000
001F0000
003E0000
00000000
00000000
00000000
00000000
FC0001F8
FC0001F8
FC0001F8
FC0001F8
FC0001F8
FC0001F8
FC0001F8
FC0001F8
FC0001F8
FC0001F8
FC0001F8
FC0001F8
FC0001F8
FC0001F8
FC0001F8
FC0001F8
FC0001F8
FC0001F8
FC0001F8
FC0001F8
FC0001F8
FC0001F8
FC0001F8
FC0001F8
FC0001F8
FC0001F8
FC0001F8
FC0001F8
FC0001F8
FC0001F8
FC0001F8
FC0001F8
FC0001F8
FC0001F8
FC0001F8
FC0001F8
FC0001F8
FC0001F8
7E0003F0
7E0003F0
7F0007F0
3F800FE0
3FE03FE0
1FFFFFC0
0FFFFF80
07FFFF00
01FFFC00
003FE000
ENDCHAR
STARTCHAR Ucircumflex
ENCODING 219
SWIDTH 602 0
DWIDTH 39 0
BBX 29 60 5 -1
BITMAP
001FC000
003FE000
007FE000
007DF000
00F8F800
01F07C00
03E03E00
07C01F00
00000000
00000000
00000000
00000000
FC0001F8
FC0001F8
FC0001F8
FC0001F8
FC0001F8
FC0001F8
FC0001F8
FC0001F8
FC0001F8
FC0001F8
FC0001F8
FC0001F8
FC0001F8
FC0001F8
FC0001F8
FC0001F8
FC0001F8
FC0001F8
FC0001F8
FC0001F8
FC0001F8
FC0001F8
FC0001F8
FC0001F8
FC0001F8
FC0001F8
FC0001F8
FC0001F8
FC0001F8
FC0001F8
FC0001F8
FC0001F8
FC0001F8
FC0001F8
FC0001F8
FC0001F8
FC0001F8
FC0001F8
7E0003F0
7E0003F0
7F0007F0
3F800FE0
3FE03FE0
1FFFFFC0
0FFFFF80
07FFFF00
01FFFC00
003FE000
ENDCHAR
STARTCHAR Udieresis
ENCODING 220
SWIDTH 602 0
DWIDTH 39 0
BBX 29 59 5 -1
BITMAP
07E07E00
07E07E00
07E07E00
07E07E00
07E07E00
07E07E00
00000000
00000000
00000000
00000000
00000000
FC0001F8
FC0001F8
FC0001F8
FC0001F8
FC0001F8
FC0001F8
FC0001F8
FC0001F8
FC0001F8
FC0001F8
FC0001F8
FC0001F8
FC0001F8
FC0001F8
FC0001F8
FC0001F8
FC0001F8
FC0001F8
FC0001F8
FC0001F8
FC0001F8
FC0001F8
FC0001F8
FC0001F8
FC0001F8
FC0001F8
FC0001F8
FC0001F8
FC0001F8
FC0001F8
FC0001F8
FC0001F8
FC0001F8
FC0001F8
FC0001F8
FC0001F8
FC0001F8
FC0001F8
7E0003F0
7E0003F0
7F0007F0
3F800FE0
3FE03FE0
1FFFFFC0
0FFFFF80
07FFFF00
01FFFC00
003FE000
ENDCHAR
STARTCHAR Yacute
ENCODING 221
SWIDTH 602 0
DWIDTH 39 0
BBX 36 59 1 0
BITMAP
00000FC000
00001F8000
00003F0000
00007E0000
00007C0000
0000F80000
0001F00000
0003E00000
0000000000
0000000000
0000000000
0000000000
FE000007F0
7F00000FE0
7F00000FE0
3F80001FC0
1FC0003F80
1FC0003F80
0FE0007F00
0FE0007F00
07F000FE00
03F000FE00
03F801FC00
01FC03F800
01FC03F800
00FE07F000
00FE07F000
007F0FE000
003F8FC000
003F9FC000
001FFF8000
001FFF8000
000FFF0000
000FFF0000
0007FE0000
0003FC0000
0003FC0000
0001F80000
0001F80000
0001F80000
0001F80000
0001F80000
0001F80000
0001F80000
0001F80000
0001F80000
0001F80000
0001F80000
0001F80000
0001F80000
0001F80000
0001F80000
0001F80000
0001F80000
0001F80000
0001F80000
0001F80000
0001F80000
0001F80000
ENDCHAR
STARTCHAR Thorn
ENCODING 222
SWIDTH 602 0
DWIDTH 39 0
BBX 30 47 6 0
BITMAP
FC000000
FC000000
FC000000
FC000000
FC000000
FC000000
FC000000
FC000000
FFFFF000
FFFFFE00
FFFFFF80
FFFFFFC0
FFFFFFE0
FC003FF0
FC000FF8
FC0003F8
FC0001F8
FC0001FC
FC0000FC
FC0000FC
FC0000FC
FC0000FC
FC0000FC
FC0000FC
FC0000FC
FC0001FC
FC0001F8
FC0003F8
FC0007F8
FC003FF0
FFFFFFE0
FFFFFFC0
FFFFFF80
FFFFFE00
FFFFF000
FC000000
FC000000
FC000000
FC000000
FC000000
FC000000
FC000000
FC000000
FC000000
FC000000
FC000000
FC000000
ENDCHAR
STARTCHAR germandbls
ENCODING 223
SWIDTH 602 0
DWIDTH 39 0
BBX 30 50 6 -1
BITMAP
007F8000
03FFF000
0FFFFC00
1FFFFE00
3FFFFE00
3FC0FF00
7F003F80
7E001F80
FE001F80
FC000FC0
FC000FC0
FC000FC0
FC003FC0
FC00FFC0
FC03FE00
FC07F000
FC07E000
FC0FC000
FC0FC000
FC1F8000
FC1F8000
FC1F8000
FC1F8000
FC1F8000
FC1FC000
FC0FE000
FC0FF000
FC07F800
FC03FE00
FC01FF00
FC007FC0
FC003FE0
FC001FF0
FC0007F0
FC0003F8
FC0001F8
FC0001FC
FC0000FC
FC0000FC
FC0000FC
FC0000FC
FC0000FC
FC0001FC
FC4003F8
FC780FF8
FC7FFFF0
FC7FFFE0
FC7FFFC0
FC3FFF80
0007FC00
ENDCHAR
STARTCHAR agrave
ENCODING 224
SWIDTH 602 0
DWIDTH 39 0
BBX 29 52 4 -1
BITMAP
07F00000
03F00000
01F80000
00FC0000
007C0000
003E0000
001F0000
001F8000
000F8000
0007C000
0003E000
0001F000
00000000
00000000
00000000
007FE000
07FFFC00
1FFFFF00
1FFFFF80
1FFFFFC0
1FC03FE0
1C000FF0
100007F0
000003F0
000003F8
000001F8
000001F8
000001F8
000001F8
003FFFF8
01FFFFF8
07FFFFF8
1FFFFFF8
3FFFFFF8
3FE001F8
7F8001F8
7F0001F8
FE0001F8
FC0001F8
FC0003F8
FC0003F8
FC0003F8
FC0007F8
FE0007F8
FE000FF8
7F003FF8
7FC0FFF8
3FFFFDF8
1FFFF9F8
0FFFF1F8
07FFC1F8
00FF0000
ENDCHAR
STARTCHAR aacute
ENCODING 225
SWIDTH 602 0
DWIDTH 39 0
BBX 29 52 4 -1
BITMAP
00001FC0
00001F80
00003F00
00007E00
0000FC00
0000F800
0001F800
0003F000
0003E000
0007C000
000F8000
001F0000
00000000
00000000
00000000
007FE000
07FFFC00
1FFFFF00
1FFFFF80
1FFFFFC0
1FC03FE0
1C000FF0
100007F0
000003F0
000003F8
000001F8
000001F8
000001F8
000001F8
003FFFF8
01FFFFF8
07FFFFF8
1FFFFFF8
3FFFFFF8
3FE001F8
7F8001F8
7F0001F8
FE0001F8
FC0001F8
FC0003F8
FC0003F8
FC0003F8
FC0007F8
FE0007F8
FE000FF8
7F003FF8
7FC0FFF8
3FFFFDF8
1FFFF9F8
0FFFF1F8
07FFC1F8
00FF0000
ENDCHAR
STARTCHAR acircumflex
ENCODING 226
SWIDTH 602 0
DWIDTH 39 0
BBX 29 52 4 -1
BITMAP
000FC000
000FC000
001FE000
003FF000
003FF000
007CF800
00787800
00F87C00
01F03E00
01E01E00
03C00F00
07C00F80
00000000
00000000
00000000
007FE000
07FFFC00
1FFFFF00
1FFFFF80
1FFFFFC0
1FC03FE0
1C000FF0
100007F0
000003F0
000003F8
000001F8
000001F8
000001F8
000001F8
003FFFF8
01FFFFF8
07FFFFF8
1FFFFFF8
3FFFFFF8
3FE001F8
7F8001F8
7F0001F8
FE0001F8
FC0001F8
FC0003F8
FC0003F8
FC0003F8
FC0007F8
FE0007F8
FE000FF8
7F003FF8
7FC0FFF8
3FFFFDF8
1FFFF9F8
0FFFF1F8
07FFC1F8
00FF0000
ENDCHAR
STARTCHAR atilde
ENCODING 227
SWIDTH 602 0
DWIDTH 39 0
BBX 29 51 4 -1
BITMAP
007C03C0
01FE03C0
01FF03C0
03FF83C0
03C7C780
07C3FF80
0781FF00
0780FF00
07807C00
00000000
00000000
00000000
00000000
00000000
007FE000
07FFFC00
1FFFFF00
1FFFFF80
1FFFFFC0
1FC03FE0
1C000FF0
100007F0
000003F0
000003F8
000001F8
000001F8
000001F8
000001F8
003FFFF8
01FFFFF8
07FFFFF8
1FFFFFF8
3FFFFFF8
3FE001F8
7F8001F8
7F0001F8
FE0001F8
FC0001F8
FC0003F8
FC0003F8
FC0003F8
FC0007F8
FE0007F8
FE000FF8
7F003FF8
7FC0FFF8
3FFFFDF8
1FFFF9F8
0FFFF1F8
07FFC1F8
00FF0000
ENDCHAR
STARTCHAR adieresis
ENCODING 228
SWIDTH 602 0
DWIDTH 39 0
BBX 29 50 4 -1
BITMAP
03F03F00
03F03F00
03F03F00
03F03F00
03F03F00
03F03F00
00000000
00000000
00000000
00000000
00000000
00000000
00000000
007FE000
07FFFC00
1FFFFF00
1FFFFF80
1FFFFFC0
1FC03FE0
1C000FF0
100007F0
000003F0
000003F8
000001F8
000001F8
000001F8
000001F8
003FFFF8
01FFFFF8
07FFFFF8
1FFFFFF8
3FFFFFF8
3FE001F8
7F8001F8
7F0001F8
FE0001F8
FC0001F8
FC0003F8
FC0003F8
FC0003F8
FC0007F8
FE0007F8
FE000FF8
7F003FF8
7FC0FFF8
3FFFFDF8
1FFFF9F8
0FFFF1F8
07FFC1F8
00FF0000
ENDCHAR
STARTCHAR aring
ENCODING 229
SWIDTH 602 0
DWIDTH 39 0
BBX 29 57 4 -1
BITMAP
0007C000
001FF000
007FFC00
007FFC00
00F83E00
01F01E00
01E00F00
01E00F00
01E00F00
01E00F00
01E00F00
01F01E00
00F83E00
007FFC00
007FFC00
001FF000
0007E000
00000000
00000000
00000000
007FE000
07FFFC00
1FFFFF00
1FFFFF80
1FFFFFC0
1FC03FE0
1C000FF0
100007F0
000003F0
000003F8
000001F8
000001F8
000001F8
000001F8
003FFFF8
01FFFFF8
07FFFFF8
1FFFFFF8
3FFFFFF8
3FE001F8
7F8001F8
7F0001F8
FE0001F8
FC0001F8
FC0003F8
FC0003F8
FC0003F8
FC0007F8
FE0007F8
FE000FF8
7F003FF8
7FC0FFF8
3FFFFDF8
1FFFF9F8
0FFFF1F8
07FFC1F8
00FF0000
ENDCHAR
STARTCHAR ae
ENCODING 230
SWIDTH 602 0
DWIDTH 39 0
BBX 36 37 1 -1
BITMAP
01F803F800
07FE0FFF00
1FFF1FFF80
3FFFBFFFC0
3FFFFFFFC0
3E0FFE0FE0
3007FC07E0
2003F803E0
0003F803E0
0001F001F0
0001F001F0
0001F001F0
0001F001F0
0001F001F0
0001F001F0
01FFFFFFF0
07FFFFFFF0
1FFFFFFFF0
3FFFFFFFF0
3FFFFFFFF0
7F81F00000
7E01F00000
FC01F00000
F801F00000
F801F00000
F801F00000
F801F00000
F801F00000
F803F80000
FC03F80020
FC03FC0060
7F0FFF01E0
7FFFBFFFE0
3FFFBFFFE0
1FFF1FFFC0
0FFE07FF80
03F801FC00
ENDCHAR
STARTCHAR ccedilla
ENCODING 231
SWIDTH 602 0
DWIDTH 39 0
BBX 27 48 6 -12
BITMAP
000FF800
007FFF00
01FFFFC0
03FFFFE0
07FFFFE0
0FFC07E0
1FE000E0
1FC00060
3F800020
3F000000
7F000000
7E000000
7E000000
FE000000
FC000000
FC000000
FC000000
FC000000
FC000000
FC000000
FC000000
FC000000
FC000000
FE000000
7E000000
7E000000
7F000000
3F000000
3F800020
1FC00060
1FE000E0
0FFC07E0
07FFFFE0
03FFFFE0
01FFFFC0
007FFF00
000FF800
0000F000
00007800
00007800
00003C00
00003C00
00003C00
00407C00
007FFC00
007FF800
007FF000
003FC000
ENDCHAR
STARTCHAR egrave
ENCODING 232
SWIDTH 602 0
DWIDTH 39 0
BBX 31 52 4 -1
BITMAP
07F00000
03F00000
01F80000
00FC0000
007C0000
003E0000
001F0000
001F8000
000F8000
0007C000
0003E000
0001F000
00000000
00000000
00000000
000FF800
007FFE00
01FFFF80
03FFFFC0
07FFFFE0
0FF81FF0
1FE007F8
1F8001F8
3F0001FC
3F0000FC
7E0000FC
7E00007C
7C00007E
FC00007E
FC00007E
FFFFFFFE
FFFFFFFE
FFFFFFFE
FFFFFFFE
FFFFFFFE
FC000000
FC000000
FC000000
FC000000
7C000000
7E000000
7E000000
3F000000
3F000004
1F80001C
1FE0007C
0FF803FC
07FFFFFC
03FFFFFC
00FFFFF8
007FFFC0
0007FE00
ENDCHAR
STARTCHAR eacute
ENCODING 233
SWIDTH 602 0
DWIDTH 39 0
BBX 31 52 4 -1
BITMAP
00001FC0
00001F80
00003F00
00007E00
0000FC00
0000F800
0001F800
0003F000
0003E000
0007C000
000F8000
001F0000
00000000
00000000
00000000
000FF800
007FFE00
01FFFF80
03FFFFC0
07FFFFE0
0FF81FF0
1FE007F8
1F8001F8
3F0001FC
3F0000FC
7E0000FC
7E00007C
7C00007E
FC00007E
FC00007E
FFFFFFFE
FFFFFFFE
FFFFFFFE
FFFFFFFE
FFFFFFFE
FC000000
FC000000
FC000000
FC000000
7C000000
7E000000
7E000000
3F000000
3F000004
1F80001C
1FE0007C
0FF803FC
07FFFFFC
03FFFFFC
00FFFFF8
007FFFC0
0007FE00
ENDCHAR
STARTCHAR ecircumflex
ENCODING 234
SWIDTH 602 0
DWIDTH 39 0
BBX 31 52 4 -1
BITMAP
000FC000
000FC000
001FE000
003FF000
003FF000
007CF800
00787800
00F87C00
01F03E00
01E01E00
03C00F00
07C00F80
00000000
00000000
00000000
000FF800
007FFE00
01FFFF80
03FFFFC0
07FFFFE0
0FF81FF0
1FE007F8
1F8001F8
3F0001FC
3F0000FC
7E0000FC
7E00007C
7C00007E
FC00007E
FC00007E
FFFFFFFE
FFFFFFFE
FFFFFFFE
FFFFFFFE
FFFFFFFE
FC000000
FC000000
FC000000
FC000000
7C000000
7E000000
7E000000
3F000000
3F000004
1F80001C
1FE0007C
0FF803FC
07FFFFFC
03FFFFFC
00FFFFF8
007FFFC0
0007FE00
ENDCHAR
STARTCHAR edieresis
ENCODING 235
SWIDTH 602 0
DWIDTH 39 0
BBX 31 50 4 -1
BITMAP
03F03F00
03F03F00
03F03F00
03F03F00
03F03F00
03F03F00
00000000
00000000
00000000
00000000
00000000
00000000
00000000
000FF800
007FFE00
01FFFF80
03FFFFC0
07FFFFE0
0FF81FF0
1FE007F8
1F8001F8
3F0001FC
3F0000FC
7E0000FC
7E00007C
7C00007E
FC00007E
FC00007E
FFFFFFFE
FFFFFFFE
FFFFFFFE
FFFFFFFE
FFFFFFFE
FC000000
FC000000
FC000000
FC000000
7C000000
7E000000
7E000000
3F000000
3F000004
1F80001C
1FE0007C
0FF803FC
07FFFFFC
03FFFFFC
00FFFFF8
007FFFC0
0007FE00
ENDCHAR
STARTCHAR igrave
ENCODING 236
SWIDTH 602 0
DWIDTH 39 0
BBX 28 51 6 0
BITMAP
1FC00000
0FC00000
07E00000
03F00000
01F00000
00F80000
007C0000
007E0000
003E0000
001F0000
000F8000
0007C000
00000000
00000000
00000000
00000000
3FFF8000
3FFF8000
3FFF8000
3FFF8000
3FFF8000
001F8000
001F8000
001F8000
001F8000
001F8000
001F8000
001F8000
001F8000
001F8000
001F8000
001F8000
001F8000
001F8000
001F8000
001F8000
001F8000
001F8000
001F8000
001F8000
001F8000
001F8000
001F8000
001F8000
001F8000
001F8000
FFFFFFF0
FFFFFFF0
FFFFFFF0
FFFFFFF0
FFFFFFF0
ENDCHAR
STARTCHAR iacute
ENCODING 237
SWIDTH 602 0
DWIDTH 39 0
BBX 28 51 6 0
BITMAP
00007F00
00007E00
0000FC00
0001F800
0003F000
0003E000
0007E000
000FC000
000F8000
001F0000
003E0000
007C0000
00000000
00000000
00000000
00000000
3FFF8000
3FFF8000
3FFF8000
3FFF8000
3FFF8000
001F8000
001F8000
001F8000
001F8000
001F8000
001F8000
001F8000
001F8000
001F8000
001F8000
001F8000
001F8000
001F8000
001F8000
001F8000
001F8000
001F8000
001F8000
001F8000
001F8000
001F8000
001F8000
001F8000
001F8000
001F8000
FFFFFFF0
FFFFFFF0
FFFFFFF0
FFFFFFF0
FFFFFFF0
ENDCHAR
STARTCHAR icircumflex
ENCODING 238
SWIDTH 602 0
DWIDTH 39 0
BBX 28 51 6 0
BITMAP
003F0000
003F0000
007F8000
00FFC000
00FFC000
01F3E000
01E1E000
03E1F000
07C0F800
07807800
0F003C00
1F003E00
00000000
00000000
00000000
00000000
3FFF8000
3FFF8000
3FFF8000
3FFF8000
3FFF8000
001F8000
001F8000
001F8000
001F8000
001F8000
001F8000
001F8000
001F8000
001F8000
001F8000
001F8000
001F8000
001F8000
001F8000
001F8000
001F8000
001F8000
001F8000
001F8000
001F8000
001F8000
001F8000
001F8000
001F8000
001F8000
FFFFFFF0
FFFFFFF0
FFFFFFF0
FFFFFFF0
FFFFFFF0
ENDCHAR
STARTCHAR idieresis
ENCODING 239
SWIDTH 602 0
DWIDTH 39 0
BBX 28 49 6 0
BITMAP
0FC0FC00
0FC0FC00
0FC0FC00
0FC0FC00
0FC0FC00
0FC0FC00
00000000
00000000
00000000
00000000
00000000
00000000
00000000
00000000
3FFF8000
3FFF8000
3FFF8000
3FFF8000
3FFF8000
001F8000
001F8000
001F8000
001F8000
001F8000
001F8000
001F8000
001F8000
001F8000
001F8000
001F8000
001F8000
001F8000
001F8000
001F8000
001F8000
001F8000
001F8000
001F8000
001F8000
001F8000
001F8000
001F8000
001F8000
001F8000
FFFFFFF0
FFFFFFF0
FFFFFFF0
FFFFFFF0
FFFFFFF0
ENDCHAR
STARTCHAR eth
ENCODING 240
SWIDTH 602 0
DWIDTH 39 0
BBX 30 50 4 -1
BITMAP
0FF00000
07F80000
03FC0380
01FE0FC0
00FF7FC0
007FFF00
003FF800
00FFC000
07FFE000
1FFFF000
0FC7F800
0E03FC00
0003FC00
0001FE00
0000FF00
001FFF80
00FFFF80
03FFFFC0
07FFFFC0
0FFFFFE0
1FF00FE0
1FC007F0
3F8003F0
3F0003F8
7F0001F8
7E0001F8
7E0001F8
FE0001FC
FC0000FC
FC0000FC
FC0000FC
FC0000FC
FC0000FC
FC0000FC
FC0000FC
FC0000FC
FC0000FC
FC0001FC
7E0001F8
7E0001F8
7F0003F8
3F0003F0
3F8007F0
1FC00FE0
1FF03FE0
0FFFFFC0
07FFFF80
03FFFF00
00FFFC00
003FE000
ENDCHAR
STARTCHAR ntilde
ENCODING 241
SWIDTH 602 0
DWIDTH 39 0
BBX 27 50 6 0
BITMAP
01F00F00
07F80F00
07FC0F00
0FFE0F00
0F1F1E00
1F0FFE00
1E07FC00
1E03FC00
1E01F000
00000000
00000000
00000000
00000000
00000000
0007F000
FC3FFC00
FC7FFE00
FCFFFF00
FDFFFF80
FFE07FC0
FFC01FC0
FF000FC0
FF000FC0
FE000FE0
FE0007E0
FE0007E0
FC0007E0
FC0007E0
FC0007E0
FC0007E0
FC0007E0
FC0007E0
FC0007E0
FC0007E0
FC0007E0
FC0007E0
FC0007E0
FC0007E0
FC0007E0
FC0007E0
FC0007E0
FC0007E0
FC0007E0
FC0007E0
FC0007E0
FC0007E0
FC0007E0
FC0007E0
FC0007E0
FC0007E0
ENDCHAR
STARTCHAR ograve
ENCODING 242
SWIDTH 602 0
DWIDTH 39 0
BBX 30 52 4 -1
BITMAP
07F00000
03F00000
01F80000
00FC0000
007C0000
003E0000
001F0000
001F8000
000F8000
0007C000
0003E000
0001F000
00000000
00000000
00000000
001FE000
00FFFC00
03FFFF00
07FFFF80
0FFFFFC0
1FF03FE0
1FC00FE0
3F8007F0
3F0003F0
7F0003F8
7E0001F8
7E0001F8
FE0001F8
FC0000FC
FC0000FC
FC0000FC
FC0000FC
FC0000FC
FC0000FC
FC0000FC
FC0000FC
FC0000FC
FC0000FC
FC0000FC
FE0001F8
7E0001F8
7E0001F8
7F0003F8
3F0003F0
3F8007F0
1FC00FE0
1FF03FE0
0FFFFFC0
07FFFF80
03FFFF00
00FFFC00
003FE000
ENDCHAR
STARTCHAR oacute
ENCODING 243
SWIDTH 602 0
DWIDTH 39 0
BBX 30 52 4 -1
BITMAP
00001FC0
00001F80
00003F00
00007E00
0000FC00
0000F800
0001F800
0003F000
0003E000
0007C000
000F8000
001F0000
00000000
00000000
00000000
001FE000
00FFFC00
03FFFF00
07FFFF80
0FFFFFC0
1FF03FE0
1FC00FE0
3F8007F0
3F0003F0
7F0003F8
7E0001F8
7E0001F8
FE0001F8
FC0000FC
FC0000FC
FC0000FC
FC0000FC
FC0000FC
FC0000FC
FC0000FC
FC0000FC
FC0000FC
FC0000FC
FC0000FC
FE0001F8
7E0001F8
7E0001F8
7F0003F8
3F0003F0
3F8007F0
1FC00FE0
1FF03FE0
0FFFFFC0
07FFFF80
03FFFF00
00FFFC00
003FE000
ENDCHAR
STARTCHAR ocircumflex
ENCODING 244
SWIDTH 602 0
DWIDTH 39 0
BBX 30 52 4 -1
BITMAP
000FC000
000FC000
001FE000
003FF000
003FF000
007CF800
00787800
00F87C00
01F03E00
01E01E00
03C00F00
07C00F80
00000000
00000000
00000000
001FE000
00FFFC00
03FFFF00
07FFFF80
0FFFFFC0
1FF03FE0
1FC00FE0
3F8007F0
3F0003F0
7F0003F8
7E0001F8
7E0001F8
FE0001F8
FC0000FC
FC0000FC
FC0000FC
FC0000FC
FC0000FC
FC0000FC
FC0000FC
FC0000FC
FC0000FC
FC0000FC
FC0000FC
FE0001F8
7E0001F8
7E0001F8
7F0003F8
3F0003F0
3F8007F0
1FC00FE0
1FF03FE0
0FFFFFC0
07FFFF80
03FFFF00
00FFFC00
003FE000
ENDCHAR
STARTCHAR otilde
ENCODING 245
SWIDTH 602 0
DWIDTH 39 0
BBX 30 51 4 -1
BITMAP
007C03C0
01FE03C0
01FF03C0
03FF83C0
03C7C780
07C3FF80
0781FF00
0780FF00
07807C00
00000000
00000000
00000000
00000000
00000000
001FE000
00FFFC00
03FFFF00
07FFFF80
0FFFFFC0
1FF03FE0
1FC00FE0
3F8007F0
3F0003F0
7F0003F8
7E0001F8
7E0001F8
FE0001F8
FC0000FC
FC0000FC
FC0000FC
FC0000FC
FC0000FC
FC0000FC
FC0000FC
FC0000FC
FC0000FC
FC0000FC
FC0000FC
FE0001F8
7E0001F8
7E0001F8
7F0003F8
3F0003F0
3F8007F0
1FC00FE0
1FF03FE0
0FFFFFC0
07FFFF80
03FFFF00
00FFFC00
003FE000
ENDCHAR
STARTCHAR odieresis
ENCODING 246
SWIDTH 602 0
DWIDTH 39 0
BBX 30 50 4 -1
BITMAP
03F03F00
03F03F00
03F03F00
03F03F00
03F03F00
03F03F00
00000000
00000000
00000000
00000000
00000000
00000000
00000000
001FE000
00FFFC00
03FFFF00
07FFFF80
0FFFFFC0
1FF03FE0
1FC00FE0
3F8007F0
3F0003F0
7F0003F8
7E0001F8
7E0001F8
FE0001F8
FC0000FC
FC0000FC
FC0000FC
FC0000FC
FC0000FC
FC0000FC
FC0000FC
FC0000FC
FC0000FC
FC0000FC
FC0000FC
FE0001F8
7E0001F8
7E0001F8
7F0003F8
3F0003F0
3F8007F0
1FC00FE0
1FF03FE0
0FFFFFC0
07FFFF80
03FFFF00
00FFFC00
003FE000
ENDCHAR
STARTCHAR divide
ENCODING 247
SWIDTH 602 0
DWIDTH 39 0
BBX 34 31 2 4
BITMAP
0007F80000
0007F80000
0007F80000
0007F80000
0007F80000
0007F80000
0007F80000
0007F80000
0000000000
0000000000
0000000000
0000000000
0000000000
FFFFFFFFC0
FFFFFFFFC0
FFFFFFFFC0
FFFFFFFFC0
FFFFFFFFC0
0000000000
0000000000
0000000000
0000000000
0000000000
0007F80000
0007F80000
0007F80000
0007F80000
0007F80000
0007F80000
0007F80000
0007F80000
ENDCHAR
STARTCHAR oslash
ENCODING 248
SWIDTH 602 0
DWIDTH 39 0
BBX 34 41 2 -3
BITMAP
0000000100
0000000380
0007F807C0
003FFF07C0
00FFFFCF80
01FFFFFF00
03FFFFFE00
07FC0FFC00
07F003F800
0FE001FC00
0FC001FC00
1FC003FE00
1F8007FE00
1F800FFE00
3F800FFE00
3F001F3F00
3F003E3F00
3F007C3F00
3F00F83F00
3F01F03F00
3F01F03F00
3F03E03F00
3F07C03F00
3F0F803F00
3F1F003F00
3FBE003F00
1FBE007E00
1FFC007E00
1FF8007E00
1FF000FE00
0FE000FC00
0FE001FC00
0FF003F800
0FFC0FF800
1FFFFFF000
3FFFFFE000
7CFFFFC000
F83FFF0000
F007FC0000
E000000000
6000000000
ENDCHAR
STARTCHAR ugrave
ENCODING 249
SWIDTH 602 0
DWIDTH 39 0
BBX 27 52 6 -1
BITMAP
1FC00000
0FC00000
07E00000
03F00000
01F00000
00F80000
007C0000
007E0000
003E0000
001F0000
000F8000
0007C000
00000000
00000000
00000000
00000000
FC0007E0
FC0007E0
FC0007E0
FC0007E0
FC0007E0
FC0007E0
FC0007E0
FC0007E0
FC0007E0
FC0007E0
FC0007E0
FC0007E0
FC0007E0
FC0007E0
FC0007E0
FC0007E0
FC0007E0
FC0007E0
FC0007E0
FC0007E0
FC0007E0
FC0007E0
FC0007E0
FC0007E0
FC000FE0
FC000FE0
FE000FE0
7E001FE0
7E001FE0
7F003FE0
7FC0FFE0
3FFFF7E0
1FFFE7E0
1FFFC7E0
07FF87E0
01FC0000
ENDCHAR
STARTCHAR uacute
ENCODING 250
SWIDTH 602 0
DWIDTH 39 0
BBX 27 52 6 -1
BITMAP
00007F00
00007E00
0000FC00
0001F800
0003F000
0003E000
0007E000
000FC000
000F8000
001F0000
003E0000
007C0000
00000000
00000000
00000000
00000000
FC0007E0
FC0007E0
FC0007E0
FC0007E0
FC0007E0
FC0007E0
FC0007E0
FC0007E0
FC0007E0
FC0007E0
FC0007E0
FC0007E0
FC0007E0
FC0007E0
FC0007E0
FC0007E0
FC0007E0
FC0007E0
FC0007E0
FC0007E0
FC0007E0
FC0007E0
FC0007E0
FC0007E0
FC000FE0
FC000FE0
FE000FE0
7E001FE0
7E001FE0
7F003FE0
7FC0FFE0
3FFFF7E0
1FFFE7E0
1FFFC7E0
07FF87E0
01FC0000
ENDCHAR
STARTCHAR ucircumflex
ENCODING 251
SWIDTH 602 0
DWIDTH 39 0
BBX 27 52 6 -1
BITMAP
003F0000
003F0000
007F8000
00FFC000
00FFC000
01F3E000
01E1E000
03E1F000
07C0F800
07807800
0F003C00
1F003E00
00000000
00000000
00000000
00000000
FC0007E0
FC0007E0
FC0007E0
FC0007E0
FC0007E0
FC0007E0
FC0007E0
FC0007E0
FC0007E0
FC0007E0
FC0007E0
FC0007E0
FC0007E0
FC0007E0
FC0007E0
FC0007E0
FC0007E0
FC0007E0
FC0007E0
FC0007E0
FC0007E0
FC0007E0
FC0007E0
FC0007E0
FC000FE0
FC000FE0
FE000FE0
7E001FE0
7E001FE0
7F003FE0
7FC0FFE0
3FFFF7E0
1FFFE7E0
1FFFC7E0
07FF87E0
01FC0000
ENDCHAR
STARTCHAR udieresis
ENCODING 252
SWIDTH 602 0
DWIDTH 39 0
BBX 27 50 6 -1
BITMAP
0FC0FC00
0FC0FC00
0FC0FC00
0FC0FC00
0FC0FC00
0FC0FC00
00000000
00000000
00000000
00000000
00000000
00000000
00000000
00000000
FC0007E0
FC0007E0
FC0007E0
FC0007E0
FC0007E0
FC0007E0
FC0007E0
FC0007E0
FC0007E0
FC0007E0
FC0007E0
FC0007E0
FC0007E0
FC0007E0
FC0007E0
FC0007E0
FC0007E0
FC0007E0
FC0007E0
FC0007E0
FC0007E0
FC0007E0
FC0007E0
FC0007E0
FC000FE0
FC000FE0
FE000FE0
7E001FE0
7E001FE0
7F003FE0
7FC0FFE0
3FFFF7E0
1FFFE7E0
1FFFC7E0
07FF87E0
01FC0000
ENDCHAR
STARTCHAR yacute
ENCODING 253
SWIDTH 602 0
DWIDTH 39 0
BBX 33 64 3 -13
BITMAP
00000FE000
00000FC000
00001F8000
00003F0000
00007E0000
00007C0000
0000FC0000
0001F80000
0001F00000
0003E00000
0007C00000
000F800000
0000000000
0000000000
0000000000
0000000000
FE00003F80
7E00003F00
7F00003F00
7F00007F00
3F00007E00
3F8000FE00
1F8000FC00
1FC000FC00
1FC001FC00
0FC001F800
0FE003F800
07E003F800
07F003F000
03F007F000
03F007E000
03F807E000
01F80FE000
01FC0FC000
00FC1FC000
00FC1F8000
00FE1F8000
007E3F8000
007F3F0000
003F7F0000
003F7E0000
003FFE0000
001FFE0000
001FFC0000
000FFC0000
000FFC0000
000FF80000
0007F80000
0007F00000
0003F00000
0007F00000
0007E00000
000FE00000
000FE00000
000FC00000
001FC00000
001F800000
003F800000
00FF000000
1FFF000000
1FFE000000
1FFC000000
1FF8000000
1FE0000000
ENDCHAR
STARTCHAR thorn
ENCODING 254
SWIDTH 602 0
DWIDTH 39 0
BBX 30 62 6 -13
BITMAP
FC000000
FC000000
FC000000
FC000000
FC000000
FC000000
FC000000
FC000000
FC000000
FC000000
FC000000
FC000000
FC000000
FC0FF000
FC3FFC00
FCFFFF00
FDFFFF80
FDFFFFC0
FFF03FE0
FFC00FE0
FF8007F0
FF0003F0
FF0003F8
FE0001F8
FE0001F8
FE0001F8
FC0000FC
FC0000FC
FC0000FC
FC0000FC
FC0000FC
FC0000FC
FC0000FC
FC0000FC
FC0000FC
FC0000FC
FC0000FC
FE0001F8
FE0001F8
FE0001F8
FF0003F8
FF0003F0
FF8007F0
FFC00FE0
FFF03FE0
FDFFFFC0
FDFFFF80
FCFFFF00
FC3FFC00
FC0FF000
FC000000
FC000000
FC000000
FC000000
FC000000
FC000000
FC000000
FC000000
FC000000
FC000000
FC000000
FC000000
ENDCHAR
STARTCHAR ydieresis
ENCODING 255
SWIDTH 602 0
DWIDTH 39 0
BBX 33 62 3 -13
BITMAP
01F81F8000
01F81F8000
01F81F8000
01F81F8000
01F81F8000
01F81F8000
0000000000
0000000000
0000000000
0000000000
0000000000
0000000000
0000000000
0000000000
FE00003F80
7E00003F00
7F00003F00
7F00007F00
3F00007E00
3F8000FE00
1F8000FC00
1FC000FC00
1FC001FC00
0FC001F800
0FE003F800
07E003F800
07F003F000
03F007F000
03F007E000
03F807E000
01F80FE000
01FC0FC000
00FC1FC000
00FC1F8000
00FE1F8000
007E3F8000
007F3F0000
003F7F0000
003F7E0000
003FFE0000
001FFE0000
001FFC0000
000FFC0000
000FFC0000
000FF80000
0007F80000
0007F00000
0003F00000
0007F00000
0007E00000
000FE00000
000FE00000
000FC00000
001FC00000
001F800000
003F800000
00FF000000
1FFF000000
1FFE000000
1FFC000000
1FF8000000
1FE0000000
ENDCHAR
STARTCHAR .notdef
ENCODING -1
SWIDTH 602 0
DWIDTH 39 0
BBX 32 56 3 -11
BITMAP
FFFFFFFF
FFFFFFFF
FFFFFFFF
FFFFFFFF
F000000F
F000000F
F000000F
F000000F
F000000F
F000000F
F000000F
F000000F
F000000F
F000000F
F000000F
F000000F
F000000F
F000000F
F000000F
F000000F
F000000F
F000000F
F000000F
F000000F
F000000F
F000000F
F000000F
F000000F
F000000F
F000000F
F000000F
F000000F
F000000F
F000000F
F000000F
F000000F
F000000F
F000000F
F000000F
F000000F
F000000F
F000000F
F000000F
F000000F
F000000F
F000000F
F000000F
F000000F
F000000F
F000000F
F000000F
F000000F
FFFFFFFF
FFFFFFFF
FFFFFFFF
FFFFFFFF
ENDCHAR
STARTCHAR .null
ENCODING -1
SWIDTH 0 0
DWIDTH 0 0
BBX 1 1 0 0
BITMAP
00
ENDCHAR
STARTCHAR nonmarkingreturn
ENCODING -1
SWIDTH 602 0
DWIDTH 39 0
BBX 1 1 0 0
BITMAP
00
ENDCHAR
STARTCHAR dagger
ENCODING -1
SWIDTH 602 0
DWIDTH 39 0
BBX 28 53 6 -6
BITMAP
001F8000
001F8000
001F8000
001F8000
001F8000
001F8000
001F8000
001F8000
001F8000
001F8000
001F8000
001F8000
001F8000
FFFFFFF0
FFFFFFF0
FFFFFFF0
FFFFFFF0
FFFFFFF0
001F8000
001F8000
001F8000
001F8000
001F8000
001F8000
001F8000
001F8000
001F8000
001F8000
001F8000
001F8000
001F8000
001F8000
001F8000
001F8000
001F8000
001F8000
001F8000
001F8000
001F8000
001F8000
001F8000
001F8000
001F8000
001F8000
001F8000
001F8000
001F8000
001F8000
001F8000
001F8000
001F8000
001F8000
001F8000
ENDCHAR
STARTCHAR bullet
ENCODING -1
SWIDTH 602 0
DWIDTH 39 0
BBX 19 19 10 14
BITMAP
03F800
0FFE00
1FFF00
3FFF80
7FFFC0
7FFFC0
FFFFE0
FFFFE0
FFFFE0
FFFFE0
FFFFE0
FFFFE0
FFFFE0
7FFFC0
7FFFC0
3FFF80
1FFF00
0FFE00
03F800
ENDCHAR
STARTCHAR trademark
ENCODING -1
SWIDTH 602 0
DWIDTH 39 0
BBX 35 18 0 29
BITMAP
FFF8F803E0
FFF8FC07E0
FFF8FC07E0
0700FE0FE0
0700EF1EE0
0700E71CE0
0700E7BCE0
0700E3B8E0
0700E1F8E0
0700E1F0E0
0700E0F0E0
0700E0E0E0
0700E000E0
0700E000E0
0700E000E0
0700E000E0
0700E000E0
0700E000E0
ENDCHAR
STARTCHAR notequal
ENCODING -1
SWIDTH 602 0
DWIDTH 39 0
BBX 33 37 3 1
BITMAP
0000001000
0000001C00
0000003E00
0000007F00
000000FE00
000000FC00
000001F800
000003F800
000007F000
000007E000
FFFFFFFF80
FFFFFFFF80
FFFFFFFF80
FFFFFFFF80
FFFFFFFF80
0000FC0000
0001F80000
0003F80000
0007F00000
000FE00000
000FC00000
001F800000
FFFFFFFF80
FFFFFFFF80
FFFFFFFF80
FFFFFFFF80
FFFFFFFF80
03F0000000
07F0000000
0FE0000000
0FC0000000
1F80000000
3F80000000
7F00000000
3E00000000
1C00000000
0800000000
ENDCHAR
STARTCHAR infinity
ENCODING -1
SWIDTH 602 0
DWIDTH 39 0
BBX 36 24 1 8
BITMAP
03F000FC00
0FFC03FE00
1FFE07FF00
3FFF0FFF80
3FFF0FFFC0
7E1F9F87E0
7C0F9F03E0
F807FE01E0
F803FC01F0
F003FC00F0
F001F800F0
F001F800F0
F001F800F0
F001F800F0
F003FC00F0
F003FC01F0
7807FE01E0
7C0F9F03E0
7E1F9F87E0
3FFF0FFFC0
1FFE07FFC0
1FFE07FF80
0FFC01FF00
03F000FC00
ENDCHAR
STARTCHAR lessequal
ENCODING -1
SWIDTH 602 0
DWIDTH 39 0
BBX 33 34 3 0
BITMAP
0000000180
0000000F80
0000007F80
000003FF80
00001FFF80
0001FFFF80
000FFFFC00
007FFFE000
03FFFF0000
1FFFF00000
FFFF800000
FFF8000000
FFC0000000
FFC0000000
FFF8000000
FFFF800000
1FFFF00000
03FFFE0000
007FFFE000
000FFFFC00
0001FFFF80
00001FFF80
000003FF80
0000007F80
0000000F80
0000000180
0000000000
0000000000
0000000000
FFFFFFFF80
FFFFFFFF80
FFFFFFFF80
FFFFFFFF80
FFFFFFFF80
ENDCHAR
STARTCHAR greaterequal
ENCODING -1
SWIDTH 602 0
DWIDTH 39 0
BBX 33 34 3 0
BITMAP
C000000000
F800000000
FF00000000
FFE0000000
FFFC000000
FFFFC00000
1FFFF80000
03FFFF0000
007FFFE000
0007FFFC00
0000FFFF80
00000FFF80
000001FF80
000001FF80
00000FFF80
0000FFFF80
0007FFFC00
003FFFE000
03FFFF0000
1FFFF80000
FFFF800000
FFFC000000
FFE0000000
FF00000000
F800000000
C000000000
0000000000
0000000000
0000000000
FFFFFFFF80
FFFFFFFF80
FFFFFFFF80
FFFFFFFF80
FFFFFFFF80
ENDCHAR
STARTCHAR partialdiff
ENCODING -1
SWIDTH 602 0
DWIDTH 39 0
BBX 27 41 6 0
BITMAP
001FC000
007FF000
00FFFC00
01FFFE00
01FE1E00
01F80F00
01F00780
00400780
000007C0
000007C0
000007C0
000007C0
000007E0
000007E0
000007E0
000007E0
007F07E0
03FFC7E0
07F0E7E0
0FC077E0
1F8037E0
3F003FE0
3F001FE0
7E001FE0
7E001FC0
FE001FC0
FE001FC0
FC001FC0
FC001F80
FC001F80
FC003F80
FC003F00
FC003F00
7C003E00
7C007C00
7C007C00
3E00F800
1F01F000
0F87E000
07FF8000
00FE0000
ENDCHAR
STARTCHAR summation
ENCODING -1
SWIDTH 602 0
DWIDTH 39 0
BBX 29 61 4 -14
BITMAP
FFFFFFF0
FFFFFFF0
FFFFFFF0
FFFFFFF0
7C000000
3E000000
3E000000
1F000000
0F800000
0F800000
07C00000
03E00000
03E00000
01F00000
01F80000
00F80000
007C0000
007C0000
003E0000
001F0000
001F0000
000F8000
0007C000
0007C000
0003E000
0001F000
0001F000
0000F800
00007C00
00007C00
0000F800
0001F800
0001F000
0003E000
0003E000
0007C000
0007C000
000F8000
001F0000
001F0000
003E0000
003E0000
007C0000
00FC0000
00F80000
01F00000
01F00000
03E00000
03E00000
07C00000
0FC00000
0F800000
1F000000
1F000000
3E000000
7E000000
7C000000
FFFFFFF8
FFFFFFF8
FFFFFFF8
FFFFFFF8
ENDCHAR
STARTCHAR product
ENCODING -1
SWIDTH 602 0
DWIDTH 39 0
BBX 29 61 5 -14
BITMAP
FFFFFFF8
FFFFFFF8
FFFFFFF8
FFFFFFF8
F80000F8
F80000F8
F80000F8
F80000F8
F80000F8
F80000F8
F80000F8
F80000F8
F80000F8
F80000F8
F80000F8
F80000F8
F80000F8
F80000F8
F80000F8
F80000F8
F80000F8
F80000F8
F80000F8
F80000F8
F80000F8
F80000F8
F80000F8
F80000F8
F80000F8
F80000F8
F80000F8
F80000F8
F80000F8
F80000F8
F80000F8
F80000F8
F80000F8
F80000F8
F80000F8
F80000F8
F80000F8
F80000F8
F80000F8
F80000F8
F80000F8
F80000F8
F80000F8
F80000F8
F80000F8
F80000F8
F80000F8
F80000F8
F80000F8
F80000F8
F80000F8
F80000F8
F80000F8
F80000F8
F80000F8
F80000F8
F80000F8
ENDCHAR
STARTCHAR pi
ENCODING -1
SWIDTH 602 0
DWIDTH 39 0
BBX 34 34 3 0
BITMAP
FFFFFFFF80
FFFFFFFF80
FFFFFFFF80
FFFFFFFF80
FFFFFFFF80
0FC001F800
0FC001F800
0FC001F800
0FC001F800
0FC001F800
0FC001F800
0FC001F800
0FC001F800
0FC001F800
0FC001F800
0FC001F800
0FC001F800
0FC001F800
0FC001F800
0FC001F800
0FC001F800
0FC001F800
0FC001F800
0FC001F800
0FC001F800
0FC001F800
0FC001F800
0FC001F800
0FC001FC00
0FC001FFC0
0FC000FFC0
0FC000FFC0
0FC0007FC0
0FC0003FC0
ENDCHAR
STARTCHAR integral
ENCODING -1
SWIDTH 602 0
DWIDTH 39 0
BBX 30 60 4 -11
BITMAP
000007E0
00001FF8
00003FF8
00007BFC
000071FC
0000F1FC
0001F1F8
0001E0F0
0001E000
0003E000
0003E000
0003E000
0003E000
0007E000
0007E000
0007E000
0007C000
0007C000
0007C000
0007C000
000FC000
000FC000
000FC000
000FC000
000FC000
000FC000
000FC000
000FC000
000FC000
000FC000
000FC000
000FC000
000FC000
000FC000
000FC000
000FC000
000FC000
000FC000
000FC000
000FC000
000F8000
000F8000
000F8000
000F8000
000F8000
001F8000
001F8000
001F0000
001F0000
001F0000
001F0000
001E0000
3C1E0000
7E3E0000
FE3C0000
FE380000
FF780000
FFF00000
7FE00000
1F800000
ENDCHAR
STARTCHAR Omega
ENCODING -1
SWIDTH 602 0
DWIDTH 39 0
BBX 33 45 3 0
BITMAP
000FF80000
003FFE0000
00FFFF8000
01FFFFC000
03FFFFE000
07F80FF000
0FE003F800
1FC001FC00
1F8000FC00
3F8000FE00
3F00007E00
7F00007F00
7E00003F00
7E00003F00
7E00003F00
FC00001F80
FC00001F80
FC00001F80
FC00001F80
FC00001F80
FC00001F80
FC00001F80
FC00001F80
FC00001F80
FC00001F80
FC00001F80
FC00001F80
7E00003F00
7E00003F00
7E00003F00
7E00003F00
3F00007E00
3F00007E00
1F8000FC00
1F8000FC00
0FC001F800
0FC001F800
07E003F000
03F007E000
01F80FC000
FFFC1FFF80
FFFC1FFF80
FFFC1FFF80
FFFC1FFF80
FFFC1FFF80
ENDCHAR
STARTCHAR radical
ENCODING -1
SWIDTH 602 0
DWIDTH 39 0
BBX 35 54 2 -1
BITMAP
00000003E0
00000003E0
00000003E0
00000007E0
0000000780
0000000780
0000000F80
0000000F00
0000000F00
0000001F00
0000001E00
0000001E00
0000003E00
0000003E00
0000003C00
0000007C00
0000007C00
0000007800
000000F800
000000F800
000000F000
000000F000
000001F000
008001E000
078001E000
3FC003E000
FFC003C000
FFC003C000
7FE007C000
63E0078000
01E0078000
01E00F8000
01F00F8000
00F00F0000
00F01F0000
00F81F0000
00F81E0000
00783E0000
007C3E0000
007C3C0000
003C7C0000
003C7C0000
003E780000
001E780000
001EF80000
001FF00000
001FF00000
000FF00000
000FE00000
000FE00000
0007E00000
0007E00000
0007C00000
0003C00000
ENDCHAR
STARTCHAR florin
ENCODING -1
SWIDTH 602 0
DWIDTH 39 0
BBX 38 62 0 -13
BITMAP
0000000FF0
0000003FFC
0000007FFC
000001FFFC
000001FFFC
000003FC0C
000007F000
000007E000
000007E000
00000FE000
00000FC000
00000FC000
00000FC000
00000FC000
00001FC000
00001F8000
00001F8000
00001F8000
00001F8000
00001F8000
00001F8000
00003F8000
003FFFFFC0
003FFFFFC0
003FFFFFC0
003FFFFFC0
003FFFFFC0
00003F0000
00007E0000
00007E0000
00007E0000
00007E0000
00007E0000
00007E0000
0000FC0000
0000FC0000
0000FC0000
0000FC0000
0000FC0000
0001FC0000
0001F80000
0001F80000
0001F80000
0001F80000
0001F80000
0003F80000
0003F00000
0003F00000
0003F00000
0003F00000
0007F00000
0007E00000
0007E00000
000FE00000
000FC00000
001FC00000
C07F800000
FFFF800000
FFFF000000
FFFE000000
FFF8000000
3FE0000000
ENDCHAR
STARTCHAR approxequal
ENCODING -1
SWIDTH 602 0
DWIDTH 39 0
BBX 33 20 3 10
BITMAP
03F8000080
1FFF000180
3FFFC00380
FFFFF81F80
FFFFFFFF80
FC07FFFF80
E001FFFE00
C0003FFC00
80000FE000
0000000000
0000000000
03F8000080
1FFF000180
3FFFC00380
FFFFF81F80
FFFFFFFF80
FC07FFFF80
E001FFFE00
C0003FFC00
80000FE000
ENDCHAR
STARTCHAR Delta
ENCODING -1
SWIDTH 602 0
DWIDTH 39 0
BBX 39 44 0 0
BITMAP
0000FE0000
0000FE0000
0001FF0000
0001FF0000
0003FF0000
0003FF8000
0003EF8000
0007EF8000
0007CFC000
0007C7C000
000FC7E000
000F87E000
000F83E000
001F83F000
001F03F000
003F01F000
003F01F800
003E01F800
007E00FC00
007E00FC00
007C00FC00
00FC007E00
00FC007E00
01F8007E00
01F8003F00
01F8003F00
03F0003F80
03F0001F80
03F0001F80
07E0000FC0
07E0000FC0
07E0000FC0
0FC00007E0
0FC00007E0
1FC00007E0
1F800003F0
1F800003F0
3F800003F8
3F000001F8
3FFFFFFFF8
7FFFFFFFFC
7FFFFFFFFC
7FFFFFFFFC
FFFFFFFFFE
ENDCHAR
STARTCHAR ellipsis
ENCODING -1
SWIDTH 602 0
DWIDTH 39 0
BBX 34 10 3 0
BITMAP
FF07F83FC0
FF07F83FC0
FF07F83FC0
FF07F83FC0
FF07F83FC0
FF07F83FC0
FF07F83FC0
FF07F83FC0
FF07F83FC0
FF07F83FC0
ENDCHAR
STARTCHAR OE
ENCODING -1
SWIDTH 602 0
DWIDTH 39 0
BBX 36 47 2 0
BITMAP
000FFFFFF0
00FFFFFFF0
01FFFFFFF0
07FFFFFFF0
0FFFFFFFF0
0FF03F0000
1FC03F0000
3F803F0000
3F003F0000
3F003F0000
7E003F0000
7E003F0000
7E003F0000
7E003F0000
7E003F0000
FC003F0000
FC003F0000
FC003F0000
FC003F0000
FC003FFFE0
FC003FFFE0
FC003FFFE0
FC003FFFE0
FC003FFFE0
FC003F0000
FC003F0000
FC003F0000
FC003F0000
FC003F0000
FC003F0000
FC003F0000
FC003F0000
7C003F0000
7E003F0000
7E003F0000
7E003F0000
7E003F0000
3F003F0000
3F003F0000
3F803F0000
1FC03F0000
0FF03F0000
0FFFFFFFF0
07FFFFFFF0
01FFFFFFF0
00FFFFFFF0
001FFFFFF0
ENDCHAR
STARTCHAR oe
ENCODING -1
SWIDTH 602 0
DWIDTH 39 0
BBX 37 37 0 -1
BITMAP
00FE00FE00
07FF83FF80
0FFFC7FFC0
1FFFEFFFE0
1FFFFFFFE0
3F87FF87F0
3E01FF03F0
7C00FE01F0
7C00FE01F0
7C00FC00F8
7800FC00F8
F8007C00F8
F8007C00F8
F8007C00F8
F8007C00F8
F8007FFFF8
F8007FFFF8
F8007FFFF8
F8007FFFF8
F8007FFFF8
F8007C0000
F8007C0000
F8007C0000
F8007C0000
F8007C0000
F8007C0000
7C00FC0000
7C00FC0000
7C00FE0000
7C00FE0010
3E01FF0030
3F87FFC0F0
1FFFFFFFF0
1FFFEFFFF0
0FFFC7FFE0
07FF83FFC0
01FC007F00
ENDCHAR
STARTCHAR endash
ENCODING -1
SWIDTH 602 0
DWIDTH 39 0
BBX 39 5 0 15
BITMAP
FFFFFFFFFE
FFFFFFFFFE
FFFFFFFFFE
FFFFFFFFFE
FFFFFFFFFE
ENDCHAR
STARTCHAR emdash
ENCODING -1
SWIDTH 602 0
DWIDTH 39 0
BBX 39 5 0 15
BITMAP
FFFFFFFFFE
FFFFFFFFFE
FFFFFFFFFE
FFFFFFFFFE
FFFFFFFFFE
ENDCHAR
STARTCHAR quotedblleft
ENCODING -1
SWIDTH 602 0
DWIDTH 39 0
BBX 25 18 7 31
BITMAP
03E00F80
07E01F80
07C01F00
0FC03F00
0FC03F00
1FC07F00
1F807E00
3F80FE00
3F80FE00
7F81FE00
7F01FC00
FF03FC00
FF03FC00
FF03FC00
FF03FC00
FF03FC00
FF03FC00
FF03FC00
ENDCHAR
STARTCHAR quotedblright
ENCODING -1
SWIDTH 602 0
DWIDTH 39 0
BBX 25 18 7 31
BITMAP
1FE07F80
1FE07F80
1FE07F80
1FE07F80
1FE07F80
1FE07F80
1FE07F80
1FC07F00
3FC0FF00
3F80FE00
3F80FE00
3F00FC00
7F01FC00
7E01F800
7E01F800
7C01F000
FC03F000
F803E000
ENDCHAR
STARTCHAR quoteleft
ENCODING -1
SWIDTH 602 0
DWIDTH 39 0
BBX 11 18 14 31
BITMAP
03E0
07E0
07C0
0FC0
0FC0
1FC0
1F80
3F80
3F80
7F80
7F00
FF00
FF00
FF00
FF00
FF00
FF00
FF00
ENDCHAR
STARTCHAR quoteright
ENCODING -1
SWIDTH 602 0
DWIDTH 39 0
BBX 11 18 15 31
BITMAP
1FE0
1FE0
1FE0
1FE0
1FE0
1FE0
1FE0
1FC0
3FC0
3F80
3F80
3F00
7F00
7E00
7E00
7C00
FC00
F800
ENDCHAR
STARTCHAR lozenge
ENCODING -1
SWIDTH 602 0
DWIDTH 39 0
BBX 31 67 4 -15
BITMAP
00010000
00010000
00038000
00038000
0007C000
0007C000
000FE000
000FE000
000EE000
001EF000
001C7000
003C7800
00383800
00783C00
00701C00
00F01E00
00E00E00
01E00F00
01C00700
03C00780
03C00780
07800380
078003C0
070001C0
0F0001E0
0E0000E0
1E0000F0
1C000070
3C000078
38000038
7800003C
7000001C
F000001E
F000001E
7000001C
7800003C
7800003C
38000038
3C000078
1C000070
1E0000F0
0E0000E0
0F0001E0
070001C0
078003C0
03800380
03C00780
03C00700
01E00F00
01E00F00
00E00E00
00F01E00
00701C00
00783C00
00383800
003C7800
001C7000
001EF000
000EE000
000FE000
000FC000
0007C000
0007C000
00038000
00038000
00010000
00010000
ENDCHAR
STARTCHAR Ydieresis
ENCODING -1
SWIDTH 602 0
DWIDTH 39 0
BBX 36 58 1 0
BITMAP
007E07E000
007E07E000
007E07E000
007E07E000
007E07E000
007E07E000
0000000000
0000000000
0000000000
0000000000
0000000000
FE000007F0
7F00000FE0
7F00000FE0
3F80001FC0
1FC0003F80
1FC0003F80
0FE0007F00
0FE0007F00
07F000FE00
03F000FE00
03F801FC00
01FC03F800
01FC03F800
00FE07F000
00FE07F000
007F0FE000
003F8FC000
003F9FC000
001FFF8000
001FFF8000
000FFF0000
000FFF0000
0007FE0000
0003FC0000
0003FC0000
0001F80000
0001F80000
0001F80000
0001F80000
0001F80000
0001F80000
0001F80000
0001F80000
0001F80000
0001F80000
0001F80000
0001F80000
0001F80000
0001F80000
0001F80000
0001F80000
0001F80000
0001F80000
0001F80000
0001F80000
0001F80000
0001F80000
ENDCHAR
STARTCHAR fraction
ENCODING -1
SWIDTH 602 0
DWIDTH 39 0
BBX 31 53 3 -6
BITMAP
0000007E
000000FC
000000FC
000001F8
000001F8
000003F0
000003F0
000007E0
000007E0
000007E0
00000FC0
00000FC0
00001F80
00001F80
00003F00
00003F00
00007E00
00007E00
0000FC00
0000FC00
0001F800
0001F800
0003F000
0003F000
0007E000
0007E000
000FE000
000FC000
000FC000
001F8000
001F8000
003F0000
003F0000
007E0000
007E0000
00FC0000
00FC0000
01F80000
01F80000
03F00000
03F00000
07E00000
07E00000
0FC00000
0FC00000
0FC00000
1F800000
1F800000
3F000000
3F000000
7E000000
7E000000
FC000000
ENDCHAR
STARTCHAR guilsinglleft
ENCODING -1
SWIDTH 602 0
DWIDTH 39 0
BBX 15 29 11 4
BITMAP
0002
0006
000E
001E
003E
007E
00FC
03F8
07F0
0FE0
1FC0
3F80
7F00
FE00
F800
FE00
7F00
3F80
1FC0
0FE0
07F0
03F8
00FC
007E
003E
001E
000E
0006
0002
ENDCHAR
STARTCHAR guilsinglright
ENCODING -1
SWIDTH 602 0
DWIDTH 39 0
BBX 15 29 13 4
BITMAP
8000
C000
E000
F000
F800
FC00
7E00
3F80
1FC0
0FE0
07F0
03F8
01FC
00FE
003E
00FE
01FC
03F8
07F0
0FE0
1FC0
3F80
7E00
FC00
F800
F000
E000
C000
8000
ENDCHAR
STARTCHAR fi
ENCODING -1
SWIDTH 602 0
DWIDTH 39 0
BBX 32 49 1 0
BITMAP
0007FE3F
003FFE3F
007FFE3F
00FFFE3F
01FFFE3F
01FC003F
01F8003F
03F00000
03F00000
03F00000
03F00000
03F00000
03F00000
03F00000
FFFFFFFF
FFFFFFFF
FFFFFFFF
FFFFFFFF
FFFFFFFF
03F0003F
03F0003F
03F0003F
03F0003F
03F0003F
03F0003F
03F0003F
03F0003F
03F0003F
03F0003F
03F0003F
03F0003F
03F0003F
03F0003F
03F0003F
03F0003F
03F0003F
03F0003F
03F0003F
03F0003F
03F0003F
03F0003F
03F0003F
03F0003F
03F0003F
03F0003F
03F0003F
03F0003F
03F0003F
03F0003F
ENDCHAR
STARTCHAR fl
ENCODING -1
SWIDTH 602 0
DWIDTH 39 0
BBX 32 49 1 0
BITMAP
0007FFFF
003FFFFF
007FFFFF
00FFFFFF
01FFFFFF
01FC003F
01F8003F
03F8003F
03F0003F
03F0003F
03F0003F
03F0003F
03F0003F
03F0003F
FFFFF83F
FFFFF83F
FFFFF83F
FFFFF83F
FFFFF83F
03F0003F
03F0003F
03F0003F
03F0003F
03F0003F
03F0003F
03F0003F
03F0003F
03F0003F
03F0003F
03F0003F
03F0003F
03F0003F
03F0003F
03F0003F
03F0003F
03F0003F
03F0003F
03F0003F
03F0003F
03F0003F
03F0003F
03F0003F
03F0003F
03F0003F
03F0003F
03F0003F
03F0003F
03F0003F
03F0003F
ENDCHAR
STARTCHAR daggerdbl
ENCODING -1
SWIDTH 602 0
DWIDTH 39 0
BBX 28 53 6 -6
BITMAP
001F8000
001F8000
001F8000
001F8000
001F8000
001F8000
001F8000
001F8000
001F8000
001F8000
001F8000
001F8000
001F8000
FFFFFFF0
FFFFFFF0
FFFFFFF0
FFFFFFF0
FFFFFFF0
001F8000
001F8000
001F8000
001F8000
001F8000
001F8000
001F8000
001F8000
001F8000
001F8000
001F8000
001F8000
001F8000
001F8000
001F8000
001F8000
001F8000
FFFFFFF0
FFFFFFF0
FFFFFFF0
FFFFFFF0
FFFFFFF0
001F8000
001F8000
001F8000
001F8000
001F8000
001F8000
001F8000
001F8000
001F8000
001F8000
001F8000
001F8000
001F8000
ENDCHAR
STARTCHAR quotesinglbase
ENCODING -1
SWIDTH 602 0
DWIDTH 39 0
BBX 11 18 13 -8
BITMAP
1FE0
1FE0
1FE0
1FE0
1FE0
1FE0
1FE0
1FC0
3FC0
3F80
3F80
3F00
7F00
7E00
7E00
7C00
FC00
F800
ENDCHAR
STARTCHAR quotedblbase
ENCODING -1
SWIDTH 602 0
DWIDTH 39 0
BBX 25 18 7 -8
BITMAP
1FE07F80
1FE07F80
1FE07F80
1FE07F80
1FE07F80
1FE07F80
1FE07F80
1FC07F00
3FC0FF00
3F80FE00
3F80FE00
3F00FC00
7F01FC00
7E01F800
7E01F800
7C01F000
FC03F000
F803E000
ENDCHAR
STARTCHAR perthousand
ENCODING -1
SWIDTH 602 0
DWIDTH 39 0
BBX 39 45 0 0
BITMAP
03F0000000
0FFC000000
1FFE000000
3FFF000000
7E1F800000
780F800000
F807C00000
F003C00000
F003C00000
F003C00000
F003C00000
F807C00040
78078003E0
7E1F800FE0
3FFF007FC0
1FFE01FE00
0FFC0FF800
03F03FC000
0001FF0000
0007F80000
003FE00000
01FF000000
07FC000000
3FE0000000
7F80000000
7C00000000
3000000000
01F8001F80
07FE007FE0
0FFF00FFF0
1FFF81FFF8
3F0FC3F0FC
3C03C3C03C
7C03E7C03E
7801E7801E
7801E7801E
7801E7801E
7801E7801E
7C03E7C03E
3C03C3C03C
3F0FC3F0FC
1FFF81FFF8
0FFF00FFF0
07FE007FE0
01F8001F80
ENDCHAR
STARTCHAR dotlessi
ENCODING -1
SWIDTH 602 0
DWIDTH 39 0
BBX 28 35 6 0
BITMAP
3FFF8000
3FFF8000
3FFF8000
3FFF8000
3FFF8000
001F8000
001F8000
001F8000
001F8000
001F8000
001F8000
001F8000
001F8000
001F8000
001F8000
001F8000
001F8000
001F8000
001F8000
001F8000
001F8000
001F8000
001F8000
001F8000
001F8000
001F8000
001F8000
001F8000
001F8000
001F8000
FFFFFFF0
FFFFFFF0
FFFFFFF0
FFFFFFF0
FFFFFFF0
ENDCHAR
STARTCHAR circumflex
ENCODING -1
SWIDTH 602 0
DWIDTH 39 0
BBX 20 12 9 39
BITMAP
01F800
01F800
03FC00
07FE00
07FE00
0F9F00
0F0F00
1F0F80
3E07C0
3C03C0
7801E0
F801F0
ENDCHAR
STARTCHAR tilde
ENCODING -1
SWIDTH 602 0
DWIDTH 39 0
BBX 21 9 9 41
BITMAP
0F8078
3FC078
3FE078
7FF078
78F8F0
F87FF0
F03FE0
F01FE0
F00F80
ENDCHAR
STARTCHAR breve
ENCODING -1
SWIDTH 602 0
DWIDTH 39 0
BBX 20 9 9 42
BITMAP
F000F0
F000F0
F801F0
7C03E0
7E07E0
3FFFC0
1FFF80
0FFF00
03FC00
ENDCHAR
STARTCHAR dotaccent
ENCODING -1
SWIDTH 602 0
DWIDTH 39 0
BBX 6 6 16 43
BITMAP
FC
FC
FC
FC
FC
FC
ENDCHAR
STARTCHAR ring
ENCODING -1
SWIDTH 602 0
DWIDTH 39 0
BBX 17 17 11 39
BITMAP
03E000
0FF800
3FFE00
3FFE00
7C1F00
F80F00
F00780
F00780
F00780
F00780
F00780
F80F00
7C1F00
3FFE00
3FFE00
0FF800
03F000
ENDCHAR
STARTCHAR hungarumlaut
ENCODING -1
SWIDTH 602 0
DWIDTH 39 0
BBX 22 12 11 39
BITMAP
03E0FC
07C1F8
07C1F0
0F83F0
0F03E0
1F07C0
1E07C0
3E0F80
3C0F80
7C1F00
781E00
F03E00
ENDCHAR
STARTCHAR ogonek
ENCODING -1
SWIDTH 602 0
DWIDTH 39 0
BBX 12 12 13 -12
BITMAP
1E00
3C00
7800
7800
F000
F000
F000
F810
FFF0
7FF0
3FF0
1FE0
ENDCHAR
STARTCHAR caron
ENCODING -1
SWIDTH 602 0
DWIDTH 39 0
BBX 20 12 9 39
BITMAP
F801F0
7801E0
3C03C0
3E07C0
1F0F80
0F0F00
0F9F00
07FE00
07FE00
03FC00
01F800
01F800
ENDCHAR
STARTCHAR Lslash
ENCODING -1
SWIDTH 602 0
DWIDTH 39 0
BBX 36 47 0 0
BITMAP
01F8000000
01F8000000
01F8000000
01F8000000
01F8000000
01F8000000
01F8000000
01F8000000
01F8000000
01F8000000
01F8000000
01F8000000
01F8000000
01F8030000
01F80F0000
01F81F8000
01F87F8000
01F8FF0000
01F9FC0000
01FFF80000
01FFE00000
01FFC00000
01FF000000
01FE000000
03F8000000
07F8000000
0FF8000000
3FF8000000
7FF8000000
FFF8000000
79F8000000
71F8000000
01F8000000
01F8000000
01F8000000
01F8000000
01F8000000
01F8000000
01F8000000
01F8000000
01F8000000
01F8000000
01FFFFFFF0
01FFFFFFF0
01FFFFFFF0
01FFFFFFF0
01FFFFFFF0
ENDCHAR
STARTCHAR lslash
ENCODING -1
SWIDTH 602 0
DWIDTH 39 0
BBX 30 49 2 0
BITMAP
1FFFC000
1FFFC000
1FFFC000
1FFFC000
1FFFC000
000FC000
000FC000
000FC000
000FC000
000FC000
000FC000
000FC000
000FC030
000FC078
000FC1FC
000FC3F8
000FC7F0
000FDFC0
000FFF80
000FFF00
000FFC00
000FF800
000FE000
003FC000
007FC000
01FFC000
03FFC000
0FFFC000
1FCFC000
3F8FC000
FE0FC000
7C0FC000
380FC000
000FC000
000FC000
000FC000
000FC000
000FC000
000FC000
000FC000
000FE000
0007E000
0007F000
0007F800
0003FFFC
0001FFFC
0000FFFC
00007FFC
00001FFC
ENDCHAR
STARTCHAR Scaron
ENCODING -1
SWIDTH 602 0
DWIDTH 39 0
BBX 30 60 4 -1
BITMAP
03E00F80
01F01F00
00F83E00
007C7C00
003EF800
001FF800
001FF000
000FE000
00000000
00000000
00000000
001FF800
00FFFF80
03FFFFE0
0FFFFFE0
1FFFFFE0
1FF00FE0
3F8000E0
7F000020
7E000000
7E000000
FC000000
FC000000
FC000000
FC000000
FC000000
FC000000
FE000000
FE000000
7F000000
7FC00000
3FF80000
3FFF8000
1FFFF800
07FFFE00
03FFFF80
007FFFC0
000FFFE0
0000FFF0
00000FF0
000007F8
000003F8
000001FC
000000FC
000000FC
000000FC
000000FC
000000FC
000000FC
000000FC
000001F8
400001F8
700003F8
7C000FF0
7FC03FF0
7FFFFFE0
7FFFFFC0
3FFFFF00
07FFFE00
007FE000
ENDCHAR
STARTCHAR scaron
ENCODING -1
SWIDTH 602 0
DWIDTH 39 0
BBX 25 52 7 -1
BITMAP
3E007C00
1E007800
0F00F000
0F81F000
07C3E000
03C3C000
03E7C000
01FF8000
01FF8000
00FF0000
007E0000
007E0000
00000000
00000000
00000000
00FFC000
07FFFC00
0FFFFE00
1FFFFE00
3FFFFE00
7FC07E00
7F000E00
FE000200
FC000000
FC000000
FC000000
FC000000
FE000000
FF000000
7FE00000
7FFE0000
3FFFE000
1FFFF800
0FFFFC00
03FFFE00
003FFF00
0003FF00
0000FF80
00003F80
00001F80
00001F80
00001F80
00001F80
00001F80
80003F80
F0007F00
FE01FF00
FFFFFE00
FFFFFC00
FFFFF800
3FFFE000
03FF0000
ENDCHAR
STARTCHAR Zcaron
ENCODING -1
SWIDTH 602 0
DWIDTH 39 0
BBX 32 59 5 0
BITMAP
07C01F00
03E03E00
01F07C00
00F8F800
007DF000
003FF000
003FE000
001FC000
00000000
00000000
00000000
00000000
7FFFFFFE
7FFFFFFE
7FFFFFFE
7FFFFFFE
7FFFFFFE
000001FE
000001FC
000003F8
000003F8
000007F0
00000FE0
00000FE0
00001FC0
00003F80
00003F80
00007F00
0000FF00
0000FE00
0001FC00
0003FC00
0003F800
0007F000
0007F000
000FE000
001FC000
001FC000
003F8000
007F8000
007F0000
00FE0000
01FE0000
01FC0000
03F80000
03F80000
07F00000
0FE00000
0FE00000
1FC00000
3F800000
3F800000
7F000000
FF000000
FFFFFFFF
FFFFFFFF
FFFFFFFF
FFFFFFFF
FFFFFFFF
ENDCHAR
STARTCHAR zcaron
ENCODING -1
SWIDTH 602 0
DWIDTH 39 0
BBX 26 51 6 0
BITMAP
1F003E00
0F003C00
07807800
07C0F800
03E1F000
01E1E000
01F3E000
00FFC000
00FFC000
007F8000
003F0000
003F0000
00000000
00000000
00000000
00000000
7FFFFFC0
7FFFFFC0
7FFFFFC0
7FFFFFC0
7FFFFFC0
00003FC0
00007F80
00007F00
0000FF00
0001FE00
0003FC00
0003F800
0007F800
000FF000
001FE000
001FC000
003F8000
007F8000
00FF0000
00FE0000
01FC0000
03FC0000
07F80000
07F00000
0FE00000
1FE00000
3FC00000
3F800000
7F000000
FF000000
FFFFFFC0
FFFFFFC0
FFFFFFC0
FFFFFFC0
FFFFFFC0
ENDCHAR
STARTCHAR minus
ENCODING -1
SWIDTH 602 0
DWIDTH 39 0
BBX 33 5 3 17
BITMAP
FFFFFFFF80
FFFFFFFF80
FFFFFFFF80
FFFFFFFF80
FFFFFFFF80
ENDCHAR
STARTCHAR Gbreve
ENCODING -1
SWIDTH 602 0
DWIDTH 39 0
BBX 31 60 4 -1
BITMAP
07800780
07C00F80
03F03F00
03FFFF00
01FFFE00
00FFFC00
001FE000
00000000
00000000
00000000
00000000
0003FE00
001FFFC0
007FFFF0
00FFFFF8
01FFFFF8
03FE03F8
07F00078
0FE00018
0FC00008
1F800000
3F800000
3F000000
3F000000
7E000000
7E000000
7E000000
7E000000
7E000000
FC000000
FC000000
FC000000
FC000000
FC000000
FC000000
FC003FFE
FC003FFE
FC003FFE
FC003FFE
FC003FFE
FC00007E
FC00007E
FC00007E
7E00007E
7E00007E
7E00007E
7E00007E
3F00007E
3F00007E
3F80007E
1F80007E
1FC0007E
0FE0007E
07F000FE
03FE03FE
01FFFFFE
00FFFFFC
007FFFF0
001FFFC0
0003FE00
ENDCHAR
STARTCHAR gbreve
ENCODING -1
SWIDTH 602 0
DWIDTH 39 0
BBX 30 64 4 -13
BITMAP
07800780
07800780
07C00F80
03E01F00
03F03F00
01FFFE00
00FFFC00
007FF800
001FE000
00000000
00000000
00000000
00000000
00000000
00000000
003FC000
00FFF0FC
03FFFCFC
07FFFEFC
0FFFFEFC
1FF03FFC
1FC00FFC
3F8007FC
3F0003FC
7F0003FC
7E0001FC
7E0001FC
FE0001FC
FC0000FC
FC0000FC
FC0000FC
FC0000FC
FC0000FC
FC0000FC
FC0000FC
FC0000FC
FC0000FC
FC0000FC
FE0001FC
7E0001FC
7E0001FC
7F0003FC
3F0003FC
3F8007FC
1FC00FFC
1FF03FFC
0FFFFEFC
07FFFCFC
03FFF8FC
00FFF0FC
003FC0FC
000000FC
000000FC
000001F8
000001F8
000001F8
080003F0
0F0007F0
0FE01FE0
0FFFFFE0
0FFFFFC0
0FFFFF00
07FFFE00
007FE000
ENDCHAR
STARTCHAR Idotaccent
ENCODING -1
SWIDTH 602 0
DWIDTH 39 0
BBX 26 58 6 0
BITMAP
003F0000
003F0000
003F0000
003F0000
003F0000
003F0000
00000000
00000000
00000000
00000000
00000000
FFFFFFC0
FFFFFFC0
FFFFFFC0
FFFFFFC0
FFFFFFC0
003F0000
003F0000
003F0000
003F0000
003F0000
003F0000
003F0000
003F0000
003F0000
003F0000
003F0000
003F0000
003F0000
003F0000
003F0000
003F0000
003F0000
003F0000
003F0000
003F0000
003F0000
003F0000
003F0000
003F0000
003F0000
003F0000
003F0000
003F0000
003F0000
003F0000
003F0000
003F0000
003F0000
003F0000
003F0000
003F0000
003F0000
FFFFFFC0
FFFFFFC0
FFFFFFC0
FFFFFFC0
FFFFFFC0
ENDCHAR
STARTCHAR Scedilla
ENCODING -1
SWIDTH 602 0
DWIDTH 39 0
BBX 30 60 4 -12
BITMAP
001FF800
00FFFF80
03FFFFE0
0FFFFFE0
1FFFFFE0
1FF00FE0
3F8000E0
7F000020
7E000000
7E000000
FC000000
FC000000
FC000000
FC000000
FC000000
FC000000
FE000000
FE000000
7F000000
7FC00000
3FF80000
3FFF8000
1FFFF800
07FFFE00
03FFFF80
007FFFC0
000FFFE0
0000FFF0
00000FF0
000007F8
000003F8
000001FC
000000FC
000000FC
000000FC
000000FC
000000FC
000000FC
000000FC
000001F8
400001F8
700003F8
7C000FF0
7FC03FF0
7FFFFFE0
7FFFFFC0
3FFFFF00
07FFFE00
007FE000
0001E000
0000F000
0000F000
00007800
00007800
00007800
0080F800
00FFF800
00FFF000
00FFE000
007F8000
ENDCHAR
STARTCHAR scedilla
ENCODING -1
SWIDTH 602 0
DWIDTH 39 0
BBX 25 48 7 -12
BITMAP
00FFC000
07FFFC00
0FFFFE00
1FFFFE00
3FFFFE00
7FC07E00
7F000E00
FE000200
FC000000
FC000000
FC000000
FC000000
FE000000
FF000000
7FE00000
7FFE0000
3FFFE000
1FFFF800
0FFFFC00
03FFFE00
003FFF00
0003FF00
0000FF80
00003F80
00001F80
00001F80
00001F80
00001F80
00001F80
80003F80
F0007F00
FE01FF00
FFFFFE00
FFFFFC00
FFFFF800
3FFFE000
03FF0000
000F0000
00078000
00078000
0003C000
0003C000
0003C000
0407C000
07FFC000
07FF8000
07FF0000
03FC0000
ENDCHAR
STARTCHAR Cacute
ENCODING -1
SWIDTH 602 0
DWIDTH 39 0
BBX 29 60 4 -1
BITMAP
00000FC0
00001F80
00003F00
00007E00
00007C00
0000F800
0001F000
0003E000
00000000
00000000
00000000
0003FE00
001FFFC0
007FFFF0
00FFFFF8
01FFFFF8
03FE03F8
07F00078
0FE00018
0FC00008
1F800000
1F800000
3F000000
3F000000
7E000000
7E000000
7E000000
7E000000
7C000000
FC000000
FC000000
FC000000
FC000000
FC000000
FC000000
FC000000
FC000000
FC000000
FC000000
FC000000
FC000000
FC000000
FC000000
7E000000
7E000000
7E000000
7E000000
3F000000
3F000000
3F800000
1F800000
0FC00008
0FE00018
07F80078
03FE03F8
01FFFFF8
00FFFFF8
007FFFF0
001FFFC0
0003FE00
ENDCHAR
STARTCHAR cacute
ENCODING -1
SWIDTH 602 0
DWIDTH 39 0
BBX 27 52 6 -1
BITMAP
00000FE0
00000FC0
00001F80
00003F00
00007E00
00007C00
0000FC00
0001F800
0001F000
0003E000
0007C000
000F8000
00000000
00000000
00000000
000FF800
007FFF00
01FFFFC0
03FFFFE0
07FFFFE0
0FFC07E0
1FE000E0
1FC00060
3F800020
3F000000
7F000000
7E000000
7E000000
FE000000
FC000000
FC000000
FC000000
FC000000
FC000000
FC000000
FC000000
FC000000
FC000000
FE000000
7E000000
7E000000
7F000000
3F000000
3F800020
1FC00060
1FE000E0
0FFC07E0
07FFFFE0
03FFFFE0
01FFFFC0
007FFF00
000FF800
ENDCHAR
STARTCHAR Ccaron
ENCODING -1
SWIDTH 602 0
DWIDTH 39 0
BBX 29 60 4 -1
BITMAP
007C01F0
003E03E0
001F07C0
000F8F80
0007DF00
0003FF00
0003FE00
0001FC00
00000000
00000000
00000000
0003FE00
001FFFC0
007FFFF0
00FFFFF8
01FFFFF8
03FE03F8
07F00078
0FE00018
0FC00008
1F800000
1F800000
3F000000
3F000000
7E000000
7E000000
7E000000
7E000000
7C000000
FC000000
FC000000
FC000000
FC000000
FC000000
FC000000
FC000000
FC000000
FC000000
FC000000
FC000000
FC000000
FC000000
FC000000
7E000000
7E000000
7E000000
7E000000
3F000000
3F000000
3F800000
1F800000
0FC00008
0FE00018
07F80078
03FE03F8
01FFFFF8
00FFFFF8
007FFFF0
001FFFC0
0003FE00
ENDCHAR
STARTCHAR ccaron
ENCODING -1
SWIDTH 602 0
DWIDTH 39 0
BBX 27 52 6 -1
BITMAP
03E007C0
01E00780
00F00F00
00F81F00
007C3E00
003C3C00
003E7C00
001FF800
001FF800
000FF000
0007E000
0007E000
00000000
00000000
00000000
000FF800
007FFF00
01FFFFC0
03FFFFE0
07FFFFE0
0FFC07E0
1FE000E0
1FC00060
3F800020
3F000000
7F000000
7E000000
7E000000
FE000000
FC000000
FC000000
FC000000
FC000000
FC000000
FC000000
FC000000
FC000000
FC000000
FE000000
7E000000
7E000000
7F000000
3F000000
3F800020
1FC00060
1FE000E0
0FFC07E0
07FFFFE0
03FFFFE0
01FFFFC0
007FFF00
000FF800
ENDCHAR
STARTCHAR dcroat
ENCODING -1
SWIDTH 602 0
DWIDTH 39 0
BBX 36 50 4 -1
BITMAP
000000FC00
000000FC00
000000FC00
000000FC00
000000FC00
0003FFFFF0
0003FFFFF0
0003FFFFF0
0003FFFFF0
000000FC00
000000FC00
000000FC00
000000FC00
003FC0FC00
00FFF0FC00
03FFFCFC00
07FFFEFC00
0FFFFEFC00
1FF03FFC00
1FC00FFC00
3F8007FC00
3F0003FC00
7F0003FC00
7E0001FC00
7E0001FC00
7E0001FC00
FC0000FC00
FC0000FC00
FC0000FC00
FC0000FC00
FC0000FC00
FC0000FC00
FC0000FC00
FC0000FC00
FC0000FC00
FC0000FC00
FC0000FC00
7E0001FC00
7E0001FC00
7E0001FC00
7F0003FC00
3F0003FC00
3F8007FC00
1FC00FFC00
1FF03FFC00
0FFFFEFC00
07FFFEFC00
03FFFCFC00
00FFF0FC00
003FC00000
ENDCHAR
STARTCHAR periodcentered
ENCODING -1
SWIDTH 602 0
DWIDTH 39 0
BBX 8 10 15 17
BITMAP
FF
FF
FF
FF
FF
FF
FF
FF
FF
FF
ENDCHAR
STARTCHAR Euro
ENCODING -1
SWIDTH 602 0
DWIDTH 39 0
BBX 32 49 1 -1
BITMAP
00003FE0
0001FFF8
0003FFFE
000FFFFF
001FFFFF
003FE03F
003F800F
007F0003
00FE0001
00FC0000
01FC0000
01F80000
01F80000
03F00000
03F00000
03F00000
03F00000
07F00000
7FFFFFE0
7FFFFFC0
7FFFFFC0
FFFFFFC0
07E00000
07E00000
07E00000
07E00000
07E00000
07E00000
7FFFFE00
7FFFFC00
7FFFFC00
FFFFFC00
07E00000
03F00000
03F00000
03F00000
03F00000
01F80000
01F80000
00FC0000
00FE0001
007E0003
007F800F
003FE03F
001FFFFF
000FFFFF
0007FFFE
0001FFF8
00003FE0
ENDCHAR
STARTCHAR c6459
ENCODING -1
SWIDTH 602 0
DWIDTH 39 0
BBX 18 6 10 40
BITMAP
FC0FC0
FC0FC0
FC0FC0
FC0FC0
FC0FC0
FC0FC0
ENDCHAR
STARTCHAR c6460
ENCODING -1
SWIDTH 602 0
DWIDTH 39 0
BBX 12 8 15 39
BITMAP
03F0
07E0
0FC0
1F80
1F00
3E00
7C00
F800
ENDCHAR
STARTCHAR c6461
ENCODING -1
SWIDTH 602 0
DWIDTH 39 0
BBX 21 7 9 40
BITMAP
0F8078
3FE078
7FF8F8
7FFFF0
F8FFF0
F03FE0
F00FC0
ENDCHAR
STARTCHAR c6468
ENCODING -1
SWIDTH 602 0
DWIDTH 39 0
BBX 12 8 12 39
BITMAP
FC00
7E00
3F00
1F80
0F80
07C0
03E0
01F0
ENDCHAR
STARTCHAR c6470
ENCODING -1
SWIDTH 602 0
DWIDTH 39 0
BBX 19 8 10 39
BITMAP
03F800
07FC00
0FFC00
0FBE00
1F1F00
3E0F80
7C07C0
F803E0
ENDCHAR
STARTCHAR c6472
ENCODING -1
SWIDTH 602 0
DWIDTH 39 0
BBX 19 8 10 39
BITMAP
F803E0
7C07C0
3E0F80
1F1F00
0FBE00
07FE00
07FC00
03F800
ENDCHAR
STARTCHAR c6477
ENCODING -1
SWIDTH 602 0
DWIDTH 39 0
BBX 34 11 1 16
BITMAP
0000000180
0000001FC0
000001FFC0
00001FFF00
0003FFF000
003FFF0000
03FFE00000
3FFE000000
FFE0000000
FE00000000
6000000000
ENDCHAR
STARTCHAR c6478
ENCODING -1
SWIDTH 602 0
DWIDTH 39 0
BBX 20 26 8 22
BITMAP
001F00
003F00
007F00
007F00
00FF00
01EF00
01CF00
03CF00
078F00
070F00
0F0F00
1E0F00
1C0F00
3C0F00
780F00
700F00
F00F00
FFFFF0
FFFFF0
FFFFF0
000F00
000F00
000F00
000F00
000F00
000F00
ENDCHAR
STARTCHAR c6475
ENCODING -1
SWIDTH 602 0
DWIDTH 39 0
BBX 20 7 9 40
BITMAP
F000F0
F801F0
7E07E0
7FFFE0
3FFFC0
1FFF80
03FC00
ENDCHAR
STARTCHAR c6476
ENCODING -1
SWIDTH 602 0
DWIDTH 39 0
BBX 6 6 16 40
BITMAP
FC
FC
FC
FC
FC
FC
ENDCHAR
ENDFONT
